SplineFontDB: 3.0
FontName: NicconeOne
FullName: Niccone One
FamilyName: Niccone One
Weight: Book
Copyright: Copyright (c) 2001 by Vernon Adams. All rights reserved.
Version: 1.000
ItalicAngle: 0
UnderlinePosition: -103
UnderlineWidth: 102
Ascent: 1638
Descent: 410
sfntRevision: 0x00010000
LayerCount: 2
Layer: 0 1 "Back"  1
Layer: 1 1 "Fore"  0
XUID: [1021 14 500265001 8195172]
FSType: 0
OS2Version: 3
OS2_WeightWidthSlopeOnly: 0
OS2_UseTypoMetrics: 1
CreationTime: 1320941460
ModificationTime: 1320942758
PfmFamily: 17
TTFWeight: 400
TTFWidth: 5
LineGap: 50
VLineGap: 0
Panose: 2 0 5 5 5 0 0 2 0 2
OS2TypoAscent: -217
OS2TypoAOffset: 1
OS2TypoDescent: -88
OS2TypoDOffset: 1
OS2TypoLinegap: 98
OS2WinAscent: 0
OS2WinAOffset: 1
OS2WinDescent: 0
OS2WinDOffset: 1
HheadAscent: 0
HheadAOffset: 1
HheadDescent: 0
HheadDOffset: 1
OS2SubXSize: 1434
OS2SubYSize: 1331
OS2SubXOff: 0
OS2SubYOff: 287
OS2SupXSize: 1434
OS2SupYSize: 1331
OS2SupXOff: 0
OS2SupYOff: 977
OS2StrikeYSize: 102
OS2StrikeYPos: 512
OS2Vendor: 'newt'
OS2CodePages: 00000001.00000000
OS2UnicodeRanges: 800000ef.5000000b.00000000.00000000
Lookup: 4 0 1 "'liga' Standard Ligatures in Latin lookup 0"  {"'liga' Standard Ligatures in Latin lookup 0 subtable"  } ['liga' ('DFLT' <'dflt' > 'latn' <'dflt' > ) ]
Lookup: 258 0 0 "'kern' Horizontal Kerning in Latin lookup 0"  {"'kern' Horizontal Kerning in Latin lookup 0 per glyph data 0"  "'kern' Horizontal Kerning in Latin lookup 0 per glyph data 1"  "'kern' Horizontal Kerning in Latin lookup 0 kerning class 2"  } ['kern' ('DFLT' <'dflt' > 'latn' <'dflt' > ) ]
MarkAttachClasses: 1
DEI: 91125
KernClass2: 4+ 2 "'kern' Horizontal Kerning in Latin lookup 0 kerning class 2" 
 3 V W
 4 f ff
 3 w v
 1 P
 14 o e c a oslash
 0 {} -119 {} 0 {} -53 {} 0 {} -22 {} 0 {} -101 {}
ShortTable: maxp 16
  1
  0
  291
  228
  6
  262
  6
  1
  0
  0
  0
  0
  0
  0
  2
  1
EndShort

StartChar: B
Encoding: 66 66 4
Width: 1933
Flags: W
LayerCount: 2
Fore
SplineSet
481 298 m 1,0,1
 472 322 472 322 463 355.5 c 128,-1,2
 454 389 454 389 447 420.5 c 128,-1,3
 440 452 440 452 435.5 476.5 c 128,-1,4
 431 501 431 501 431 508 c 1,5,6
 410 508 410 508 373.5 504 c 128,-1,7
 337 500 337 500 294.5 490 c 128,-1,8
 252 480 252 480 208 463 c 128,-1,9
 164 446 164 446 128 418.5 c 128,-1,10
 92 391 92 391 69.5 352.5 c 128,-1,11
 47 314 47 314 47 262 c 0,12,13
 47 194 47 194 79.5 150 c 128,-1,14
 112 106 112 106 161.5 80 c 128,-1,15
 211 54 211 54 270.5 43.5 c 128,-1,16
 330 33 330 33 383 33 c 0,17,18
 517 33 517 33 609 72 c 128,-1,19
 701 111 701 111 763.5 177.5 c 128,-1,20
 826 244 826 244 866 332 c 128,-1,21
 906 420 906 420 936.5 517.5 c 128,-1,22
 967 615 967 615 995 715.5 c 128,-1,23
 1023 816 1023 816 1061 909 c 0,24,25
 1087 974 1087 974 1124.5 1037.5 c 128,-1,26
 1162 1101 1162 1101 1209.5 1158.5 c 128,-1,27
 1257 1216 1257 1216 1313 1265.5 c 128,-1,28
 1369 1315 1369 1315 1431 1354 c 1,29,30
 1399 1362 1399 1362 1365.5 1365 c 128,-1,31
 1332 1368 1332 1368 1300 1368 c 0,32,33
 1202 1368 1202 1368 1104 1339 c 128,-1,34
 1006 1310 1006 1310 916.5 1259 c 128,-1,35
 827 1208 827 1208 749 1137.5 c 128,-1,36
 671 1067 671 1067 614 983.5 c 128,-1,37
 557 900 557 900 524 807 c 128,-1,38
 491 714 491 714 491 618 c 1,39,40
 524 611 524 611 565.5 600 c 128,-1,41
 607 589 607 589 650 570 c 128,-1,42
 693 551 693 551 734.5 523 c 128,-1,43
 776 495 776 495 809 455 c 1,44,-1
 767 411 l 1,45,46
 709 448 709 448 666 467.5 c 128,-1,47
 623 487 623 487 590.5 495.5 c 128,-1,48
 558 504 558 504 533.5 506 c 128,-1,49
 509 508 509 508 489 510 c 1,50,51
 494 478 494 478 503 444 c 128,-1,52
 512 410 512 410 521 381 c 0,53,54
 532 348 532 348 543 316 c 1,55,-1
 481 298 l 1,0,1
1851 1452 m 1,56,57
 1814 1445 1814 1445 1778.5 1435 c 128,-1,58
 1743 1425 1743 1425 1715 1415 c 0,59,60
 1682 1404 1682 1404 1653 1391 c 1,61,62
 1689 1373 1689 1373 1718 1348 c 128,-1,63
 1747 1323 1747 1323 1767.5 1293 c 128,-1,64
 1788 1263 1788 1263 1799 1230 c 128,-1,65
 1810 1197 1810 1197 1810 1163 c 0,66,67
 1810 1115 1810 1115 1795 1071.5 c 128,-1,68
 1780 1028 1780 1028 1756.5 990 c 128,-1,69
 1733 952 1733 952 1704 920 c 128,-1,70
 1675 888 1675 888 1646.5 861.5 c 128,-1,71
 1618 835 1618 835 1592.5 815 c 128,-1,72
 1567 795 1567 795 1552 782 c 1,73,74
 1619 754 1619 754 1673.5 720.5 c 128,-1,75
 1728 687 1728 687 1766 646.5 c 128,-1,76
 1804 606 1804 606 1824.5 557 c 128,-1,77
 1845 508 1845 508 1845 449 c 0,78,79
 1845 351 1845 351 1802.5 262.5 c 128,-1,80
 1760 174 1760 174 1688 107 c 128,-1,81
 1616 40 1616 40 1522.5 0.5 c 128,-1,82
 1429 -39 1429 -39 1327 -39 c 0,83,84
 1282 -39 1282 -39 1234 -28.5 c 128,-1,85
 1186 -18 1186 -18 1146.5 5.5 c 128,-1,86
 1107 29 1107 29 1082 65.5 c 128,-1,87
 1057 102 1057 102 1057 154 c 0,88,89
 1057 181 1057 181 1066 204.5 c 128,-1,90
 1075 228 1075 228 1092.5 245.5 c 128,-1,91
 1110 263 1110 263 1135.5 273 c 128,-1,92
 1161 283 1161 283 1194 283 c 0,93,94
 1212 283 1212 283 1230 277 c 128,-1,95
 1248 271 1248 271 1262.5 258.5 c 128,-1,96
 1277 246 1277 246 1285.5 228 c 128,-1,97
 1294 210 1294 210 1294 186 c 0,98,99
 1294 154 1294 154 1276 133.5 c 128,-1,100
 1258 113 1258 113 1236 101.5 c 128,-1,101
 1214 90 1214 90 1196 86 c 128,-1,102
 1178 82 1178 82 1177 82 c 1,103,104
 1177 63 1177 63 1195.5 51.5 c 128,-1,105
 1214 40 1214 40 1238 34 c 128,-1,106
 1262 28 1262 28 1286 26.5 c 128,-1,107
 1310 25 1310 25 1321 25 c 0,108,109
 1392 25 1392 25 1452 54 c 128,-1,110
 1512 83 1512 83 1555.5 131.5 c 128,-1,111
 1599 180 1599 180 1623.5 243.5 c 128,-1,112
 1648 307 1648 307 1648 375 c 0,113,114
 1648 438 1648 438 1625.5 486.5 c 128,-1,115
 1603 535 1603 535 1569.5 572 c 128,-1,116
 1536 609 1536 609 1496.5 634.5 c 128,-1,117
 1457 660 1457 660 1423.5 677.5 c 128,-1,118
 1390 695 1390 695 1367.5 704.5 c 128,-1,119
 1345 714 1345 714 1345 719 c 256,120,121
 1345 724 1345 724 1366.5 738.5 c 128,-1,122
 1388 753 1388 753 1421 776 c 128,-1,123
 1454 799 1454 799 1491.5 830.5 c 128,-1,124
 1529 862 1529 862 1562 902.5 c 128,-1,125
 1595 943 1595 943 1616.5 991.5 c 128,-1,126
 1638 1040 1638 1040 1638 1098 c 0,127,128
 1638 1121 1638 1121 1630.5 1153 c 128,-1,129
 1623 1185 1623 1185 1607.5 1218 c 128,-1,130
 1592 1251 1592 1251 1566.5 1279.5 c 128,-1,131
 1541 1308 1541 1308 1505 1323 c 1,132,133
 1433 1279 1433 1279 1382 1222.5 c 128,-1,134
 1331 1166 1331 1166 1294.5 1100.5 c 128,-1,135
 1258 1035 1258 1035 1233.5 963 c 128,-1,136
 1209 891 1209 891 1190.5 816.5 c 128,-1,137
 1172 742 1172 742 1157 667 c 128,-1,138
 1142 592 1142 592 1124 520 c 0,139,140
 1097 410 1097 410 1038 309.5 c 128,-1,141
 979 209 979 209 888.5 132.5 c 128,-1,142
 798 56 798 56 676 10.5 c 128,-1,143
 554 -35 554 -35 401 -35 c 0,144,145
 357 -35 357 -35 307.5 -29 c 128,-1,146
 258 -23 258 -23 210.5 -9 c 128,-1,147
 163 5 163 5 119.5 28 c 128,-1,148
 76 51 76 51 43 84 c 128,-1,149
 10 117 10 117 -9.5 161.5 c 128,-1,150
 -29 206 -29 206 -29 264 c 0,151,152
 -29 326 -29 326 -9 376.5 c 128,-1,153
 11 427 11 427 45 467 c 128,-1,154
 79 507 79 507 124.5 535.5 c 128,-1,155
 170 564 170 564 221.5 583 c 128,-1,156
 273 602 273 602 326.5 611 c 128,-1,157
 380 620 380 620 431 620 c 1,158,159
 431 731 431 731 465.5 835 c 128,-1,160
 500 939 500 939 561.5 1030 c 128,-1,161
 623 1121 623 1121 708.5 1197 c 128,-1,162
 794 1273 794 1273 896 1327.5 c 128,-1,163
 998 1382 998 1382 1113 1412 c 128,-1,164
 1228 1442 1228 1442 1349 1442 c 0,165,166
 1408 1442 1408 1442 1463.5 1435.5 c 128,-1,167
 1519 1429 1519 1429 1550 1425 c 1,168,169
 1604 1444 1604 1444 1656 1460 c 0,170,171
 1701 1474 1701 1474 1748.5 1485.5 c 128,-1,172
 1796 1497 1796 1497 1831 1499 c 1,173,-1
 1851 1452 l 1,56,57
EndSplineSet
EndChar

StartChar: H
Encoding: 72 72 5
Width: 1703
Flags: W
LayerCount: 2
Fore
SplineSet
1196 199 m 0,0,1
 1196 268 1196 268 1208 342.5 c 128,-1,2
 1220 417 1220 417 1238.5 491.5 c 128,-1,3
 1257 566 1257 566 1279.5 638.5 c 128,-1,4
 1302 711 1302 711 1323 776 c 1,5,6
 1272 768 1272 768 1221.5 758.5 c 128,-1,7
 1171 749 1171 749 1120 741 c 1,8,9
 1100 650 1100 650 1068 557 c 128,-1,10
 1036 464 1036 464 991.5 377.5 c 128,-1,11
 947 291 947 291 889 216 c 128,-1,12
 831 141 831 141 759 85.5 c 128,-1,13
 687 30 687 30 600 -2 c 128,-1,14
 513 -34 513 -34 410 -34 c 0,15,16
 348 -34 348 -34 293.5 -16.5 c 128,-1,17
 239 1 239 1 198 35.5 c 128,-1,18
 157 70 157 70 133 121 c 128,-1,19
 109 172 109 172 109 238 c 0,20,21
 109 307 109 307 137 366 c 128,-1,22
 165 425 165 425 207 479 c 1,23,24
 129 551 129 551 87 640 c 128,-1,25
 45 729 45 729 45 836 c 0,26,27
 45 942 45 942 77 1028 c 128,-1,28
 109 1114 109 1114 164.5 1181 c 128,-1,29
 220 1248 220 1248 294.5 1297 c 128,-1,30
 369 1346 369 1346 453.5 1377.5 c 128,-1,31
 538 1409 538 1409 629 1424.5 c 128,-1,32
 720 1440 720 1440 809 1440 c 2,33,-1
 1352 1440 l 2,34,35
 1360 1440 1360 1440 1367.5 1435 c 128,-1,36
 1375 1430 1375 1430 1378 1423 c 1,37,38
 1376 1414 1376 1414 1372.5 1411 c 128,-1,39
 1369 1408 1369 1408 1364 1399 c 1,40,41
 1312 1336 1312 1336 1275.5 1265.5 c 128,-1,42
 1239 1195 1239 1195 1212.5 1120 c 128,-1,43
 1186 1045 1186 1045 1166.5 967 c 128,-1,44
 1147 889 1147 889 1130 811 c 1,45,-1
 1350 848 l 1,46,47
 1369 889 1369 889 1397.5 942 c 128,-1,48
 1426 995 1426 995 1461 1050 c 128,-1,49
 1496 1105 1496 1105 1538 1157.5 c 128,-1,50
 1580 1210 1580 1210 1626.5 1251.5 c 128,-1,51
 1673 1293 1673 1293 1723.5 1318 c 128,-1,52
 1774 1343 1774 1343 1827 1343 c 0,53,54
 1852 1343 1852 1343 1875.5 1336 c 128,-1,55
 1899 1329 1899 1329 1917.5 1315.5 c 128,-1,56
 1936 1302 1936 1302 1947 1281.5 c 128,-1,57
 1958 1261 1958 1261 1958 1233 c 0,58,59
 1958 1182 1958 1182 1937 1135.5 c 128,-1,60
 1916 1089 1916 1089 1881 1047 c 128,-1,61
 1846 1005 1846 1005 1800.5 969 c 128,-1,62
 1755 933 1755 933 1706 903.5 c 128,-1,63
 1657 874 1657 874 1608.5 851.5 c 128,-1,64
 1560 829 1560 829 1518 815 c 1,65,66
 1503 781 1503 781 1486 730 c 128,-1,67
 1469 679 1469 679 1452 620 c 128,-1,68
 1435 561 1435 561 1419.5 497 c 128,-1,69
 1404 433 1404 433 1392 373.5 c 128,-1,70
 1380 314 1380 314 1373 262.5 c 128,-1,71
 1366 211 1366 211 1366 176 c 0,72,73
 1366 167 1366 167 1367 153 c 128,-1,74
 1368 139 1368 139 1371.5 126 c 128,-1,75
 1375 113 1375 113 1383 103.5 c 128,-1,76
 1391 94 1391 94 1405 94 c 0,77,78
 1424 94 1424 94 1446 109 c 128,-1,79
 1468 124 1468 124 1489 145 c 128,-1,80
 1510 166 1510 166 1527.5 188 c 128,-1,81
 1545 210 1545 210 1556 225 c 1,82,-1
 1612 172 l 1,83,84
 1591 140 1591 140 1562.5 105.5 c 128,-1,85
 1534 71 1534 71 1499.5 42 c 128,-1,86
 1465 13 1465 13 1426 -6 c 128,-1,87
 1387 -25 1387 -25 1346 -25 c 0,88,89
 1302 -25 1302 -25 1273 -3.5 c 128,-1,90
 1244 18 1244 18 1227 51 c 128,-1,91
 1210 84 1210 84 1203 123.5 c 128,-1,92
 1196 163 1196 163 1196 199 c 0,0,1
162 791 m 0,93,94
 162 718 162 718 186 650 c 128,-1,95
 210 582 210 582 256 526 c 1,96,97
 323 587 323 587 405.5 633 c 128,-1,98
 488 679 488 679 577 710.5 c 128,-1,99
 666 742 666 742 758 760.5 c 128,-1,100
 850 779 850 779 936 786 c 1,101,102
 945 829 945 829 957 879 c 128,-1,103
 969 929 969 929 984.5 982.5 c 128,-1,104
 1000 1036 1000 1036 1018 1090 c 128,-1,105
 1036 1144 1036 1144 1057 1194.5 c 128,-1,106
 1078 1245 1078 1245 1102.5 1289 c 128,-1,107
 1127 1333 1127 1333 1155 1366 c 1,108,109
 1107 1374 1107 1374 1058.5 1376 c 128,-1,110
 1010 1378 1010 1378 960 1378 c 0,111,112
 872 1378 872 1378 779 1364.5 c 128,-1,113
 686 1351 686 1351 597.5 1322 c 128,-1,114
 509 1293 509 1293 430 1247 c 128,-1,115
 351 1201 351 1201 291.5 1136 c 128,-1,116
 232 1071 232 1071 197 985 c 128,-1,117
 162 899 162 899 162 791 c 0,93,94
188 244 m 0,118,119
 188 201 188 201 200.5 162.5 c 128,-1,120
 213 124 213 124 237 95 c 128,-1,121
 261 66 261 66 296.5 49 c 128,-1,122
 332 32 332 32 377 32 c 0,123,124
 459 32 459 32 526.5 63.5 c 128,-1,125
 594 95 594 95 649.5 148 c 128,-1,126
 705 201 705 201 748.5 270.5 c 128,-1,127
 792 340 792 340 826 416 c 128,-1,128
 860 492 860 492 884.5 569 c 128,-1,129
 909 646 909 646 926 715 c 1,130,131
 848 709 848 709 764.5 694.5 c 128,-1,132
 681 680 681 680 600 654 c 128,-1,133
 519 628 519 628 444 587 c 128,-1,134
 369 546 369 546 309 487 c 1,135,136
 393 442 393 442 487 442 c 0,137,138
 506 442 506 442 523 442 c 128,-1,139
 540 442 540 442 559 444 c 1,140,-1
 582 391 l 1,141,142
 529 385 529 385 475 385 c 0,143,144
 416 385 416 385 364.5 398 c 128,-1,145
 313 411 313 411 262 440 c 1,146,147
 231 397 231 397 209.5 347.5 c 128,-1,148
 188 298 188 298 188 244 c 0,118,119
1845 1280 m 0,149,150
 1815 1280 1815 1280 1784 1258.5 c 128,-1,151
 1753 1237 1753 1237 1723 1203 c 128,-1,152
 1693 1169 1693 1169 1665.5 1126.5 c 128,-1,153
 1638 1084 1638 1084 1615.5 1042 c 128,-1,154
 1593 1000 1593 1000 1575.5 962.5 c 128,-1,155
 1558 925 1558 925 1548 901 c 1,156,157
 1577 912 1577 912 1613 930.5 c 128,-1,158
 1649 949 1649 949 1686 973 c 128,-1,159
 1723 997 1723 997 1758 1026 c 128,-1,160
 1793 1055 1793 1055 1820 1087 c 128,-1,161
 1847 1119 1847 1119 1863.5 1153.5 c 128,-1,162
 1880 1188 1880 1188 1880 1223 c 0,163,164
 1880 1230 1880 1230 1878.5 1240 c 128,-1,165
 1877 1250 1877 1250 1873.5 1259 c 128,-1,166
 1870 1268 1870 1268 1863 1274 c 128,-1,167
 1856 1280 1856 1280 1845 1280 c 0,149,150
EndSplineSet
EndChar

StartChar: m
Encoding: 109 109 6
Width: 1384
Flags: W
LayerCount: 2
Fore
SplineSet
489 0 m 1,0,-1
 508 66 l 2,1,2
 520 111 520 111 536 156.5 c 128,-1,3
 552 202 552 202 566.5 248 c 128,-1,4
 581 294 581 294 591.5 340.5 c 128,-1,5
 602 387 602 387 602 434 c 0,6,7
 602 457 602 457 592.5 465 c 128,-1,8
 583 473 583 473 569 473 c 0,9,10
 533 473 533 473 489.5 438 c 128,-1,11
 446 403 446 403 402 350.5 c 128,-1,12
 358 298 358 298 316.5 236.5 c 128,-1,13
 275 175 275 175 243 122.5 c 128,-1,14
 211 70 211 70 191 35 c 128,-1,15
 171 0 171 0 170 0 c 2,16,-1
 29 0 l 1,17,18
 37 25 37 25 49 60.5 c 128,-1,19
 61 96 61 96 74 135.5 c 128,-1,20
 87 175 87 175 100 216.5 c 128,-1,21
 113 258 113 258 123.5 296.5 c 128,-1,22
 134 335 134 335 140.5 367 c 128,-1,23
 147 399 147 399 147 420 c 0,24,25
 147 451 147 451 131 451 c 0,26,27
 118 451 118 451 102 434 c 128,-1,28
 86 417 86 417 71 394.5 c 128,-1,29
 56 372 56 372 43 350 c 128,-1,30
 30 328 30 328 24 317 c 1,31,-1
 -43 356 l 1,32,33
 32 478 32 478 97 541 c 128,-1,34
 162 604 162 604 233 604 c 0,35,36
 261 604 261 604 285 579.5 c 128,-1,37
 309 555 309 555 309 502 c 0,38,39
 309 469 309 469 301 428.5 c 128,-1,40
 293 388 293 388 282 348.5 c 128,-1,41
 271 309 271 309 260 274.5 c 128,-1,42
 249 240 249 240 242 219 c 1,43,44
 262 252 262 252 287.5 293.5 c 128,-1,45
 313 335 313 335 342 378 c 128,-1,46
 371 421 371 421 405 461.5 c 128,-1,47
 439 502 439 502 477 533.5 c 128,-1,48
 515 565 515 565 557 584.5 c 128,-1,49
 599 604 599 604 645 604 c 0,50,51
 681 604 681 604 705.5 594.5 c 128,-1,52
 730 585 730 585 744.5 569 c 128,-1,53
 759 553 759 553 765.5 532 c 128,-1,54
 772 511 772 511 772 489 c 0,55,56
 772 458 772 458 763 422.5 c 128,-1,57
 754 387 754 387 741 350.5 c 128,-1,58
 728 314 728 314 714 278 c 128,-1,59
 700 242 700 242 690 211 c 1,60,61
 712 247 712 247 738.5 290 c 128,-1,62
 765 333 765 333 796 376.5 c 128,-1,63
 827 420 827 420 862.5 461 c 128,-1,64
 898 502 898 502 937.5 534 c 128,-1,65
 977 566 977 566 1020.5 585 c 128,-1,66
 1064 604 1064 604 1112 604 c 0,67,68
 1148 604 1148 604 1172 594.5 c 128,-1,69
 1196 585 1196 585 1210.5 569 c 128,-1,70
 1225 553 1225 553 1231 532 c 128,-1,71
 1237 511 1237 511 1237 489 c 0,72,73
 1237 448 1237 448 1222.5 399.5 c 128,-1,74
 1208 351 1208 351 1190 303 c 128,-1,75
 1172 255 1172 255 1157.5 212 c 128,-1,76
 1143 169 1143 169 1143 139 c 0,77,78
 1143 128 1143 128 1146.5 122.5 c 128,-1,79
 1150 117 1150 117 1161 117 c 0,80,81
 1177 117 1177 117 1197 133.5 c 128,-1,82
 1217 150 1217 150 1235 172 c 128,-1,83
 1253 194 1253 194 1267.5 215 c 128,-1,84
 1282 236 1282 236 1288 244 c 1,85,-1
 1331 204 l 1,86,87
 1300 149 1300 149 1266 108 c 128,-1,88
 1232 67 1232 67 1198 39.5 c 128,-1,89
 1164 12 1164 12 1131 -2 c 128,-1,90
 1098 -16 1098 -16 1069 -16 c 0,91,92
 1047 -16 1047 -16 1031.5 -5.5 c 128,-1,93
 1016 5 1016 5 1006.5 20.5 c 128,-1,94
 997 36 997 36 993 54 c 128,-1,95
 989 72 989 72 989 87 c 0,96,97
 989 129 989 129 1001.5 171 c 128,-1,98
 1014 213 1014 213 1029 256.5 c 128,-1,99
 1044 300 1044 300 1056.5 344.5 c 128,-1,100
 1069 389 1069 389 1069 434 c 0,101,102
 1069 457 1069 457 1059.5 465 c 128,-1,103
 1050 473 1050 473 1034 473 c 0,104,105
 1007 473 1007 473 975.5 452.5 c 128,-1,106
 944 432 944 432 911 398.5 c 128,-1,107
 878 365 878 365 845 322.5 c 128,-1,108
 812 280 812 280 781.5 235 c 128,-1,109
 751 190 751 190 724.5 147.5 c 128,-1,110
 698 105 698 105 678.5 72 c 128,-1,111
 659 39 659 39 648 19 c 128,-1,112
 637 -1 637 -1 637 0 c 1,113,-1
 489 0 l 1,0,-1
EndSplineSet
EndChar

StartChar: r
Encoding: 114 114 7
Width: 764
Flags: W
LayerCount: 2
Fore
SplineSet
549 473 m 0,0,1
 515 473 515 473 474.5 438 c 128,-1,2
 434 403 434 403 392.5 350.5 c 128,-1,3
 351 298 351 298 311.5 236.5 c 128,-1,4
 272 175 272 175 241.5 122.5 c 128,-1,5
 211 70 211 70 192 35 c 128,-1,6
 173 0 173 0 172 0 c 2,7,-1
 31 0 l 1,8,9
 39 25 39 25 51 60.5 c 128,-1,10
 63 96 63 96 76 135.5 c 128,-1,11
 89 175 89 175 102 216.5 c 128,-1,12
 115 258 115 258 125.5 296.5 c 128,-1,13
 136 335 136 335 142.5 367 c 128,-1,14
 149 399 149 399 149 420 c 0,15,16
 149 451 149 451 133 451 c 0,17,18
 120 451 120 451 104 434 c 128,-1,19
 88 417 88 417 73 394.5 c 128,-1,20
 58 372 58 372 45 350 c 128,-1,21
 32 328 32 328 26 317 c 1,22,-1
 -41 356 l 1,23,24
 34 478 34 478 99 541 c 128,-1,25
 164 604 164 604 235 604 c 0,26,27
 263 604 263 604 287 579.5 c 128,-1,28
 311 555 311 555 311 502 c 0,29,30
 311 469 311 469 303 428.5 c 128,-1,31
 295 388 295 388 284 348.5 c 128,-1,32
 273 309 273 309 262 274.5 c 128,-1,33
 251 240 251 240 244 219 c 1,34,35
 263 252 263 252 286.5 293.5 c 128,-1,36
 310 335 310 335 338 378 c 128,-1,37
 366 421 366 421 398 461.5 c 128,-1,38
 430 502 430 502 465.5 533.5 c 128,-1,39
 501 565 501 565 541 584.5 c 128,-1,40
 581 604 581 604 625 604 c 0,41,42
 658 604 658 604 681.5 595 c 128,-1,43
 705 586 705 586 720 571.5 c 128,-1,44
 735 557 735 557 742 538.5 c 128,-1,45
 749 520 749 520 749 502 c 0,46,47
 749 483 749 483 742.5 465 c 128,-1,48
 736 447 736 447 724 432.5 c 128,-1,49
 712 418 712 418 695.5 409.5 c 128,-1,50
 679 401 679 401 659 401 c 0,51,52
 628 401 628 401 611.5 412 c 128,-1,53
 595 423 595 423 585.5 436.5 c 128,-1,54
 576 450 576 450 568.5 461.5 c 128,-1,55
 561 473 561 473 549 473 c 0,0,1
EndSplineSet
EndChar

StartChar: o
Encoding: 111 111 8
Width: 775
Flags: W
LayerCount: 2
Fore
SplineSet
-1 238 m 0,0,1
 -1 316 -1 316 35.5 383 c 128,-1,2
 72 450 72 450 130.5 499 c 128,-1,3
 189 548 189 548 262 576 c 128,-1,4
 335 604 335 604 409 604 c 0,5,6
 464 604 464 604 515.5 586 c 128,-1,7
 567 568 567 568 606.5 535 c 128,-1,8
 646 502 646 502 670 455.5 c 128,-1,9
 694 409 694 409 694 352 c 0,10,11
 694 273 694 273 659.5 205.5 c 128,-1,12
 625 138 625 138 567.5 89 c 128,-1,13
 510 40 510 40 434 12 c 128,-1,14
 358 -16 358 -16 274 -16 c 0,15,16
 217 -16 217 -16 167 2.5 c 128,-1,17
 117 21 117 21 79.5 54.5 c 128,-1,18
 42 88 42 88 20.5 135 c 128,-1,19
 -1 182 -1 182 -1 238 c 0,0,1
182 233 m 0,20,21
 182 200 182 200 188.5 167 c 128,-1,22
 195 134 195 134 211 107 c 128,-1,23
 227 80 227 80 253.5 63 c 128,-1,24
 280 46 280 46 319 46 c 0,25,26
 376 46 376 46 413.5 76.5 c 128,-1,27
 451 107 451 107 473.5 152.5 c 128,-1,28
 496 198 496 198 505.5 250.5 c 128,-1,29
 515 303 515 303 515 346 c 0,30,31
 515 397 515 397 504.5 434 c 128,-1,32
 494 471 494 471 477 495 c 128,-1,33
 460 519 460 519 436.5 531 c 128,-1,34
 413 543 413 543 388 543 c 0,35,36
 353 543 353 543 316.5 522 c 128,-1,37
 280 501 280 501 250 461 c 128,-1,38
 220 421 220 421 201 363.5 c 128,-1,39
 182 306 182 306 182 233 c 0,20,21
EndSplineSet
EndChar

StartChar: f
Encoding: 102 102 9
Width: 567
Flags: W
LayerCount: 2
Fore
SplineSet
330 414 m 2,0,1
 308 322 308 322 286 234.5 c 128,-1,2
 264 147 264 147 238 69.5 c 128,-1,3
 212 -8 212 -8 179.5 -73 c 128,-1,4
 147 -138 147 -138 104 -185 c 128,-1,5
 61 -232 61 -232 5.5 -258.5 c 128,-1,6
 -50 -285 -50 -285 -121 -285 c 0,7,8
 -170 -285 -170 -285 -191.5 -262 c 128,-1,9
 -213 -239 -213 -239 -213 -211 c 256,10,11
 -213 -183 -213 -183 -193.5 -160 c 128,-1,12
 -174 -137 -174 -137 -139 -137 c 0,13,14
 -113 -137 -113 -137 -92.5 -150.5 c 128,-1,15
 -72 -164 -72 -164 -72 -188 c 0,16,17
 -72 -196 -72 -196 -76.5 -212 c 128,-1,18
 -81 -228 -81 -228 -86 -236 c 1,19,20
 -53 -231 -53 -231 -25.5 -195.5 c 128,-1,21
 2 -160 2 -160 24.5 -105.5 c 128,-1,22
 47 -51 47 -51 65.5 17 c 128,-1,23
 84 85 84 85 99.5 155.5 c 128,-1,24
 115 226 115 226 128 293.5 c 128,-1,25
 141 361 141 361 154 414 c 2,26,-1
 178 516 l 1,27,-1
 -10 516 l 1,28,-1
 6 582 l 1,29,-1
 192 582 l 1,30,31
 235 756 235 756 288 908 c 128,-1,32
 341 1060 341 1060 411.5 1172 c 128,-1,33
 482 1284 482 1284 574.5 1348.5 c 128,-1,34
 667 1413 667 1413 790 1413 c 0,35,36
 826 1413 826 1413 861.5 1406.5 c 128,-1,37
 897 1400 897 1400 925.5 1383 c 128,-1,38
 954 1366 954 1366 971.5 1337.5 c 128,-1,39
 989 1309 989 1309 989 1266 c 0,40,41
 989 1242 989 1242 980 1223.5 c 128,-1,42
 971 1205 971 1205 956 1192.5 c 128,-1,43
 941 1180 941 1180 922 1173.5 c 128,-1,44
 903 1167 903 1167 883 1167 c 256,45,46
 863 1167 863 1167 845 1173 c 128,-1,47
 827 1179 827 1179 813 1190.5 c 128,-1,48
 799 1202 799 1202 790.5 1219.5 c 128,-1,49
 782 1237 782 1237 782 1260 c 0,50,51
 782 1294 782 1294 809 1331 c 1,52,53
 792 1337 792 1337 776.5 1342.5 c 128,-1,54
 761 1348 761 1348 745 1348 c 0,55,56
 701 1348 701 1348 664.5 1319 c 128,-1,57
 628 1290 628 1290 598 1248 c 128,-1,58
 568 1206 568 1206 546 1158.5 c 128,-1,59
 524 1111 524 1111 510 1073 c 0,60,61
 467 956 467 956 432.5 831.5 c 128,-1,62
 398 707 398 707 369 582 c 1,63,-1
 608 582 l 1,64,-1
 592 516 l 1,65,-1
 354 516 l 1,66,-1
 330 414 l 2,0,1
EndSplineSet
EndChar

StartChar: e
Encoding: 101 101 10
Width: 706
Flags: W
LayerCount: 2
Fore
SplineSet
-1 233 m 0,0,1
 -1 311 -1 311 36 379 c 128,-1,2
 73 447 73 447 132.5 497 c 128,-1,3
 192 547 192 547 265.5 575.5 c 128,-1,4
 339 604 339 604 411 604 c 0,5,6
 451 604 451 604 490.5 594 c 128,-1,7
 530 584 530 584 562 564.5 c 128,-1,8
 594 545 594 545 614 515 c 128,-1,9
 634 485 634 485 636 446 c 1,10,11
 636 398 636 398 615.5 360.5 c 128,-1,12
 595 323 595 323 561.5 295.5 c 128,-1,13
 528 268 528 268 484.5 248.5 c 128,-1,14
 441 229 441 229 395.5 217.5 c 128,-1,15
 350 206 350 206 306 200.5 c 128,-1,16
 262 195 262 195 227 195 c 0,17,18
 216 195 216 195 207 196 c 128,-1,19
 198 197 198 197 184 197 c 1,20,21
 186 159 186 159 203.5 136.5 c 128,-1,22
 221 114 221 114 244.5 102 c 128,-1,23
 268 90 268 90 294 86 c 128,-1,24
 320 82 320 82 339 82 c 0,25,26
 367 82 367 82 397 91 c 128,-1,27
 427 100 427 100 455 114.5 c 128,-1,28
 483 129 483 129 507.5 148 c 128,-1,29
 532 167 532 167 550 188 c 1,30,-1
 593 160 l 1,31,32
 558 103 558 103 512 68 c 128,-1,33
 466 33 466 33 418 14.5 c 128,-1,34
 370 -4 370 -4 326 -10 c 128,-1,35
 282 -16 282 -16 251 -16 c 0,36,37
 197 -16 197 -16 150.5 3 c 128,-1,38
 104 22 104 22 70.5 55.5 c 128,-1,39
 37 89 37 89 18 134.5 c 128,-1,40
 -1 180 -1 180 -1 233 c 0,0,1
178 252 m 1,41,42
 229 254 229 254 282.5 264.5 c 128,-1,43
 336 275 336 275 379 298 c 128,-1,44
 422 321 422 321 449.5 359 c 128,-1,45
 477 397 477 397 477 455 c 0,46,47
 477 473 477 473 470 487.5 c 128,-1,48
 463 502 463 502 452.5 512 c 128,-1,49
 442 522 442 522 429.5 527 c 128,-1,50
 417 532 417 532 405 532 c 0,51,52
 354 532 354 532 312.5 506 c 128,-1,53
 271 480 271 480 241 439 c 128,-1,54
 211 398 211 398 194.5 348.5 c 128,-1,55
 178 299 178 299 178 252 c 1,41,42
EndSplineSet
EndChar

StartChar: d
Encoding: 100 100 11
Width: 880
Flags: W
LayerCount: 2
Fore
SplineSet
827 204 m 1,0,1
 792 141 792 141 754.5 98.5 c 128,-1,2
 717 56 717 56 682.5 30.5 c 128,-1,3
 648 5 648 5 620 -5.5 c 128,-1,4
 592 -16 592 -16 575 -16 c 0,5,6
 533 -16 533 -16 508.5 14.5 c 128,-1,7
 484 45 484 45 484 107 c 0,8,9
 484 111 484 111 484.5 114.5 c 128,-1,10
 485 118 485 118 485 123 c 1,11,12
 428 48 428 48 368 16 c 128,-1,13
 308 -16 308 -16 234 -16 c 0,14,15
 186 -16 186 -16 143 2.5 c 128,-1,16
 100 21 100 21 68.5 54.5 c 128,-1,17
 37 88 37 88 18.5 135 c 128,-1,18
 0 182 0 182 0 238 c 0,19,20
 0 314 0 314 31.5 381 c 128,-1,21
 63 448 63 448 114 497.5 c 128,-1,22
 165 547 165 547 230 575.5 c 128,-1,23
 295 604 295 604 363 604 c 0,24,25
 435 604 435 604 486.5 575.5 c 128,-1,26
 538 547 538 547 553 498 c 1,27,28
 568 559 568 559 588.5 630.5 c 128,-1,29
 609 702 609 702 633 778 c 128,-1,30
 657 854 657 854 683.5 931 c 128,-1,31
 710 1008 710 1008 737.5 1080 c 128,-1,32
 765 1152 765 1152 792.5 1216 c 128,-1,33
 820 1280 820 1280 845 1329 c 1,34,-1
 1005 1329 l 1,35,36
 981 1282 981 1282 953 1213 c 128,-1,37
 925 1144 925 1144 895 1061 c 128,-1,38
 865 978 865 978 834.5 886.5 c 128,-1,39
 804 795 804 795 775.5 703.5 c 128,-1,40
 747 612 747 612 722.5 525 c 128,-1,41
 698 438 698 438 679.5 365 c 128,-1,42
 661 292 661 292 650.5 237.5 c 128,-1,43
 640 183 640 183 640 156 c 0,44,45
 640 117 640 117 656 117 c 0,46,47
 669 117 669 117 684.5 128 c 128,-1,48
 700 139 700 139 716.5 157 c 128,-1,49
 733 175 733 175 750.5 198 c 128,-1,50
 768 221 768 221 784 244 c 1,51,-1
 827 204 l 1,0,1
181 244 m 0,52,53
 181 217 181 217 185.5 188 c 128,-1,54
 190 159 190 159 203.5 136 c 128,-1,55
 217 113 217 113 241.5 98 c 128,-1,56
 266 83 266 83 305 83 c 256,57,58
 344 83 344 83 376 100 c 128,-1,59
 408 117 408 117 433 143 c 128,-1,60
 458 169 458 169 476.5 201 c 128,-1,61
 495 233 495 233 507 263.5 c 128,-1,62
 519 294 519 294 525 319 c 128,-1,63
 531 344 531 344 531 356 c 0,64,65
 531 444 531 444 499 481 c 128,-1,66
 467 518 467 518 408 518 c 0,67,68
 371 518 371 518 331 500 c 128,-1,69
 291 482 291 482 257.5 447 c 128,-1,70
 224 412 224 412 202.5 361 c 128,-1,71
 181 310 181 310 181 244 c 0,52,53
EndSplineSet
EndChar

StartChar: n
Encoding: 110 110 12
Width: 904
Flags: W
LayerCount: 2
Fore
SplineSet
-33 356 m 1,0,1
 42 478 42 478 107 541 c 128,-1,2
 172 604 172 604 243 604 c 0,3,4
 271 604 271 604 295 579.5 c 128,-1,5
 319 555 319 555 319 502 c 0,6,7
 319 476 319 476 313.5 444.5 c 128,-1,8
 308 413 308 413 300 382 c 128,-1,9
 292 351 292 351 284 324.5 c 128,-1,10
 276 298 276 298 272 281 c 1,11,12
 291 311 291 311 316 346 c 128,-1,13
 341 381 341 381 370 417 c 128,-1,14
 399 453 399 453 432.5 486.5 c 128,-1,15
 466 520 466 520 501 546.5 c 128,-1,16
 536 573 536 573 573 588.5 c 128,-1,17
 610 604 610 604 647 604 c 0,18,19
 677 604 677 604 698 594 c 128,-1,20
 719 584 719 584 732.5 567.5 c 128,-1,21
 746 551 746 551 752.5 530.5 c 128,-1,22
 759 510 759 510 759 489 c 0,23,24
 759 449 759 449 744.5 400.5 c 128,-1,25
 730 352 730 352 712.5 304 c 128,-1,26
 695 256 695 256 680.5 213 c 128,-1,27
 666 170 666 170 666 142 c 0,28,29
 666 115 666 115 681 115 c 0,30,31
 692 115 692 115 708.5 128 c 128,-1,32
 725 141 725 141 743 160.5 c 128,-1,33
 761 180 761 180 778.5 202.5 c 128,-1,34
 796 225 796 225 809 244 c 1,35,-1
 851 204 l 1,36,37
 818 144 818 144 782.5 102.5 c 128,-1,38
 747 61 747 61 713 34.5 c 128,-1,39
 679 8 679 8 649 -4 c 128,-1,40
 619 -16 619 -16 597 -16 c 0,41,42
 559 -16 559 -16 534 13 c 128,-1,43
 509 42 509 42 509 87 c 0,44,45
 509 130 509 130 521.5 173.5 c 128,-1,46
 534 217 534 217 549.5 260.5 c 128,-1,47
 565 304 565 304 577.5 347 c 128,-1,48
 590 390 590 390 590 434 c 0,49,50
 590 457 590 457 580.5 465 c 128,-1,51
 571 473 571 473 557 473 c 0,52,53
 523 473 523 473 482.5 438 c 128,-1,54
 442 403 442 403 400.5 350.5 c 128,-1,55
 359 298 359 298 319.5 236.5 c 128,-1,56
 280 175 280 175 249.5 122.5 c 128,-1,57
 219 70 219 70 200 35 c 128,-1,58
 181 0 181 0 180 0 c 2,59,-1
 39 0 l 1,60,61
 47 25 47 25 59 60.5 c 128,-1,62
 71 96 71 96 84 135.5 c 128,-1,63
 97 175 97 175 110 216.5 c 128,-1,64
 123 258 123 258 133.5 296.5 c 128,-1,65
 144 335 144 335 150.5 367 c 128,-1,66
 157 399 157 399 157 420 c 0,67,68
 157 451 157 451 141 451 c 0,69,70
 128 451 128 451 112 434 c 128,-1,71
 96 417 96 417 81 394.5 c 128,-1,72
 66 372 66 372 53 350 c 128,-1,73
 40 328 40 328 34 317 c 1,74,-1
 -33 356 l 1,0,1
EndSplineSet
EndChar

StartChar: l
Encoding: 108 108 13
Width: 406
Flags: W
LayerCount: 2
Fore
SplineSet
534 1330 m 1,0,1
 517 1301 517 1301 492.5 1242 c 128,-1,2
 468 1183 468 1183 439 1104.5 c 128,-1,3
 410 1026 410 1026 378.5 933.5 c 128,-1,4
 347 841 347 841 317 745.5 c 128,-1,5
 287 650 287 650 259.5 557.5 c 128,-1,6
 232 465 232 465 211 386 c 128,-1,7
 190 307 190 307 178 248 c 128,-1,8
 166 189 166 189 166 160 c 0,9,10
 166 117 166 117 180 117 c 0,11,12
 186 117 186 117 195.5 120 c 128,-1,13
 205 123 205 123 220.5 136 c 128,-1,14
 236 149 236 149 258 174.5 c 128,-1,15
 280 200 280 200 311 244 c 1,16,-1
 353 204 l 1,17,18
 317 143 317 143 280.5 101 c 128,-1,19
 244 59 244 59 210.5 33 c 128,-1,20
 177 7 177 7 149 -4.5 c 128,-1,21
 121 -16 121 -16 103 -16 c 0,22,23
 55 -16 55 -16 32.5 19 c 128,-1,24
 10 54 10 54 10 107 c 0,25,26
 10 172 10 172 26.5 266.5 c 128,-1,27
 43 361 43 361 71.5 471.5 c 128,-1,28
 100 582 100 582 136.5 701 c 128,-1,29
 173 820 173 820 213.5 934.5 c 128,-1,30
 254 1049 254 1049 295 1151 c 128,-1,31
 336 1253 336 1253 372 1330 c 1,32,-1
 534 1330 l 1,0,1
EndSplineSet
EndChar

StartChar: b
Encoding: 98 98 14
Width: 766
Flags: W
LayerCount: 2
Fore
SplineSet
272 -16 m 0,0,1
 215 -16 215 -16 167.5 0.5 c 128,-1,2
 120 17 120 17 85.5 47 c 128,-1,3
 51 77 51 77 31.5 118 c 128,-1,4
 12 159 12 159 12 207 c 0,5,6
 12 216 12 216 13 226.5 c 128,-1,7
 14 237 14 237 16 248 c 0,8,9
 28 330 28 330 49 426.5 c 128,-1,10
 70 523 70 523 97 625 c 128,-1,11
 124 727 124 727 158 829.5 c 128,-1,12
 192 932 192 932 230 1026 c 128,-1,13
 268 1120 268 1120 310 1200.5 c 128,-1,14
 352 1281 352 1281 397 1339 c 1,15,-1
 567 1339 l 1,16,17
 541 1310 541 1310 511 1256 c 128,-1,18
 481 1202 481 1202 449 1130.5 c 128,-1,19
 417 1059 417 1059 385 974.5 c 128,-1,20
 353 890 353 890 323 800.5 c 128,-1,21
 293 711 293 711 266 619.5 c 128,-1,22
 239 528 239 528 219 444 c 1,23,24
 241 473 241 473 268.5 502 c 128,-1,25
 296 531 296 531 330 553.5 c 128,-1,26
 364 576 364 576 404 590 c 128,-1,27
 444 604 444 604 491 604 c 0,28,29
 540 604 540 604 576.5 586 c 128,-1,30
 613 568 613 568 637.5 537.5 c 128,-1,31
 662 507 662 507 674 466.5 c 128,-1,32
 686 426 686 426 686 381 c 0,33,34
 686 315 686 315 660 244.5 c 128,-1,35
 634 174 634 174 582 116.5 c 128,-1,36
 530 59 530 59 452.5 21.5 c 128,-1,37
 375 -16 375 -16 272 -16 c 0,0,1
188 248 m 1,38,39
 185 232 185 232 182.5 216 c 128,-1,40
 180 200 180 200 180 184 c 0,41,42
 180 158 180 158 186.5 133.5 c 128,-1,43
 193 109 193 109 207 89.5 c 128,-1,44
 221 70 221 70 242.5 58 c 128,-1,45
 264 46 264 46 295 46 c 0,46,47
 345 46 345 46 384 76.5 c 128,-1,48
 423 107 423 107 449.5 154 c 128,-1,49
 476 201 476 201 490 257 c 128,-1,50
 504 313 504 313 504 365 c 0,51,52
 504 397 504 397 498.5 425.5 c 128,-1,53
 493 454 493 454 482 475 c 128,-1,54
 471 496 471 496 454.5 508 c 128,-1,55
 438 520 438 520 416 520 c 0,56,57
 392 520 392 520 359.5 501.5 c 128,-1,58
 327 483 327 483 294.5 448 c 128,-1,59
 262 413 262 413 233.5 362.5 c 128,-1,60
 205 312 205 312 188 248 c 1,38,39
EndSplineSet
EndChar

StartChar: g
Encoding: 103 103 15
Width: 714
Flags: W
LayerCount: 2
Fore
SplineSet
-98 -248 m 0,0,1
 -98 -224 -98 -224 -83.5 -205.5 c 128,-1,2
 -69 -187 -69 -187 -50.5 -174.5 c 128,-1,3
 -32 -162 -32 -162 -15.5 -155 c 128,-1,4
 1 -148 1 -148 4 -147 c 1,5,6
 3 -146 3 -146 -3.5 -140.5 c 128,-1,7
 -10 -135 -10 -135 -17.5 -126.5 c 128,-1,8
 -25 -118 -25 -118 -31.5 -108 c 128,-1,9
 -38 -98 -38 -98 -38 -88 c 0,10,11
 -38 -73 -38 -73 -32 -59 c 128,-1,12
 -26 -45 -26 -45 -14 -37 c 1,13,-1
 107 82 l 1,14,15
 54 127 54 127 27.5 177.5 c 128,-1,16
 1 228 1 228 1 293 c 0,17,18
 1 357 1 357 31.5 415 c 128,-1,19
 62 473 62 473 111.5 516 c 128,-1,20
 161 559 161 559 225 584.5 c 128,-1,21
 289 610 289 610 357 610 c 0,22,23
 369 610 369 610 380.5 610 c 128,-1,24
 392 610 392 610 404 608 c 1,25,26
 408 642 408 642 426 679 c 128,-1,27
 444 716 444 716 474.5 747 c 128,-1,28
 505 778 505 778 547 798.5 c 128,-1,29
 589 819 589 819 640 819 c 256,30,31
 691 819 691 819 718.5 797.5 c 128,-1,32
 746 776 746 776 746 729 c 0,33,34
 746 687 746 687 722.5 666 c 128,-1,35
 699 645 699 645 668 645 c 0,36,37
 640 645 640 645 616 663.5 c 128,-1,38
 592 682 592 682 582 717 c 1,39,40
 550 708 550 708 525 694 c 128,-1,41
 500 680 500 680 483 663.5 c 128,-1,42
 466 647 466 647 457.5 630.5 c 128,-1,43
 449 614 449 614 449 602 c 1,44,45
 490 587 490 587 524 561 c 128,-1,46
 558 535 558 535 582 501.5 c 128,-1,47
 606 468 606 468 619.5 430.5 c 128,-1,48
 633 393 633 393 633 356 c 0,49,50
 633 288 633 288 603.5 230 c 128,-1,51
 574 172 574 172 526 129 c 128,-1,52
 478 86 478 86 416.5 61.5 c 128,-1,53
 355 37 355 37 291 37 c 0,54,55
 243 37 243 37 211 42 c 128,-1,56
 179 47 179 47 148 59 c 1,57,58
 131 44 131 44 118 32 c 0,59,60
 107 21 107 21 98 10 c 128,-1,61
 89 -1 89 -1 89 -8 c 0,62,63
 89 -17 89 -17 94.5 -23 c 128,-1,64
 100 -29 100 -29 107.5 -32.5 c 128,-1,65
 115 -36 115 -36 123.5 -37.5 c 128,-1,66
 132 -39 132 -39 138 -39 c 2,67,-1
 336 -47 l 2,68,69
 436 -51 436 -51 493.5 -79.5 c 128,-1,70
 551 -108 551 -108 551 -162 c 0,71,72
 551 -220 551 -220 519.5 -259.5 c 128,-1,73
 488 -299 488 -299 435.5 -323 c 128,-1,74
 383 -347 383 -347 315.5 -357 c 128,-1,75
 248 -367 248 -367 175 -367 c 0,76,77
 156 -367 156 -367 128.5 -365 c 128,-1,78
 101 -363 101 -363 70.5 -358 c 128,-1,79
 40 -353 40 -353 10 -344.5 c 128,-1,80
 -20 -336 -20 -336 -44 -322.5 c 128,-1,81
 -68 -309 -68 -309 -83 -291 c 128,-1,82
 -98 -273 -98 -273 -98 -248 c 0,0,1
175 287 m 0,83,84
 175 258 175 258 179.5 224.5 c 128,-1,85
 184 191 184 191 197 162.5 c 128,-1,86
 210 134 210 134 233 115 c 128,-1,87
 256 96 256 96 293 96 c 0,88,89
 342 96 342 96 376 122.5 c 128,-1,90
 410 149 410 149 430 189.5 c 128,-1,91
 450 230 450 230 459 278 c 128,-1,92
 468 326 468 326 468 369 c 0,93,94
 468 392 468 392 461.5 422 c 128,-1,95
 455 452 455 452 441 479 c 128,-1,96
 427 506 427 506 406 524.5 c 128,-1,97
 385 543 385 543 357 543 c 0,98,99
 310 543 310 543 276 517.5 c 128,-1,100
 242 492 242 492 219.5 454 c 128,-1,101
 197 416 197 416 186 371 c 128,-1,102
 175 326 175 326 175 287 c 0,83,84
9 -244 m 0,103,104
 9 -265 9 -265 23 -277.5 c 128,-1,105
 37 -290 37 -290 61.5 -297 c 128,-1,106
 86 -304 86 -304 119.5 -306.5 c 128,-1,107
 153 -309 153 -309 191 -309 c 0,108,109
 220 -309 220 -309 258.5 -306.5 c 128,-1,110
 297 -304 297 -304 331.5 -295.5 c 128,-1,111
 366 -287 366 -287 390 -272 c 128,-1,112
 414 -257 414 -257 414 -231 c 0,113,114
 414 -213 414 -213 388 -200 c 128,-1,115
 362 -187 362 -187 316.5 -179 c 128,-1,116
 271 -171 271 -171 208 -167.5 c 128,-1,117
 145 -164 145 -164 70 -164 c 0,118,119
 56 -164 56 -164 45 -172.5 c 128,-1,120
 34 -181 34 -181 26 -193.5 c 128,-1,121
 18 -206 18 -206 13.5 -220 c 128,-1,122
 9 -234 9 -234 9 -244 c 0,103,104
EndSplineSet
EndChar

StartChar: i
Encoding: 105 105 16
Width: 484
Flags: W
LayerCount: 2
Fore
SplineSet
88 76 m 0,0,1
 88 120 88 120 102.5 174.5 c 128,-1,2
 117 229 117 229 135 280 c 128,-1,3
 153 331 153 331 167.5 371.5 c 128,-1,4
 182 412 182 412 182 428 c 256,5,6
 182 444 182 444 179 449.5 c 128,-1,7
 176 455 176 455 168 455 c 0,8,9
 156 455 156 455 142 442 c 128,-1,10
 128 429 128 429 113 409 c 128,-1,11
 98 389 98 389 83 364.5 c 128,-1,12
 68 340 68 340 55 317 c 1,13,-1
 -12 356 l 1,14,15
 30 428 30 428 68 475.5 c 128,-1,16
 106 523 106 523 139.5 551.5 c 128,-1,17
 173 580 173 580 202.5 592 c 128,-1,18
 232 604 232 604 258 604 c 0,19,20
 283 604 283 604 299.5 595.5 c 128,-1,21
 316 587 316 587 325.5 572.5 c 128,-1,22
 335 558 335 558 338.5 538.5 c 128,-1,23
 342 519 342 519 342 498 c 0,24,25
 342 473 342 473 335 446 c 128,-1,26
 328 419 328 419 322 399 c 2,27,-1
 250 193 l 2,28,29
 248 187 248 187 243.5 171.5 c 128,-1,30
 239 156 239 156 239 142 c 0,31,32
 239 131 239 131 242.5 124 c 128,-1,33
 246 117 246 117 257 117 c 0,34,35
 263 117 263 117 272 121 c 128,-1,36
 281 125 281 125 295.5 138.5 c 128,-1,37
 310 152 310 152 331 176.5 c 128,-1,38
 352 201 352 201 382 243 c 1,39,-1
 424 204 l 1,40,41
 395 150 395 150 360 108.5 c 128,-1,42
 325 67 325 67 290.5 39.5 c 128,-1,43
 256 12 256 12 225.5 -2 c 128,-1,44
 195 -16 195 -16 175 -16 c 0,45,46
 135 -16 135 -16 111.5 10 c 128,-1,47
 88 36 88 36 88 76 c 0,0,1
361 793 m 0,48,49
 338 793 338 793 321 801 c 128,-1,50
 304 809 304 809 293 822.5 c 128,-1,51
 282 836 282 836 276.5 852.5 c 128,-1,52
 271 869 271 869 271 887 c 0,53,54
 271 908 271 908 277.5 927.5 c 128,-1,55
 284 947 284 947 297.5 962.5 c 128,-1,56
 311 978 311 978 331.5 987.5 c 128,-1,57
 352 997 352 997 379 997 c 0,58,59
 400 997 400 997 415.5 989 c 128,-1,60
 431 981 431 981 441.5 967.5 c 128,-1,61
 452 954 452 954 457.5 936.5 c 128,-1,62
 463 919 463 919 463 901 c 0,63,64
 463 882 463 882 457 862.5 c 128,-1,65
 451 843 451 843 438 827.5 c 128,-1,66
 425 812 425 812 406 802.5 c 128,-1,67
 387 793 387 793 361 793 c 0,48,49
EndSplineSet
EndChar

StartChar: s
Encoding: 115 115 17
Width: 657
Flags: W
LayerCount: 2
Fore
SplineSet
-28 135 m 0,0,1
 -28 151 -28 151 -23 166 c 128,-1,2
 -18 181 -18 181 -8 193 c 128,-1,3
 2 205 2 205 16 212 c 128,-1,4
 30 219 30 219 48 219 c 0,5,6
 64 219 64 219 80 214 c 128,-1,7
 96 209 96 209 108.5 199.5 c 128,-1,8
 121 190 121 190 128.5 175 c 128,-1,9
 136 160 136 160 136 141 c 0,10,11
 136 120 136 120 121.5 103.5 c 128,-1,12
 107 87 107 87 90 78 c 1,13,14
 107 63 107 63 143 54 c 128,-1,15
 179 45 179 45 220 45 c 0,16,17
 248 45 248 45 276 50 c 128,-1,18
 304 55 304 55 326 66.5 c 128,-1,19
 348 78 348 78 361.5 96.5 c 128,-1,20
 375 115 375 115 375 141 c 0,21,22
 375 172 375 172 353 191.5 c 128,-1,23
 331 211 331 211 297.5 225.5 c 128,-1,24
 264 240 264 240 224.5 252.5 c 128,-1,25
 185 265 185 265 150.5 283.5 c 128,-1,26
 116 302 116 302 92 329 c 128,-1,27
 68 356 68 356 66 399 c 1,28,29
 66 452 66 452 92 491 c 128,-1,30
 118 530 118 530 160.5 555 c 128,-1,31
 203 580 203 580 256.5 592 c 128,-1,32
 310 604 310 604 365 604 c 0,33,34
 402 604 402 604 439.5 597 c 128,-1,35
 477 590 477 590 507.5 575 c 128,-1,36
 538 560 538 560 557 536.5 c 128,-1,37
 576 513 576 513 576 481 c 0,38,39
 576 460 576 460 568.5 444 c 128,-1,40
 561 428 561 428 549 417.5 c 128,-1,41
 537 407 537 407 521.5 402 c 128,-1,42
 506 397 506 397 490 397 c 0,43,44
 459 397 459 397 434.5 415 c 128,-1,45
 410 433 410 433 410 465 c 0,46,47
 410 480 410 480 418.5 495 c 128,-1,48
 427 510 427 510 449 524 c 1,49,50
 435 534 435 534 415.5 537.5 c 128,-1,51
 396 541 396 541 371 541 c 0,52,53
 343 541 343 541 315 537 c 128,-1,54
 287 533 287 533 264.5 525 c 128,-1,55
 242 517 242 517 227.5 503.5 c 128,-1,56
 213 490 213 490 213 471 c 0,57,58
 213 447 213 447 237.5 431.5 c 128,-1,59
 262 416 262 416 299.5 401.5 c 128,-1,60
 337 387 337 387 380 371.5 c 128,-1,61
 423 356 423 356 460.5 332.5 c 128,-1,62
 498 309 498 309 522.5 275 c 128,-1,63
 547 241 547 241 547 190 c 256,64,65
 547 139 547 139 518.5 100.5 c 128,-1,66
 490 62 490 62 445.5 36 c 128,-1,67
 401 10 401 10 347.5 -3 c 128,-1,68
 294 -16 294 -16 244 -16 c 0,69,70
 207 -16 207 -16 160 -9 c 128,-1,71
 113 -2 113 -2 71 15 c 128,-1,72
 29 32 29 32 0.5 61 c 128,-1,73
 -28 90 -28 90 -28 135 c 0,0,1
EndSplineSet
EndChar

StartChar: h
Encoding: 104 104 18
Width: 824
Flags: W
LayerCount: 2
Fore
SplineSet
572 1339 m 1,0,1
 515 1282 515 1282 464 1179 c 128,-1,2
 413 1076 413 1076 365.5 933 c 128,-1,3
 318 790 318 790 271.5 610 c 128,-1,4
 225 430 225 430 177 219 c 1,5,6
 196 252 196 252 220 293.5 c 128,-1,7
 244 335 244 335 272 378 c 128,-1,8
 300 421 300 421 331.5 461.5 c 128,-1,9
 363 502 363 502 399 533.5 c 128,-1,10
 435 565 435 565 474.5 584.5 c 128,-1,11
 514 604 514 604 558 604 c 0,12,13
 595 604 595 604 619.5 594.5 c 128,-1,14
 644 585 644 585 658.5 569 c 128,-1,15
 673 553 673 553 679 532 c 128,-1,16
 685 511 685 511 685 489 c 0,17,18
 685 449 685 449 669.5 400.5 c 128,-1,19
 654 352 654 352 635 304.5 c 128,-1,20
 616 257 616 257 600.5 214 c 128,-1,21
 585 171 585 171 585 143 c 0,22,23
 585 117 585 117 601 117 c 256,24,25
 617 117 617 117 636.5 133.5 c 128,-1,26
 656 150 656 150 674 172 c 128,-1,27
 692 194 692 194 707 215 c 128,-1,28
 722 236 722 236 728 244 c 1,29,-1
 771 204 l 1,30,31
 736 145 736 145 701 103 c 128,-1,32
 666 61 666 61 632.5 34.5 c 128,-1,33
 599 8 599 8 569 -4 c 128,-1,34
 539 -16 539 -16 516 -16 c 0,35,36
 479 -16 479 -16 455 12 c 128,-1,37
 431 40 431 40 431 85 c 256,38,39
 431 130 431 130 444 173 c 128,-1,40
 457 216 457 216 473 259 c 128,-1,41
 489 302 489 302 502 345.5 c 128,-1,42
 515 389 515 389 515 434 c 0,43,44
 515 457 515 457 506.5 465 c 128,-1,45
 498 473 498 473 482 473 c 0,46,47
 450 473 450 473 412 438 c 128,-1,48
 374 403 374 403 335 350.5 c 128,-1,49
 296 298 296 298 259 236.5 c 128,-1,50
 222 175 222 175 193.5 122.5 c 128,-1,51
 165 70 165 70 147 35 c 128,-1,52
 129 0 129 0 128 0 c 2,53,-1
 -16 0 l 1,54,55
 -7 66 -7 66 5.5 149 c 128,-1,56
 18 232 18 232 35.5 325.5 c 128,-1,57
 53 419 53 419 76 520 c 128,-1,58
 99 621 99 621 128.5 721 c 128,-1,59
 158 821 158 821 194.5 917.5 c 128,-1,60
 231 1014 231 1014 276.5 1099 c 128,-1,61
 322 1184 322 1184 376.5 1254.5 c 128,-1,62
 431 1325 431 1325 496 1374 c 1,63,-1
 572 1339 l 1,0,1
EndSplineSet
EndChar

StartChar: t
Encoding: 116 116 19
Width: 449
Flags: W
LayerCount: 2
Fore
SplineSet
27 582 m 1,0,-1
 136 582 l 1,1,2
 154 636 154 636 179 706.5 c 128,-1,3
 204 777 204 777 232 850 c 128,-1,4
 260 923 260 923 289.5 993.5 c 128,-1,5
 319 1064 319 1064 346 1118 c 1,6,-1
 470 1108 l 1,7,8
 452 1055 452 1055 428.5 986.5 c 128,-1,9
 405 918 405 918 380 846 c 128,-1,10
 355 774 355 774 333 704.5 c 128,-1,11
 311 635 311 635 296 582 c 1,12,-1
 453 582 l 1,13,-1
 437 516 l 1,14,-1
 275 516 l 1,15,16
 254 452 254 452 237 394.5 c 128,-1,17
 220 337 220 337 208 290 c 128,-1,18
 196 243 196 243 189.5 207.5 c 128,-1,19
 183 172 183 172 183 152 c 0,20,21
 183 109 183 109 197 109 c 0,22,23
 203 109 203 109 211.5 111.5 c 128,-1,24
 220 114 220 114 234.5 128.5 c 128,-1,25
 249 143 249 143 272.5 173.5 c 128,-1,26
 296 204 296 204 334 260 c 1,27,-1
 375 223 l 1,28,29
 338 156 338 156 301 110 c 128,-1,30
 264 64 264 64 230 36 c 128,-1,31
 196 8 196 8 167 -4 c 128,-1,32
 138 -16 138 -16 119 -16 c 0,33,34
 95 -16 95 -16 78 -7 c 128,-1,35
 61 2 61 2 49.5 17.5 c 128,-1,36
 38 33 38 33 32.5 53.5 c 128,-1,37
 27 74 27 74 27 98 c 0,38,39
 27 171 27 171 52 279.5 c 128,-1,40
 77 388 77 388 116 516 c 1,41,-1
 11 516 l 1,42,-1
 27 582 l 1,0,-1
EndSplineSet
EndChar

StartChar: c
Encoding: 99 99 20
Width: 671
Flags: W
LayerCount: 2
Fore
SplineSet
561 178 m 1,0,1
 538 132 538 132 502.5 96 c 128,-1,2
 467 60 467 60 423.5 35 c 128,-1,3
 380 10 380 10 332 -3 c 128,-1,4
 284 -16 284 -16 237 -16 c 0,5,6
 189 -16 189 -16 145.5 -2 c 128,-1,7
 102 12 102 12 69 41.5 c 128,-1,8
 36 71 36 71 16.5 116 c 128,-1,9
 -3 161 -3 161 -3 223 c 0,10,11
 -3 279 -3 279 15.5 329 c 128,-1,12
 34 379 34 379 66 421 c 128,-1,13
 98 463 98 463 141 497 c 128,-1,14
 184 531 184 531 233 555 c 128,-1,15
 282 579 282 579 334 591.5 c 128,-1,16
 386 604 386 604 436 604 c 0,17,18
 465 604 465 604 497.5 599 c 128,-1,19
 530 594 530 594 558 580.5 c 128,-1,20
 586 567 586 567 604 544.5 c 128,-1,21
 622 522 622 522 622 487 c 0,22,23
 622 445 622 445 596.5 421 c 128,-1,24
 571 397 571 397 536 397 c 0,25,26
 502 397 502 397 478 419.5 c 128,-1,27
 454 442 454 442 454 477 c 0,28,29
 454 497 454 497 466 512.5 c 128,-1,30
 478 528 478 528 497 541 c 1,31,32
 459 553 459 553 427 553 c 0,33,34
 373 553 373 553 327.5 523 c 128,-1,35
 282 493 282 493 250 446.5 c 128,-1,36
 218 400 218 400 200 343 c 128,-1,37
 182 286 182 286 182 233 c 0,38,39
 182 202 182 202 189.5 174.5 c 128,-1,40
 197 147 197 147 213.5 126 c 128,-1,41
 230 105 230 105 255.5 93 c 128,-1,42
 281 81 281 81 317 81 c 0,43,44
 345 81 345 81 375 90.5 c 128,-1,45
 405 100 405 100 432.5 116.5 c 128,-1,46
 460 133 460 133 482.5 156 c 128,-1,47
 505 179 505 179 520 207 c 1,48,-1
 561 178 l 1,0,1
EndSplineSet
EndChar

StartChar: a
Encoding: 97 97 21
Width: 851
Flags: W
LayerCount: 2
Fore
SplineSet
709 582 m 1,0,-1
 630 283 l 2,1,2
 627 272 627 272 623.5 254.5 c 128,-1,3
 620 237 620 237 617.5 219 c 128,-1,4
 615 201 615 201 613 186.5 c 128,-1,5
 611 172 611 172 611 167 c 0,6,7
 611 147 611 147 614 132 c 128,-1,8
 617 117 617 117 628 117 c 0,9,10
 644 117 644 117 665.5 136.5 c 128,-1,11
 687 156 687 156 707 180 c 0,12,13
 730 208 730 208 755 244 c 1,14,-1
 798 204 l 1,15,16
 790 188 790 188 775 165 c 128,-1,17
 760 142 760 142 740 117.5 c 128,-1,18
 720 93 720 93 696.5 69 c 128,-1,19
 673 45 673 45 647 26 c 128,-1,20
 621 7 621 7 594.5 -4.5 c 128,-1,21
 568 -16 568 -16 542 -16 c 256,22,23
 516 -16 516 -16 499 -4 c 128,-1,24
 482 8 482 8 472.5 27 c 128,-1,25
 463 46 463 46 459.5 70 c 128,-1,26
 456 94 456 94 456 117 c 0,27,28
 456 126 456 126 456 134 c 128,-1,29
 456 142 456 142 458 150 c 1,30,31
 452 130 452 130 434.5 101.5 c 128,-1,32
 417 73 417 73 387 47 c 128,-1,33
 357 21 357 21 313 2.5 c 128,-1,34
 269 -16 269 -16 210 -16 c 0,35,36
 165 -16 165 -16 126.5 2 c 128,-1,37
 88 20 88 20 59.5 52 c 128,-1,38
 31 84 31 84 15 128 c 128,-1,39
 -1 172 -1 172 -1 224 c 0,40,41
 -1 305 -1 305 27.5 374.5 c 128,-1,42
 56 444 56 444 104 495 c 128,-1,43
 152 546 152 546 215 575 c 128,-1,44
 278 604 278 604 347 604 c 0,45,46
 419 604 419 604 464 564.5 c 128,-1,47
 509 525 509 525 523 465 c 1,48,-1
 553 582 l 1,49,-1
 709 582 l 1,0,-1
386 518 m 0,50,51
 340 518 340 518 301 489.5 c 128,-1,52
 262 461 262 461 233.5 416.5 c 128,-1,53
 205 372 205 372 189 319 c 128,-1,54
 173 266 173 266 173 218 c 0,55,56
 173 188 173 188 179.5 161.5 c 128,-1,57
 186 135 186 135 200 115.5 c 128,-1,58
 214 96 214 96 235.5 85 c 128,-1,59
 257 74 257 74 287 74 c 0,60,61
 320 74 320 74 348 89 c 128,-1,62
 376 104 376 104 398.5 128.5 c 128,-1,63
 421 153 421 153 437.5 184.5 c 128,-1,64
 454 216 454 216 465.5 248.5 c 128,-1,65
 477 281 477 281 482.5 312.5 c 128,-1,66
 488 344 488 344 488 369 c 0,67,68
 488 437 488 437 464 477.5 c 128,-1,69
 440 518 440 518 386 518 c 0,50,51
EndSplineSet
EndChar

StartChar: p
Encoding: 112 112 22
Width: 815
Flags: W
LayerCount: 2
Fore
SplineSet
-164 -444 m 0,0,1
 -209 -444 -209 -444 -238.5 -414.5 c 128,-1,2
 -268 -385 -268 -385 -268 -340 c 0,3,4
 -268 -306 -268 -306 -248.5 -283 c 128,-1,5
 -229 -260 -229 -260 -194 -260 c 0,6,7
 -165 -260 -165 -260 -141.5 -274.5 c 128,-1,8
 -118 -289 -118 -289 -118 -322 c 0,9,10
 -118 -342 -118 -342 -129 -360.5 c 128,-1,11
 -140 -379 -140 -379 -153 -393 c 1,12,-1
 -147 -401 l 1,13,14
 -126 -401 -126 -401 -107.5 -380 c 128,-1,15
 -89 -359 -89 -359 -73.5 -326.5 c 128,-1,16
 -58 -294 -58 -294 -45 -254 c 128,-1,17
 -32 -214 -32 -214 -22 -176 c 128,-1,18
 -12 -138 -12 -138 -5 -106 c 128,-1,19
 2 -74 2 -74 6 -57 c 2,20,-1
 111 356 l 1,21,22
 77 333 77 333 44.5 298.5 c 128,-1,23
 12 264 12 264 -14 232 c 1,24,-1
 -53 277 l 1,25,26
 -15 331 -15 331 32.5 376.5 c 128,-1,27
 80 422 80 422 127 470 c 1,28,29
 152 543 152 543 180.5 617 c 128,-1,30
 209 691 209 691 246.5 760 c 128,-1,31
 284 829 284 829 332.5 890.5 c 128,-1,32
 381 952 381 952 446 999 c 1,33,-1
 473 975 l 1,34,35
 440 936 440 936 412.5 885 c 128,-1,36
 385 834 385 834 364 778.5 c 128,-1,37
 343 723 343 723 329 667 c 128,-1,38
 315 611 315 611 309 561 c 1,39,40
 356 580 356 580 403.5 592 c 128,-1,41
 451 604 451 604 502 604 c 0,42,43
 555 604 555 604 598 588.5 c 128,-1,44
 641 573 641 573 671.5 543.5 c 128,-1,45
 702 514 702 514 718.5 471.5 c 128,-1,46
 735 429 735 429 735 375 c 0,47,48
 735 305 735 305 708 235.5 c 128,-1,49
 681 166 681 166 633.5 110 c 128,-1,50
 586 54 586 54 522 19 c 128,-1,51
 458 -16 458 -16 385 -16 c 0,52,53
 333 -16 333 -16 283 4 c 128,-1,54
 233 24 233 24 201 66 c 1,55,56
 189 20 189 20 174.5 -35.5 c 128,-1,57
 160 -91 160 -91 140 -147.5 c 128,-1,58
 120 -204 120 -204 93 -257.5 c 128,-1,59
 66 -311 66 -311 29 -352.5 c 128,-1,60
 -8 -394 -8 -394 -55.5 -419 c 128,-1,61
 -103 -444 -103 -444 -164 -444 c 0,0,1
223 135 m 1,62,63
 243 93 243 93 286 74.5 c 128,-1,64
 329 56 329 56 373 56 c 0,65,66
 422 56 422 56 458.5 83.5 c 128,-1,67
 495 111 495 111 519 152.5 c 128,-1,68
 543 194 543 194 555 242.5 c 128,-1,69
 567 291 567 291 567 332 c 0,70,71
 567 363 567 363 560.5 396.5 c 128,-1,72
 554 430 554 430 539 457.5 c 128,-1,73
 524 485 524 485 499 502.5 c 128,-1,74
 474 520 474 520 436 520 c 0,75,76
 399 520 399 520 364.5 504.5 c 128,-1,77
 330 489 330 489 299 471 c 1,78,-1
 223 135 l 1,62,63
EndSplineSet
EndChar

StartChar: S
Encoding: 83 83 23
Width: 1326
Flags: W
LayerCount: 2
Fore
SplineSet
507 -33 m 0,0,1
 446 -33 446 -33 383 -26.5 c 128,-1,2
 320 -20 320 -20 261 -4.5 c 128,-1,3
 202 11 202 11 151 35.5 c 128,-1,4
 100 60 100 60 62 97 c 128,-1,5
 24 134 24 134 2 184 c 128,-1,6
 -20 234 -20 234 -20 299 c 0,7,8
 -20 360 -20 360 -1 413.5 c 128,-1,9
 18 467 18 467 51 511 c 128,-1,10
 84 555 84 555 128 590 c 128,-1,11
 172 625 172 625 222.5 649 c 128,-1,12
 273 673 273 673 327 685.5 c 128,-1,13
 381 698 381 698 434 698 c 0,14,15
 502 698 502 698 564 681 c 128,-1,16
 626 664 626 664 673.5 631.5 c 128,-1,17
 721 599 721 599 749.5 552 c 128,-1,18
 778 505 778 505 778 444 c 0,19,20
 778 396 778 396 754.5 357 c 128,-1,21
 731 318 731 318 695 290 c 128,-1,22
 659 262 659 262 615 246.5 c 128,-1,23
 571 231 571 231 531 231 c 0,24,25
 517 231 517 231 513.5 240.5 c 128,-1,26
 510 250 510 250 510 262 c 256,27,28
 510 274 510 274 524.5 281 c 128,-1,29
 539 288 539 288 560 295 c 128,-1,30
 581 302 581 302 606.5 310.5 c 128,-1,31
 632 319 632 319 653 333 c 128,-1,32
 674 347 674 347 688.5 369 c 128,-1,33
 703 391 703 391 703 424 c 0,34,35
 703 455 703 455 690 481 c 128,-1,36
 677 507 677 507 644.5 525 c 128,-1,37
 612 543 612 543 557 553 c 128,-1,38
 502 563 502 563 418 563 c 0,39,40
 335 563 335 563 273.5 540 c 128,-1,41
 212 517 212 517 171.5 479.5 c 128,-1,42
 131 442 131 442 110.5 393.5 c 128,-1,43
 90 345 90 345 90 294 c 0,44,45
 90 218 90 218 125.5 168 c 128,-1,46
 161 118 161 118 218.5 88 c 128,-1,47
 276 58 276 58 348 45.5 c 128,-1,48
 420 33 420 33 494 33 c 0,49,50
 597 33 597 33 698 60.5 c 128,-1,51
 799 88 799 88 879.5 142 c 128,-1,52
 960 196 960 196 1009.5 277.5 c 128,-1,53
 1059 359 1059 359 1059 467 c 0,54,55
 1059 531 1059 531 1032.5 585 c 128,-1,56
 1006 639 1006 639 966.5 689 c 128,-1,57
 927 739 927 739 881 785.5 c 128,-1,58
 835 832 835 832 795.5 880 c 128,-1,59
 756 928 756 928 729.5 979.5 c 128,-1,60
 703 1031 703 1031 703 1090 c 0,61,62
 703 1172 703 1172 742 1237.5 c 128,-1,63
 781 1303 781 1303 842.5 1348.5 c 128,-1,64
 904 1394 904 1394 979.5 1418 c 128,-1,65
 1055 1442 1055 1442 1129 1442 c 0,66,67
 1179 1442 1179 1442 1232.5 1429.5 c 128,-1,68
 1286 1417 1286 1417 1330.5 1390 c 128,-1,69
 1375 1363 1375 1363 1403.5 1321 c 128,-1,70
 1432 1279 1432 1279 1432 1219 c 0,71,72
 1432 1196 1432 1196 1423.5 1176 c 128,-1,73
 1415 1156 1415 1156 1400 1140 c 128,-1,74
 1385 1124 1385 1124 1365 1115 c 128,-1,75
 1345 1106 1345 1106 1323 1106 c 0,76,77
 1306 1106 1306 1106 1290.5 1112 c 128,-1,78
 1275 1118 1275 1118 1263 1128.5 c 128,-1,79
 1251 1139 1251 1139 1244 1153.5 c 128,-1,80
 1237 1168 1237 1168 1237 1186 c 0,81,82
 1237 1203 1237 1203 1244.5 1216 c 128,-1,83
 1252 1229 1252 1229 1261.5 1241.5 c 128,-1,84
 1271 1254 1271 1254 1278.5 1266.5 c 128,-1,85
 1286 1279 1286 1279 1286 1294 c 0,86,87
 1286 1319 1286 1319 1267.5 1335 c 128,-1,88
 1249 1351 1249 1351 1223 1361 c 128,-1,89
 1197 1371 1197 1371 1168.5 1375 c 128,-1,90
 1140 1379 1140 1379 1120 1379 c 0,91,92
 1071 1379 1071 1379 1024.5 1364 c 128,-1,93
 978 1349 978 1349 942 1319 c 128,-1,94
 906 1289 906 1289 884 1244.5 c 128,-1,95
 862 1200 862 1200 862 1141 c 0,96,97
 862 1101 862 1101 890.5 1059.5 c 128,-1,98
 919 1018 919 1018 961.5 973 c 128,-1,99
 1004 928 1004 928 1053.5 878.5 c 128,-1,100
 1103 829 1103 829 1145.5 773 c 128,-1,101
 1188 717 1188 717 1216.5 652.5 c 128,-1,102
 1245 588 1245 588 1245 514 c 0,103,104
 1245 415 1245 415 1213 336 c 128,-1,105
 1181 257 1181 257 1126 196.5 c 128,-1,106
 1071 136 1071 136 997.5 92.5 c 128,-1,107
 924 49 924 49 842 21 c 128,-1,108
 760 -7 760 -7 674 -20 c 128,-1,109
 588 -33 588 -33 507 -33 c 0,0,1
EndSplineSet
EndChar

StartChar: L
Encoding: 76 76 24
Width: 1591
Flags: W
LayerCount: 2
Fore
SplineSet
733 122 m 1,0,1
 697 90 697 90 648 62 c 128,-1,2
 599 34 599 34 537.5 12.5 c 128,-1,3
 476 -9 476 -9 402.5 -21.5 c 128,-1,4
 329 -34 329 -34 243 -34 c 0,5,6
 210 -34 210 -34 163.5 -24.5 c 128,-1,7
 117 -15 117 -15 74 7 c 128,-1,8
 31 29 31 29 1 64.5 c 128,-1,9
 -29 100 -29 100 -29 151 c 0,10,11
 -29 215 -29 215 3 263.5 c 128,-1,12
 35 312 35 312 85.5 344.5 c 128,-1,13
 136 377 136 377 197 393 c 128,-1,14
 258 409 258 409 317 409 c 0,15,16
 374 409 374 409 427 400 c 128,-1,17
 480 391 480 391 532 375 c 128,-1,18
 584 359 584 359 635 338.5 c 128,-1,19
 686 318 686 318 739 296 c 1,20,21
 765 368 765 368 785 455.5 c 128,-1,22
 805 543 805 543 825 637 c 128,-1,23
 845 731 845 731 868 827 c 128,-1,24
 891 923 891 923 921.5 1012.5 c 128,-1,25
 952 1102 952 1102 993.5 1180.5 c 128,-1,26
 1035 1259 1035 1259 1092.5 1317 c 128,-1,27
 1150 1375 1150 1375 1226 1408.5 c 128,-1,28
 1302 1442 1302 1442 1402 1442 c 0,29,30
 1472 1442 1472 1442 1532 1421.5 c 128,-1,31
 1592 1401 1592 1401 1636 1360.5 c 128,-1,32
 1680 1320 1680 1320 1705 1260 c 128,-1,33
 1730 1200 1730 1200 1730 1122 c 0,34,35
 1730 1045 1730 1045 1709.5 972.5 c 128,-1,36
 1689 900 1689 900 1652 835.5 c 128,-1,37
 1615 771 1615 771 1564 715.5 c 128,-1,38
 1513 660 1513 660 1452.5 617 c 128,-1,39
 1392 574 1392 574 1324.5 545 c 128,-1,40
 1257 516 1257 516 1187 504 c 1,41,-1
 1173 559 l 1,42,43
 1267 582 1267 582 1345 641.5 c 128,-1,44
 1423 701 1423 701 1479 782 c 128,-1,45
 1535 863 1535 863 1566 959 c 128,-1,46
 1597 1055 1597 1055 1597 1153 c 0,47,48
 1597 1200 1597 1200 1586 1239.5 c 128,-1,49
 1575 1279 1575 1279 1550.5 1307.5 c 128,-1,50
 1526 1336 1526 1336 1487.5 1352 c 128,-1,51
 1449 1368 1449 1368 1394 1368 c 0,52,53
 1324 1368 1324 1368 1274 1337.5 c 128,-1,54
 1224 1307 1224 1307 1187.5 1254 c 128,-1,55
 1151 1201 1151 1201 1124 1128.5 c 128,-1,56
 1097 1056 1097 1056 1074.5 971 c 128,-1,57
 1052 886 1052 886 1030 793 c 128,-1,58
 1008 700 1008 700 980.5 606 c 128,-1,59
 953 512 953 512 917.5 420.5 c 128,-1,60
 882 329 882 329 831 247 c 1,61,62
 887 223 887 223 944 194 c 128,-1,63
 1001 165 1001 165 1058 140.5 c 128,-1,64
 1115 116 1115 116 1171 99.5 c 128,-1,65
 1227 83 1227 83 1281 83 c 0,66,67
 1327 83 1327 83 1360.5 104 c 128,-1,68
 1394 125 1394 125 1416.5 149.5 c 128,-1,69
 1439 174 1439 174 1451 195 c 128,-1,70
 1463 216 1463 216 1468 216 c 1,71,-1
 1513 190 l 1,72,73
 1490 148 1490 148 1464 107.5 c 128,-1,74
 1438 67 1438 67 1404.5 35.5 c 128,-1,75
 1371 4 1371 4 1328 -15 c 128,-1,76
 1285 -34 1285 -34 1230 -34 c 0,77,78
 1159 -34 1159 -34 1094 -17.5 c 128,-1,79
 1029 -1 1029 -1 968.5 23 c 128,-1,80
 908 47 908 47 849.5 74 c 128,-1,81
 791 101 791 101 733 122 c 1,0,1
34 155 m 0,82,83
 34 113 34 113 62 87.5 c 128,-1,84
 90 62 90 62 129.5 49 c 128,-1,85
 169 36 169 36 212 32 c 128,-1,86
 255 28 255 28 284 28 c 0,87,88
 316 28 316 28 365 34.5 c 128,-1,89
 414 41 414 41 466.5 57 c 128,-1,90
 519 73 519 73 568.5 100.5 c 128,-1,91
 618 128 618 128 651 171 c 1,92,93
 621 191 621 191 580.5 214.5 c 128,-1,94
 540 238 540 238 492.5 258.5 c 128,-1,95
 445 279 445 279 393 292.5 c 128,-1,96
 341 306 341 306 288 306 c 0,97,98
 251 306 251 306 207 301.5 c 128,-1,99
 163 297 163 297 124.5 281 c 128,-1,100
 86 265 86 265 60 235.5 c 128,-1,101
 34 206 34 206 34 155 c 0,82,83
EndSplineSet
EndChar

StartChar: F
Encoding: 70 70 25
Width: 1420
Flags: W
LayerCount: 2
Fore
SplineSet
1740 1382 m 1,0,1
 1716 1338 1716 1338 1685.5 1308.5 c 128,-1,2
 1655 1279 1655 1279 1619 1262 c 128,-1,3
 1583 1245 1583 1245 1543.5 1238 c 128,-1,4
 1504 1231 1504 1231 1462 1231 c 0,5,6
 1445 1231 1445 1231 1427 1232 c 128,-1,7
 1409 1233 1409 1233 1392 1235 c 1,8,9
 1344 1179 1344 1179 1314 1107 c 128,-1,10
 1284 1035 1284 1035 1267.5 962.5 c 128,-1,11
 1251 890 1251 890 1245.5 825 c 128,-1,12
 1240 760 1240 760 1239 719 c 1,13,-1
 1499 729 l 1,14,-1
 1429 643 l 1,15,-1
 1235 643 l 1,16,17
 1226 522 1226 522 1188.5 424.5 c 128,-1,18
 1151 327 1151 327 1091 250.5 c 128,-1,19
 1031 174 1031 174 952.5 118.5 c 128,-1,20
 874 63 874 63 783.5 27.5 c 128,-1,21
 693 -8 693 -8 593.5 -25.5 c 128,-1,22
 494 -43 494 -43 393 -43 c 0,23,24
 320 -43 320 -43 244 -28 c 128,-1,25
 168 -13 168 -13 106.5 19.5 c 128,-1,26
 45 52 45 52 6 103.5 c 128,-1,27
 -33 155 -33 155 -33 228 c 0,28,29
 -33 332 -33 332 12.5 394 c 128,-1,30
 58 456 58 456 131.5 488.5 c 128,-1,31
 205 521 205 521 296 531 c 128,-1,32
 387 541 387 541 479 541 c 1,33,34
 420 618 420 618 393 695.5 c 128,-1,35
 366 773 366 773 366 848 c 0,36,37
 366 927 366 927 391.5 1002 c 128,-1,38
 417 1077 417 1077 463.5 1143 c 128,-1,39
 510 1209 510 1209 573.5 1264 c 128,-1,40
 637 1319 637 1319 713.5 1358.5 c 128,-1,41
 790 1398 790 1398 876.5 1420 c 128,-1,42
 963 1442 963 1442 1054 1442 c 0,43,44
 1118 1442 1118 1442 1180.5 1428.5 c 128,-1,45
 1243 1415 1243 1415 1305.5 1399 c 128,-1,46
 1368 1383 1368 1383 1430.5 1369.5 c 128,-1,47
 1493 1356 1493 1356 1556 1356 c 0,48,49
 1583 1356 1583 1356 1605 1363.5 c 128,-1,50
 1627 1371 1627 1371 1644 1381.5 c 128,-1,51
 1661 1392 1661 1392 1674 1403.5 c 128,-1,52
 1687 1415 1687 1415 1695 1423 c 1,53,-1
 1740 1382 l 1,0,1
86 228 m 0,54,55
 86 190 86 190 101 160 c 128,-1,56
 116 130 116 130 141.5 107.5 c 128,-1,57
 167 85 167 85 200 68.5 c 128,-1,58
 233 52 233 52 268 42 c 128,-1,59
 303 32 303 32 338 27.5 c 128,-1,60
 373 23 373 23 403 23 c 0,61,62
 533 23 533 23 643 56 c 128,-1,63
 753 89 753 89 837 162.5 c 128,-1,64
 921 236 921 236 977 354.5 c 128,-1,65
 1033 473 1033 473 1056 645 c 1,66,-1
 841 645 l 1,67,-1
 881 709 l 1,68,-1
 1063 719 l 1,69,70
 1072 799 1072 799 1093.5 869 c 128,-1,71
 1115 939 1115 939 1142 997.5 c 128,-1,72
 1169 1056 1169 1056 1198 1102 c 128,-1,73
 1227 1148 1227 1148 1251 1180.5 c 128,-1,74
 1275 1213 1275 1213 1290.5 1230.5 c 128,-1,75
 1306 1248 1306 1248 1306 1249 c 0,76,77
 1232 1280 1232 1280 1149 1296.5 c 128,-1,78
 1066 1313 1066 1313 983 1313 c 0,79,80
 878 1313 878 1313 780.5 1285 c 128,-1,81
 683 1257 683 1257 607 1199 c 128,-1,82
 531 1141 531 1141 485.5 1053.5 c 128,-1,83
 440 966 440 966 440 846 c 0,84,85
 440 762 440 762 460 704 c 128,-1,86
 480 646 480 646 517.5 601 c 128,-1,87
 555 556 555 556 608 518 c 128,-1,88
 661 480 661 480 727 436 c 1,89,-1
 698 399 l 1,90,91
 674 411 674 411 641.5 425 c 128,-1,92
 609 439 609 439 571.5 451 c 128,-1,93
 534 463 534 463 494.5 471 c 128,-1,94
 455 479 455 479 417 479 c 0,95,96
 385 479 385 479 348 475.5 c 128,-1,97
 311 472 311 472 274 462 c 128,-1,98
 237 452 237 452 203 434.5 c 128,-1,99
 169 417 169 417 143 389 c 128,-1,100
 117 361 117 361 101.5 321.5 c 128,-1,101
 86 282 86 282 86 228 c 0,54,55
EndSplineSet
EndChar

StartChar: P
Encoding: 80 80 26
Width: 1501
Flags: W
LayerCount: 2
Fore
SplineSet
-18 269 m 0,0,1
 -18 330 -18 330 1.5 379.5 c 128,-1,2
 21 429 21 429 54.5 467.5 c 128,-1,3
 88 506 88 506 132.5 534.5 c 128,-1,4
 177 563 177 563 228 581.5 c 128,-1,5
 279 600 279 600 333.5 609 c 128,-1,6
 388 618 388 618 440 619 c 1,7,8
 446 729 446 729 477.5 832.5 c 128,-1,9
 509 936 509 936 562.5 1027.5 c 128,-1,10
 616 1119 616 1119 690.5 1195.5 c 128,-1,11
 765 1272 765 1272 857 1326.5 c 128,-1,12
 949 1381 949 1381 1056.5 1411.5 c 128,-1,13
 1164 1442 1164 1442 1285 1442 c 0,14,15
 1335 1442 1335 1442 1388.5 1433.5 c 128,-1,16
 1442 1425 1442 1425 1493 1406.5 c 128,-1,17
 1544 1388 1544 1388 1589 1360.5 c 128,-1,18
 1634 1333 1634 1333 1668 1294.5 c 128,-1,19
 1702 1256 1702 1256 1722 1207 c 128,-1,20
 1742 1158 1742 1158 1742 1098 c 0,21,22
 1742 1016 1742 1016 1719 943 c 128,-1,23
 1696 870 1696 870 1655 807.5 c 128,-1,24
 1614 745 1614 745 1558.5 693.5 c 128,-1,25
 1503 642 1503 642 1438 604 c 128,-1,26
 1373 566 1373 566 1301.5 542 c 128,-1,27
 1230 518 1230 518 1158 510 c 1,28,29
 1114 381 1114 381 1039 280.5 c 128,-1,30
 964 180 964 180 863.5 110.5 c 128,-1,31
 763 41 763 41 639 5 c 128,-1,32
 515 -31 515 -31 373 -31 c 0,33,34
 298 -31 298 -31 227.5 -11 c 128,-1,35
 157 9 157 9 102.5 47.5 c 128,-1,36
 48 86 48 86 15 141.5 c 128,-1,37
 -18 197 -18 197 -18 269 c 0,0,1
51 252 m 0,38,39
 51 193 51 193 85 151 c 128,-1,40
 119 109 119 109 169.5 82.5 c 128,-1,41
 220 56 220 56 279 43.5 c 128,-1,42
 338 31 338 31 389 31 c 0,43,44
 483 31 483 31 568 63 c 128,-1,45
 653 95 653 95 724.5 150 c 128,-1,46
 796 205 796 205 852.5 278.5 c 128,-1,47
 909 352 909 352 945 436 c 0,48,49
 966 484 966 484 980 536 c 128,-1,50
 994 588 994 588 1006.5 641 c 128,-1,51
 1019 694 1019 694 1032 747.5 c 128,-1,52
 1045 801 1045 801 1062 852 c 0,53,54
 1074 888 1074 888 1098 948.5 c 128,-1,55
 1122 1009 1122 1009 1160 1076 c 128,-1,56
 1198 1143 1198 1143 1252 1208.5 c 128,-1,57
 1306 1274 1306 1274 1377 1319 c 1,58,59
 1364 1328 1364 1328 1341 1335 c 0,60,61
 1321 1341 1321 1341 1287.5 1346.5 c 128,-1,62
 1254 1352 1254 1352 1203 1352 c 0,63,64
 1113 1352 1113 1352 1026 1323 c 128,-1,65
 939 1294 939 1294 861.5 1243 c 128,-1,66
 784 1192 784 1192 718.5 1122 c 128,-1,67
 653 1052 653 1052 605.5 970.5 c 128,-1,68
 558 889 558 889 531 798.5 c 128,-1,69
 504 708 504 708 504 617 c 1,70,71
 588 604 588 604 657.5 574.5 c 128,-1,72
 727 545 727 545 793 500 c 1,73,-1
 750 434 l 1,74,75
 696 465 696 465 635.5 488 c 128,-1,76
 575 511 575 511 513 511 c 1,77,78
 513 501 513 501 517 478 c 128,-1,79
 521 455 521 455 528 424.5 c 128,-1,80
 535 394 535 394 545 360.5 c 128,-1,81
 555 327 555 327 566 296 c 1,82,-1
 507 278 l 1,83,84
 493 300 493 300 481.5 335.5 c 128,-1,85
 470 371 470 371 462 407 c 128,-1,86
 454 443 454 443 449 472 c 128,-1,87
 444 501 444 501 443 511 c 1,88,89
 407 511 407 511 363.5 505 c 128,-1,90
 320 499 320 499 276.5 485.5 c 128,-1,91
 233 472 233 472 192.5 451.5 c 128,-1,92
 152 431 152 431 120.5 402 c 128,-1,93
 89 373 89 373 70 336 c 128,-1,94
 51 299 51 299 51 252 c 0,38,39
1451 1282 m 1,95,96
 1394 1223 1394 1223 1348.5 1144.5 c 128,-1,97
 1303 1066 1303 1066 1268.5 974 c 128,-1,98
 1234 882 1234 882 1210 779 c 128,-1,99
 1186 676 1186 676 1172 569 c 1,100,101
 1226 569 1226 569 1277.5 590 c 128,-1,102
 1329 611 1329 611 1374.5 646.5 c 128,-1,103
 1420 682 1420 682 1458 729.5 c 128,-1,104
 1496 777 1496 777 1523.5 829.5 c 128,-1,105
 1551 882 1551 882 1566.5 936.5 c 128,-1,106
 1582 991 1582 991 1582 1042 c 0,107,108
 1582 1067 1582 1067 1577.5 1101 c 128,-1,109
 1573 1135 1573 1135 1559 1169.5 c 128,-1,110
 1545 1204 1545 1204 1519 1234.5 c 128,-1,111
 1493 1265 1493 1265 1451 1282 c 1,95,96
EndSplineSet
EndChar

StartChar: C
Encoding: 67 67 27
Width: 1214
Flags: W
LayerCount: 2
Fore
SplineSet
1082 256 m 1,0,1
 1017 172 1017 172 950 115.5 c 128,-1,2
 883 59 883 59 814.5 24.5 c 128,-1,3
 746 -10 746 -10 675.5 -24.5 c 128,-1,4
 605 -39 605 -39 535 -39 c 0,5,6
 433 -39 433 -39 341.5 -4.5 c 128,-1,7
 250 30 250 30 181 96.5 c 128,-1,8
 112 163 112 163 71.5 261 c 128,-1,9
 31 359 31 359 31 487 c 0,10,11
 31 603 31 603 65.5 718.5 c 128,-1,12
 100 834 100 834 162 940 c 128,-1,13
 224 1046 224 1046 308.5 1138 c 128,-1,14
 393 1230 393 1230 493.5 1297.5 c 128,-1,15
 594 1365 594 1365 705.5 1403.5 c 128,-1,16
 817 1442 817 1442 932 1442 c 0,17,18
 1010 1442 1010 1442 1079 1419 c 128,-1,19
 1148 1396 1148 1396 1200 1350.5 c 128,-1,20
 1252 1305 1252 1305 1282.5 1237.5 c 128,-1,21
 1313 1170 1313 1170 1313 1081 c 0,22,23
 1313 1013 1313 1013 1292 940 c 128,-1,24
 1271 867 1271 867 1234 798 c 128,-1,25
 1197 729 1197 729 1146 667 c 128,-1,26
 1095 605 1095 605 1035.5 558.5 c 128,-1,27
 976 512 976 512 909.5 485 c 128,-1,28
 843 458 843 458 775 458 c 0,29,30
 722 458 722 458 681.5 476.5 c 128,-1,31
 641 495 641 495 614 525.5 c 128,-1,32
 587 556 587 556 573 594 c 128,-1,33
 559 632 559 632 559 671 c 0,34,35
 559 744 559 744 591 816.5 c 128,-1,36
 623 889 623 889 680 953.5 c 128,-1,37
 737 1018 737 1018 817 1070 c 128,-1,38
 897 1122 897 1122 993 1155 c 1,39,-1
 1016 1102 l 1,40,41
 941 1077 941 1077 875 1027.5 c 128,-1,42
 809 978 809 978 760 918 c 128,-1,43
 711 858 711 858 683 794.5 c 128,-1,44
 655 731 655 731 655 679 c 0,45,46
 655 625 655 625 689.5 590 c 128,-1,47
 724 555 724 555 801 555 c 0,48,49
 855 555 855 555 907.5 580 c 128,-1,50
 960 605 960 605 1008 646.5 c 128,-1,51
 1056 688 1056 688 1096.5 742.5 c 128,-1,52
 1137 797 1137 797 1167 855 c 128,-1,53
 1197 913 1197 913 1214 970.5 c 128,-1,54
 1231 1028 1231 1028 1231 1077 c 0,55,56
 1231 1141 1231 1141 1211 1191 c 128,-1,57
 1191 1241 1191 1241 1154.5 1275.5 c 128,-1,58
 1118 1310 1118 1310 1067 1328 c 128,-1,59
 1016 1346 1016 1346 955 1346 c 0,60,61
 868 1346 868 1346 780 1311.5 c 128,-1,62
 692 1277 692 1277 611 1216.5 c 128,-1,63
 530 1156 530 1156 459.5 1074.5 c 128,-1,64
 389 993 389 993 337 899 c 128,-1,65
 285 805 285 805 255 702.5 c 128,-1,66
 225 600 225 600 225 498 c 0,67,68
 225 391 225 391 256.5 312 c 128,-1,69
 288 233 288 233 340.5 181 c 128,-1,70
 393 129 393 129 461.5 103.5 c 128,-1,71
 530 78 530 78 604 78 c 0,72,73
 660 78 660 78 718 92.5 c 128,-1,74
 776 107 776 107 832.5 135.5 c 128,-1,75
 889 164 889 164 940.5 205.5 c 128,-1,76
 992 247 992 247 1034 301 c 1,77,-1
 1082 256 l 1,0,1
EndSplineSet
EndChar

StartChar: ampersand
Encoding: 38 38 28
Width: 1661
Flags: W
LayerCount: 2
Fore
SplineSet
45 451 m 0,0,1
 45 533 45 533 71.5 601 c 128,-1,2
 98 669 98 669 137.5 722.5 c 128,-1,3
 177 776 177 776 223 815 c 128,-1,4
 269 854 269 854 309 877 c 1,5,6
 300 890 300 890 290.5 910 c 128,-1,7
 281 930 281 930 272.5 954 c 128,-1,8
 264 978 264 978 259 1004 c 128,-1,9
 254 1030 254 1030 254 1055 c 0,10,11
 254 1145 254 1145 295 1216.5 c 128,-1,12
 336 1288 336 1288 403 1338 c 128,-1,13
 470 1388 470 1388 555.5 1415 c 128,-1,14
 641 1442 641 1442 729 1442 c 0,15,16
 760 1442 760 1442 796 1437.5 c 128,-1,17
 832 1433 832 1433 868 1423.5 c 128,-1,18
 904 1414 904 1414 938 1397.5 c 128,-1,19
 972 1381 972 1381 998 1357 c 128,-1,20
 1024 1333 1024 1333 1039.5 1300 c 128,-1,21
 1055 1267 1055 1267 1055 1225 c 0,22,23
 1055 1192 1055 1192 1045 1160.5 c 128,-1,24
 1035 1129 1035 1129 1016 1104 c 128,-1,25
 997 1079 997 1079 968.5 1064 c 128,-1,26
 940 1049 940 1049 903 1049 c 0,27,28
 854 1049 854 1049 819.5 1074.5 c 128,-1,29
 785 1100 785 1100 785 1153 c 0,30,31
 785 1193 785 1193 804 1219 c 128,-1,32
 823 1245 823 1245 866 1245 c 0,33,34
 887 1245 887 1245 901.5 1239.5 c 128,-1,35
 916 1234 916 1234 925.5 1225.5 c 128,-1,36
 935 1217 935 1217 941 1206 c 128,-1,37
 947 1195 947 1195 952 1184 c 1,38,39
 960 1201 960 1201 963.5 1217 c 128,-1,40
 967 1233 967 1233 967 1245 c 0,41,42
 967 1283 967 1283 947 1307.5 c 128,-1,43
 927 1332 927 1332 897.5 1346.5 c 128,-1,44
 868 1361 868 1361 833 1366.5 c 128,-1,45
 798 1372 798 1372 768 1372 c 0,46,47
 687 1372 687 1372 623.5 1346.5 c 128,-1,48
 560 1321 560 1321 516.5 1276.5 c 128,-1,49
 473 1232 473 1232 450.5 1173.5 c 128,-1,50
 428 1115 428 1115 428 1049 c 0,51,52
 428 1020 428 1020 431.5 989.5 c 128,-1,53
 435 959 435 959 445 928 c 1,54,55
 482 937 482 937 523 942.5 c 128,-1,56
 564 948 564 948 604 948 c 0,57,58
 643 948 643 948 679 942 c 128,-1,59
 715 936 715 936 742 921 c 128,-1,60
 769 906 769 906 785 881 c 128,-1,61
 801 856 801 856 801 819 c 0,62,63
 801 789 801 789 786.5 765.5 c 128,-1,64
 772 742 772 742 749.5 725.5 c 128,-1,65
 727 709 727 709 699 700.5 c 128,-1,66
 671 692 671 692 645 692 c 0,67,68
 610 692 610 692 573.5 702 c 128,-1,69
 537 712 537 712 504 726.5 c 128,-1,70
 471 741 471 741 444 757 c 128,-1,71
 417 773 417 773 400 784 c 1,72,73
 330 706 330 706 299 622 c 128,-1,74
 268 538 268 538 268 463 c 0,75,76
 268 366 268 366 309 282 c 128,-1,77
 350 198 350 198 419.5 135.5 c 128,-1,78
 489 73 489 73 581 37.5 c 128,-1,79
 673 2 673 2 774 2 c 0,80,81
 833 2 833 2 894.5 13.5 c 128,-1,82
 956 25 956 25 1014.5 48.5 c 128,-1,83
 1073 72 1073 72 1124 108 c 128,-1,84
 1175 144 1175 144 1213.5 192.5 c 128,-1,85
 1252 241 1252 241 1274.5 302 c 128,-1,86
 1297 363 1297 363 1297 438 c 0,87,88
 1297 485 1297 485 1277 527 c 128,-1,89
 1257 569 1257 569 1224 601 c 128,-1,90
 1191 633 1191 633 1148.5 651.5 c 128,-1,91
 1106 670 1106 670 1061 670 c 0,92,93
 1028 670 1028 670 997 658 c 128,-1,94
 966 646 966 646 942 625 c 128,-1,95
 918 604 918 604 903.5 575 c 128,-1,96
 889 546 889 546 889 512 c 0,97,98
 889 493 889 493 897 473.5 c 128,-1,99
 905 454 905 454 919.5 437.5 c 128,-1,100
 934 421 934 421 954 409 c 128,-1,101
 974 397 974 397 998 391 c 1,102,103
 985 408 985 408 980 425 c 128,-1,104
 975 442 975 442 975 459 c 0,105,106
 975 496 975 496 997 523.5 c 128,-1,107
 1019 551 1019 551 1061 551 c 0,108,109
 1107 551 1107 551 1131 522.5 c 128,-1,110
 1155 494 1155 494 1155 457 c 0,111,112
 1155 435 1155 435 1146 414 c 128,-1,113
 1137 393 1137 393 1119.5 376.5 c 128,-1,114
 1102 360 1102 360 1075 350 c 128,-1,115
 1048 340 1048 340 1012 340 c 0,116,117
 974 340 974 340 939 355.5 c 128,-1,118
 904 371 904 371 877 397.5 c 128,-1,119
 850 424 850 424 833.5 459.5 c 128,-1,120
 817 495 817 495 817 535 c 0,121,122
 817 622 817 622 851 676.5 c 128,-1,123
 885 731 885 731 941 763.5 c 128,-1,124
 997 796 997 796 1068.5 812 c 128,-1,125
 1140 828 1140 828 1214.5 839 c 128,-1,126
 1289 850 1289 850 1360.5 860.5 c 128,-1,127
 1432 871 1432 871 1488 893 c 128,-1,128
 1544 915 1544 915 1578 954 c 128,-1,129
 1612 993 1612 993 1612 1059 c 0,130,131
 1612 1101 1612 1101 1597.5 1135.5 c 128,-1,132
 1583 1170 1583 1170 1557.5 1194 c 128,-1,133
 1532 1218 1532 1218 1498 1231.5 c 128,-1,134
 1464 1245 1464 1245 1424 1245 c 0,135,136
 1398 1245 1398 1245 1377.5 1232.5 c 128,-1,137
 1357 1220 1357 1220 1346 1194 c 1,138,139
 1364 1192 1364 1192 1382.5 1187.5 c 128,-1,140
 1401 1183 1401 1183 1416 1174 c 128,-1,141
 1431 1165 1431 1165 1440.5 1149.5 c 128,-1,142
 1450 1134 1450 1134 1450 1110 c 0,143,144
 1450 1090 1450 1090 1442 1072.5 c 128,-1,145
 1434 1055 1434 1055 1420 1042 c 128,-1,146
 1406 1029 1406 1029 1387.5 1021.5 c 128,-1,147
 1369 1014 1369 1014 1348 1014 c 0,148,149
 1325 1014 1325 1014 1305.5 1024.5 c 128,-1,150
 1286 1035 1286 1035 1272 1052 c 128,-1,151
 1258 1069 1258 1069 1250.5 1089.5 c 128,-1,152
 1243 1110 1243 1110 1243 1130 c 0,153,154
 1243 1169 1243 1169 1258.5 1202 c 128,-1,155
 1274 1235 1274 1235 1300 1259 c 128,-1,156
 1326 1283 1326 1283 1360.5 1296 c 128,-1,157
 1395 1309 1395 1309 1434 1309 c 0,158,159
 1497 1309 1497 1309 1544 1285 c 128,-1,160
 1591 1261 1591 1261 1622.5 1221.5 c 128,-1,161
 1654 1182 1654 1182 1670 1130 c 128,-1,162
 1686 1078 1686 1078 1686 1022 c 0,163,164
 1686 932 1686 932 1653 870.5 c 128,-1,165
 1620 809 1620 809 1563 767.5 c 128,-1,166
 1506 726 1506 726 1430 701 c 128,-1,167
 1354 676 1354 676 1268 659 c 1,168,169
 1289 633 1289 633 1306.5 607.5 c 128,-1,170
 1324 582 1324 582 1336.5 554.5 c 128,-1,171
 1349 527 1349 527 1356.5 497.5 c 128,-1,172
 1364 468 1364 468 1364 434 c 0,173,174
 1364 345 1364 345 1338 273 c 128,-1,175
 1312 201 1312 201 1267.5 145.5 c 128,-1,176
 1223 90 1223 90 1163 50 c 128,-1,177
 1103 10 1103 10 1035.5 -16 c 128,-1,178
 968 -42 968 -42 896 -54 c 128,-1,179
 824 -66 824 -66 756 -66 c 0,180,181
 682 -66 682 -66 600.5 -55.5 c 128,-1,182
 519 -45 519 -45 440 -21 c 128,-1,183
 361 3 361 3 289.5 42 c 128,-1,184
 218 81 218 81 163.5 138.5 c 128,-1,185
 109 196 109 196 77 273 c 128,-1,186
 45 350 45 350 45 451 c 0,0,1
467 848 m 1,187,188
 495 827 495 827 526 811 c 0,189,190
 552 797 552 797 585 785.5 c 128,-1,191
 618 774 618 774 651 774 c 0,192,193
 661 774 661 774 673.5 775.5 c 128,-1,194
 686 777 686 777 697 781.5 c 128,-1,195
 708 786 708 786 715.5 794.5 c 128,-1,196
 723 803 723 803 723 817 c 0,197,198
 723 833 723 833 716 843.5 c 128,-1,199
 709 854 709 854 696.5 860.5 c 128,-1,200
 684 867 684 867 667.5 869.5 c 128,-1,201
 651 872 651 872 632 872 c 0,202,203
 610 872 610 872 586.5 869 c 128,-1,204
 563 866 563 866 540.5 862 c 128,-1,205
 518 858 518 858 499 854 c 128,-1,206
 480 850 480 850 467 848 c 1,187,188
EndSplineSet
EndChar

StartChar: k
Encoding: 107 107 29
Width: 859
Flags: W
LayerCount: 2
Fore
SplineSet
277 1081 m 0,0,1
 311 1156 311 1156 359 1218.5 c 128,-1,2
 407 1281 407 1281 464.5 1326 c 128,-1,3
 522 1371 522 1371 586.5 1396 c 128,-1,4
 651 1421 651 1421 720 1421 c 0,5,6
 755 1421 755 1421 790 1412 c 128,-1,7
 825 1403 825 1403 852.5 1384 c 128,-1,8
 880 1365 880 1365 897 1334 c 128,-1,9
 914 1303 914 1303 914 1260 c 0,10,11
 914 1235 914 1235 905 1216.5 c 128,-1,12
 896 1198 896 1198 881 1185.5 c 128,-1,13
 866 1173 866 1173 847 1167 c 128,-1,14
 828 1161 828 1161 808 1161 c 256,15,16
 788 1161 788 1161 770 1167 c 128,-1,17
 752 1173 752 1173 738 1184.5 c 128,-1,18
 724 1196 724 1196 715.5 1213 c 128,-1,19
 707 1230 707 1230 707 1253 c 0,20,21
 707 1270 707 1270 713.5 1287.5 c 128,-1,22
 720 1305 720 1305 734 1325 c 1,23,24
 718 1333 718 1333 704 1337 c 128,-1,25
 690 1341 690 1341 675 1341 c 0,26,27
 633 1341 633 1341 594 1314 c 128,-1,28
 555 1287 555 1287 521.5 1247.5 c 128,-1,29
 488 1208 488 1208 461.5 1162.5 c 128,-1,30
 435 1117 435 1117 419 1081 c 0,31,32
 404 1049 404 1049 384.5 991.5 c 128,-1,33
 365 934 365 934 343 860.5 c 128,-1,34
 321 787 321 787 297.5 702.5 c 128,-1,35
 274 618 274 618 251.5 531.5 c 128,-1,36
 229 445 229 445 209 361.5 c 128,-1,37
 189 278 189 278 174 207 c 128,-1,38
 159 136 159 136 150.5 82 c 128,-1,39
 142 28 142 28 142 0 c 1,40,-1
 -16 0 l 1,41,42
 -16 59 -16 59 -3 143.5 c 128,-1,43
 10 228 10 228 32 325 c 128,-1,44
 54 422 54 422 83 526.5 c 128,-1,45
 112 631 112 631 144.5 731 c 128,-1,46
 177 831 177 831 211 921.5 c 128,-1,47
 245 1012 245 1012 277 1081 c 0,0,1
429 46 m 0,48,49
 371 145 371 145 337.5 202 c 128,-1,50
 304 259 304 259 286 288.5 c 128,-1,51
 268 318 268 318 262 328.5 c 128,-1,52
 256 339 256 339 255 346 c 1,53,54
 260 351 260 351 285 378 c 128,-1,55
 310 405 310 405 347 442 c 128,-1,56
 384 479 384 479 431.5 521 c 128,-1,57
 479 563 479 563 530 598 c 128,-1,58
 581 633 581 633 632.5 656.5 c 128,-1,59
 684 680 684 680 730 680 c 0,60,61
 745 680 745 680 767 676 c 128,-1,62
 789 672 789 672 809.5 661.5 c 128,-1,63
 830 651 830 651 844.5 632 c 128,-1,64
 859 613 859 613 859 584 c 0,65,66
 859 568 859 568 854 551 c 128,-1,67
 849 534 849 534 838 520.5 c 128,-1,68
 827 507 827 507 809 498 c 128,-1,69
 791 489 791 489 765 489 c 0,70,71
 733 489 733 489 715 501.5 c 128,-1,72
 697 514 697 514 688 529 c 0,73,74
 677 547 677 547 675 569 c 1,75,76
 609 534 609 534 560 502 c 128,-1,77
 511 470 511 470 475.5 443 c 128,-1,78
 440 416 440 416 416 394.5 c 128,-1,79
 392 373 392 373 374 358 c 1,80,81
 383 349 383 349 409 321 c 0,82,83
 430 297 430 297 469.5 249.5 c 128,-1,84
 509 202 509 202 574 121 c 0,85,86
 581 112 581 112 591 105 c 128,-1,87
 601 98 601 98 609 98 c 0,88,89
 632 98 632 98 661 126.5 c 128,-1,90
 690 155 690 155 738 211 c 1,91,-1
 779 176 l 1,92,93
 761 144 761 144 734 110.5 c 128,-1,94
 707 77 707 77 674.5 48.5 c 128,-1,95
 642 20 642 20 604.5 2 c 128,-1,96
 567 -16 567 -16 527 -16 c 0,97,98
 493 -16 493 -16 471 -1.5 c 128,-1,99
 449 13 449 13 429 46 c 0,48,49
EndSplineSet
EndChar

StartChar: w
Encoding: 119 119 30
Width: 1057
Flags: W
LayerCount: 2
Fore
SplineSet
-45 356 m 1,0,1
 1 434 1 434 41.5 482.5 c 128,-1,2
 82 531 82 531 115.5 558 c 128,-1,3
 149 585 149 585 176.5 594.5 c 128,-1,4
 204 604 204 604 225 604 c 0,5,6
 256 604 256 604 281.5 581 c 128,-1,7
 307 558 307 558 307 516 c 0,8,9
 307 470 307 470 294.5 410.5 c 128,-1,10
 282 351 282 351 267 295 c 128,-1,11
 252 239 252 239 239.5 195.5 c 128,-1,12
 227 152 227 152 227 137 c 0,13,14
 227 125 227 125 231 110.5 c 128,-1,15
 235 96 235 96 252 96 c 0,16,17
 272 96 272 96 301 127.5 c 128,-1,18
 330 159 330 159 362.5 206 c 128,-1,19
 395 253 395 253 429.5 308 c 128,-1,20
 464 363 464 363 495.5 410 c 128,-1,21
 527 457 527 457 553.5 488.5 c 128,-1,22
 580 520 580 520 598 520 c 0,23,24
 615 520 615 520 621 498 c 128,-1,25
 627 476 627 476 627 436 c 0,26,27
 627 398 627 398 624 349 c 128,-1,28
 621 300 621 300 621 252 c 0,29,30
 621 220 621 220 623 187.5 c 128,-1,31
 625 155 625 155 629.5 129 c 128,-1,32
 634 103 634 103 642.5 86.5 c 128,-1,33
 651 70 651 70 664 70 c 0,34,35
 686 70 686 70 711 87 c 128,-1,36
 736 104 736 104 761 133 c 128,-1,37
 786 162 786 162 809.5 200 c 128,-1,38
 833 238 833 238 850.5 279 c 128,-1,39
 868 320 868 320 878.5 361.5 c 128,-1,40
 889 403 889 403 889 440 c 1,41,42
 886 438 886 438 881 436 c 256,43,44
 876 434 876 434 869.5 433 c 128,-1,45
 863 432 863 432 854 432 c 0,46,47
 803 432 803 432 780.5 456.5 c 128,-1,48
 758 481 758 481 758 512 c 0,49,50
 758 529 758 529 764.5 545.5 c 128,-1,51
 771 562 771 562 783.5 575 c 128,-1,52
 796 588 796 588 814 596 c 128,-1,53
 832 604 832 604 856 604 c 0,54,55
 919 604 919 604 951 569 c 128,-1,56
 983 534 983 534 983 481 c 0,57,58
 983 440 983 440 972 387.5 c 128,-1,59
 961 335 961 335 939.5 279.5 c 128,-1,60
 918 224 918 224 887 171 c 128,-1,61
 856 118 856 118 816 76.5 c 128,-1,62
 776 35 776 35 727.5 9.5 c 128,-1,63
 679 -16 679 -16 623 -16 c 0,64,65
 593 -16 593 -16 572 -1.5 c 128,-1,66
 551 13 551 13 536.5 36 c 128,-1,67
 522 59 522 59 513 89 c 128,-1,68
 504 119 504 119 499.5 150.5 c 128,-1,69
 495 182 495 182 492.5 212 c 128,-1,70
 490 242 490 242 489 266 c 1,71,72
 453 210 453 210 415.5 159 c 128,-1,73
 378 108 378 108 338 69 c 128,-1,74
 298 30 298 30 255.5 7 c 128,-1,75
 213 -16 213 -16 168 -16 c 0,76,77
 140 -16 140 -16 121.5 -7 c 128,-1,78
 103 2 103 2 91.5 17.5 c 128,-1,79
 80 33 80 33 75 54 c 128,-1,80
 70 75 70 75 70 99 c 0,81,82
 70 142 70 142 81.5 188 c 128,-1,83
 93 234 93 234 107.5 275.5 c 128,-1,84
 122 317 122 317 133.5 351.5 c 128,-1,85
 145 386 145 386 145 406 c 0,86,87
 145 449 145 449 127 449 c 0,88,89
 116 449 116 449 100.5 433 c 128,-1,90
 85 417 85 417 69.5 395.5 c 128,-1,91
 54 374 54 374 40.5 352.5 c 128,-1,92
 27 331 27 331 20 319 c 1,93,-1
 -45 356 l 1,0,1
EndSplineSet
EndChar

StartChar: y
Encoding: 121 121 31
Width: 799
Flags: W
LayerCount: 2
Fore
SplineSet
-18 385 m 1,0,1
 6 427 6 427 37.5 466 c 128,-1,2
 69 505 69 505 104 536 c 128,-1,3
 139 567 139 567 174 585.5 c 128,-1,4
 209 604 209 604 240 604 c 0,5,6
 288 604 288 604 312 583.5 c 128,-1,7
 336 563 336 563 336 518 c 0,8,9
 336 499 336 499 328.5 471 c 128,-1,10
 321 443 321 443 310 410.5 c 128,-1,11
 299 378 299 378 286.5 343 c 128,-1,12
 274 308 274 308 263 274 c 128,-1,13
 252 240 252 240 244.5 209.5 c 128,-1,14
 237 179 237 179 237 156 c 256,15,16
 237 133 237 133 241 121 c 128,-1,17
 245 109 245 109 264 109 c 0,18,19
 309 109 309 109 358.5 128 c 128,-1,20
 408 147 408 147 451.5 177.5 c 128,-1,21
 495 208 495 208 529 247.5 c 128,-1,22
 563 287 563 287 577 329 c 2,23,-1
 647 533 l 2,24,25
 658 566 658 566 681.5 583 c 128,-1,26
 705 600 705 600 727 600 c 0,27,28
 746 600 746 600 760 586.5 c 128,-1,29
 774 573 774 573 774 546 c 0,30,31
 774 526 774 526 765 501 c 2,32,-1
 689 279 l 1,33,34
 658 183 658 183 607.5 83.5 c 128,-1,35
 557 -16 557 -16 494 -107 c 1,36,37
 566 -115 566 -115 619.5 -127.5 c 128,-1,38
 673 -140 673 -140 699 -148 c 1,39,-1
 691 -204 l 1,40,41
 669 -200 669 -200 645 -194.5 c 128,-1,42
 621 -189 621 -189 591.5 -184.5 c 128,-1,43
 562 -180 562 -180 526.5 -176.5 c 128,-1,44
 491 -173 491 -173 447 -171 c 1,45,46
 401 -230 401 -230 352 -280 c 128,-1,47
 303 -330 303 -330 253 -367 c 128,-1,48
 203 -404 203 -404 153.5 -424.5 c 128,-1,49
 104 -445 104 -445 58 -445 c 0,50,51
 -4 -445 -4 -445 -41.5 -415 c 128,-1,52
 -79 -385 -79 -385 -79 -332 c 0,53,54
 -79 -294 -79 -294 -60.5 -263 c 128,-1,55
 -42 -232 -42 -232 -9 -207.5 c 128,-1,56
 24 -183 24 -183 68 -164 c 128,-1,57
 112 -145 112 -145 163 -131.5 c 128,-1,58
 214 -118 214 -118 269.5 -110.5 c 128,-1,59
 325 -103 325 -103 380 -100 c 1,60,61
 384 -96 384 -96 394 -79.5 c 128,-1,62
 404 -63 404 -63 417.5 -40 c 128,-1,63
 431 -17 431 -17 445.5 9.5 c 128,-1,64
 460 36 460 36 472.5 60.5 c 128,-1,65
 485 85 485 85 493.5 105 c 128,-1,66
 502 125 502 125 504 134 c 1,67,68
 468 103 468 103 429 76 c 128,-1,69
 390 49 390 49 350 28.5 c 128,-1,70
 310 8 310 8 270 -4 c 128,-1,71
 230 -16 230 -16 192 -16 c 0,72,73
 162 -16 162 -16 142 -5 c 128,-1,74
 122 6 122 6 109.5 24.5 c 128,-1,75
 97 43 97 43 92 66.5 c 128,-1,76
 87 90 87 90 87 115 c 0,77,78
 87 139 87 139 93 170 c 128,-1,79
 99 201 99 201 108.5 235 c 128,-1,80
 118 269 118 269 128.5 303 c 128,-1,81
 139 337 139 337 148.5 367 c 128,-1,82
 158 397 158 397 164 420.5 c 128,-1,83
 170 444 170 444 170 458 c 0,84,85
 170 473 170 473 162 473 c 0,86,87
 145 473 145 473 128.5 459 c 128,-1,88
 112 445 112 445 97 425 c 128,-1,89
 82 405 82 405 69 383 c 128,-1,90
 56 361 56 361 47 346 c 1,91,-1
 -18 385 l 1,0,1
336 -171 m 1,92,93
 316 -172 316 -172 283.5 -176.5 c 128,-1,94
 251 -181 251 -181 214.5 -189 c 128,-1,95
 178 -197 178 -197 141.5 -208.5 c 128,-1,96
 105 -220 105 -220 75.5 -235 c 128,-1,97
 46 -250 46 -250 27.5 -268 c 128,-1,98
 9 -286 9 -286 9 -308 c 0,99,100
 9 -345 9 -345 46 -345 c 0,101,102
 66 -345 66 -345 93 -335.5 c 128,-1,103
 120 -326 120 -326 149.5 -311 c 128,-1,104
 179 -296 179 -296 209 -276.5 c 128,-1,105
 239 -257 239 -257 264.5 -238 c 128,-1,106
 290 -219 290 -219 309 -201 c 128,-1,107
 328 -183 328 -183 336 -171 c 1,92,93
EndSplineSet
EndChar

StartChar: u
Encoding: 117 117 32
Width: 896
Flags: W
LayerCount: 2
Fore
SplineSet
843 204 m 1,0,1
 816 156 816 156 783.5 115.5 c 128,-1,2
 751 75 751 75 717 46 c 128,-1,3
 683 17 683 17 650 0.5 c 128,-1,4
 617 -16 617 -16 589 -16 c 0,5,6
 575 -16 575 -16 560.5 -11.5 c 128,-1,7
 546 -7 546 -7 534 4 c 128,-1,8
 522 15 522 15 514.5 33 c 128,-1,9
 507 51 507 51 507 78 c 0,10,11
 507 111 507 111 515 151 c 128,-1,12
 523 191 523 191 534 230.5 c 128,-1,13
 545 270 545 270 556.5 305 c 128,-1,14
 568 340 568 340 575 362 c 1,15,16
 556 330 556 330 533 289 c 128,-1,17
 510 248 510 248 482.5 206 c 128,-1,18
 455 164 455 164 423.5 124 c 128,-1,19
 392 84 392 84 356.5 53 c 128,-1,20
 321 22 321 22 281 3 c 128,-1,21
 241 -16 241 -16 198 -16 c 0,22,23
 162 -16 162 -16 139 -5 c 128,-1,24
 116 6 116 6 102.5 24.5 c 128,-1,25
 89 43 89 43 84 66.5 c 128,-1,26
 79 90 79 90 79 115 c 0,27,28
 79 155 79 155 92.5 204.5 c 128,-1,29
 106 254 106 254 122 301.5 c 128,-1,30
 138 349 138 349 151.5 390 c 128,-1,31
 165 431 165 431 165 455 c 0,32,33
 165 464 165 464 162.5 468.5 c 128,-1,34
 160 473 160 473 151 473 c 0,35,36
 135 473 135 473 117.5 457 c 128,-1,37
 100 441 100 441 85 419.5 c 128,-1,38
 70 398 70 398 58 377 c 128,-1,39
 46 356 46 356 40 346 c 1,40,-1
 -25 385 l 1,41,42
 14 447 14 447 50 489 c 128,-1,43
 86 531 86 531 119 556.5 c 128,-1,44
 152 582 152 582 182 593 c 128,-1,45
 212 604 212 604 239 604 c 0,46,47
 282 604 282 604 306.5 580.5 c 128,-1,48
 331 557 331 557 331 520 c 1,49,50
 329 473 329 473 313.5 426.5 c 128,-1,51
 298 380 298 380 280 333.5 c 128,-1,52
 262 287 262 287 247.5 240 c 128,-1,53
 233 193 233 193 233 145 c 0,54,55
 233 124 233 124 241.5 116.5 c 128,-1,56
 250 109 250 109 266 109 c 0,57,58
 300 109 300 109 341 144 c 128,-1,59
 382 179 382 179 424 231.5 c 128,-1,60
 466 284 466 284 505.5 345.5 c 128,-1,61
 545 407 545 407 576.5 459.5 c 128,-1,62
 608 512 608 512 627 547 c 128,-1,63
 646 582 646 582 647 582 c 2,64,-1
 790 582 l 1,65,66
 781 556 781 556 768 520 c 128,-1,67
 755 484 755 484 740 443 c 128,-1,68
 725 402 725 402 710 358.5 c 128,-1,69
 695 315 695 315 683 275.5 c 128,-1,70
 671 236 671 236 663.5 203 c 128,-1,71
 656 170 656 170 656 149 c 0,72,73
 656 117 656 117 672 117 c 0,74,75
 694 117 694 117 728 151.5 c 128,-1,76
 762 186 762 186 800 245 c 1,77,-1
 843 204 l 1,0,1
EndSplineSet
EndChar

StartChar: R
Encoding: 82 82 33
Width: 1831
Flags: W
LayerCount: 2
Fore
SplineSet
1815 182 m 1,0,1
 1801 147 1801 147 1779.5 109.5 c 128,-1,2
 1758 72 1758 72 1726.5 41 c 128,-1,3
 1695 10 1695 10 1653.5 -9.5 c 128,-1,4
 1612 -29 1612 -29 1559 -29 c 0,5,6
 1515 -29 1515 -29 1479 -4.5 c 128,-1,7
 1443 20 1443 20 1413.5 60.5 c 128,-1,8
 1384 101 1384 101 1359.5 153 c 128,-1,9
 1335 205 1335 205 1314.5 259 c 128,-1,10
 1294 313 1294 313 1275.5 364.5 c 128,-1,11
 1257 416 1257 416 1239 456.5 c 128,-1,12
 1221 497 1221 497 1202.5 522 c 128,-1,13
 1184 547 1184 547 1162 547 c 1,14,15
 1113 398 1113 398 1040.5 289 c 128,-1,16
 968 180 968 180 874 108 c 128,-1,17
 780 36 780 36 666.5 1 c 128,-1,18
 553 -34 553 -34 423 -34 c 0,19,20
 349 -34 349 -34 273.5 -17 c 128,-1,21
 198 0 198 0 137 36 c 128,-1,22
 76 72 76 72 37.5 128 c 128,-1,23
 -1 184 -1 184 -1 262 c 0,24,25
 -1 350 -1 350 40 417.5 c 128,-1,26
 81 485 81 485 147 530 c 128,-1,27
 213 575 213 575 295 598 c 128,-1,28
 377 621 377 621 459 621 c 1,29,30
 461 731 461 731 495 834.5 c 128,-1,31
 529 938 529 938 587 1029 c 128,-1,32
 645 1120 645 1120 724.5 1196 c 128,-1,33
 804 1272 804 1272 897.5 1326.5 c 128,-1,34
 991 1381 991 1381 1095.5 1411.5 c 128,-1,35
 1200 1442 1200 1442 1309 1442 c 0,36,37
 1387 1442 1387 1442 1466 1422 c 128,-1,38
 1545 1402 1545 1402 1608.5 1360 c 128,-1,39
 1672 1318 1672 1318 1712 1252.5 c 128,-1,40
 1752 1187 1752 1187 1752 1096 c 0,41,42
 1752 1002 1752 1002 1717.5 923 c 128,-1,43
 1683 844 1683 844 1626 779 c 128,-1,44
 1569 714 1569 714 1494.5 661.5 c 128,-1,45
 1420 609 1420 609 1340 569 c 1,46,47
 1370 545 1370 545 1395 500.5 c 128,-1,48
 1420 456 1420 456 1443 404 c 128,-1,49
 1466 352 1466 352 1488 298.5 c 128,-1,50
 1510 245 1510 245 1533 201.5 c 128,-1,51
 1556 158 1556 158 1581 130 c 128,-1,52
 1606 102 1606 102 1635 102 c 0,53,54
 1656 102 1656 102 1674 114.5 c 128,-1,55
 1692 127 1692 127 1707 145 c 128,-1,56
 1722 163 1722 163 1733.5 182 c 128,-1,57
 1745 201 1745 201 1752 213 c 1,58,-1
 1815 182 l 1,0,1
511 299 m 1,59,60
 500 319 500 319 491.5 354.5 c 128,-1,61
 483 390 483 390 475 424 c 0,62,63
 466 464 466 464 459 508 c 1,64,65
 426 508 426 508 383.5 502.5 c 128,-1,66
 341 497 341 497 297.5 485 c 128,-1,67
 254 473 254 473 212 454.5 c 128,-1,68
 170 436 170 436 137 409 c 128,-1,69
 104 382 104 382 84 346.5 c 128,-1,70
 64 311 64 311 64 266 c 0,71,72
 64 202 64 202 96 157.5 c 128,-1,73
 128 113 128 113 177.5 85.5 c 128,-1,74
 227 58 227 58 287.5 45.5 c 128,-1,75
 348 33 348 33 405 33 c 0,76,77
 518 33 518 33 604.5 64.5 c 128,-1,78
 691 96 691 96 757 154 c 128,-1,79
 823 212 823 212 870 293 c 128,-1,80
 917 374 917 374 951 473 c 0,81,82
 979 554 979 554 1004 634.5 c 128,-1,83
 1029 715 1029 715 1057 792.5 c 128,-1,84
 1085 870 1085 870 1118.5 943 c 128,-1,85
 1152 1016 1152 1016 1197.5 1083 c 128,-1,86
 1243 1150 1243 1150 1303 1210 c 128,-1,87
 1363 1270 1363 1270 1443 1321 c 1,88,89
 1423 1331 1423 1331 1391 1339 c 0,90,91
 1364 1346 1364 1346 1322.5 1352 c 128,-1,92
 1281 1358 1281 1358 1221 1358 c 0,93,94
 1140 1358 1140 1358 1056.5 1329 c 128,-1,95
 973 1300 973 1300 895 1248.5 c 128,-1,96
 817 1197 817 1197 749 1127 c 128,-1,97
 681 1057 681 1057 629.5 974.5 c 128,-1,98
 578 892 578 892 548 800.5 c 128,-1,99
 518 709 518 709 517 616 c 1,100,101
 565 609 565 609 612 594.5 c 128,-1,102
 659 580 659 580 703.5 556.5 c 128,-1,103
 748 533 748 533 788.5 500 c 128,-1,104
 829 467 829 467 863 424 c 1,105,-1
 830 389 l 1,106,107
 814 398 814 398 785 418.5 c 128,-1,108
 756 439 756 439 715.5 459 c 128,-1,109
 675 479 675 479 625 494.5 c 128,-1,110
 575 510 575 510 517 510 c 1,111,112
 519 479 519 479 526.5 448.5 c 128,-1,113
 534 418 534 418 543 391.5 c 128,-1,114
 552 365 552 365 560 344.5 c 128,-1,115
 568 324 568 324 572 313 c 1,116,-1
 511 299 l 1,59,60
1166 567 m 1,117,118
 1250 593 1250 593 1325 638.5 c 128,-1,119
 1400 684 1400 684 1456.5 747 c 128,-1,120
 1513 810 1513 810 1546.5 889.5 c 128,-1,121
 1580 969 1580 969 1580 1063 c 0,122,123
 1580 1091 1580 1091 1574 1122.5 c 128,-1,124
 1568 1154 1568 1154 1557 1183.5 c 128,-1,125
 1546 1213 1546 1213 1529 1239.5 c 128,-1,126
 1512 1266 1512 1266 1490 1284 c 1,127,128
 1402 1221 1402 1221 1349 1142.5 c 128,-1,129
 1296 1064 1296 1064 1262.5 972.5 c 128,-1,130
 1229 881 1229 881 1208.5 779 c 128,-1,131
 1188 677 1188 677 1166 567 c 1,117,118
EndSplineSet
EndChar

StartChar: M
Encoding: 77 77 34
Width: 2225
Flags: W
LayerCount: 2
Fore
SplineSet
2171 240 m 1,0,1
 2149 184 2149 184 2118.5 136 c 128,-1,2
 2088 88 2088 88 2051 53 c 128,-1,3
 2014 18 2014 18 1973 -2.5 c 128,-1,4
 1932 -23 1932 -23 1889 -23 c 0,5,6
 1851 -23 1851 -23 1825.5 -7.5 c 128,-1,7
 1800 8 1800 8 1784.5 31.5 c 128,-1,8
 1769 55 1769 55 1762.5 83 c 128,-1,9
 1756 111 1756 111 1756 135 c 0,10,11
 1756 185 1756 185 1769 250.5 c 128,-1,12
 1782 316 1782 316 1802.5 391 c 128,-1,13
 1823 466 1823 466 1850 547 c 128,-1,14
 1877 628 1877 628 1904.5 709 c 128,-1,15
 1932 790 1932 790 1959 868 c 128,-1,16
 1986 946 1986 946 2006.5 1015 c 128,-1,17
 2027 1084 2027 1084 2040 1140 c 128,-1,18
 2053 1196 2053 1196 2053 1234 c 0,19,20
 2053 1301 2053 1301 2010 1301 c 0,21,22
 1960 1301 1960 1301 1906 1256 c 128,-1,23
 1852 1211 1852 1211 1797.5 1135 c 128,-1,24
 1743 1059 1743 1059 1688.5 959 c 128,-1,25
 1634 859 1634 859 1583 749.5 c 128,-1,26
 1532 640 1532 640 1485 527.5 c 128,-1,27
 1438 415 1438 415 1398.5 314.5 c 128,-1,28
 1359 214 1359 214 1327.5 131.5 c 128,-1,29
 1296 49 1296 49 1276 0 c 1,30,-1
 1053 0 l 1,31,-1
 1145 240 l 1,32,33
 1220 440 1220 440 1280 627 c 0,34,35
 1305 706 1305 706 1329.5 790 c 128,-1,36
 1354 874 1354 874 1373.5 954 c 128,-1,37
 1393 1034 1393 1034 1404.5 1106 c 128,-1,38
 1416 1178 1416 1178 1416 1233 c 0,39,40
 1416 1292 1416 1292 1401.5 1325 c 128,-1,41
 1387 1358 1387 1358 1350 1358 c 0,42,43
 1308 1358 1308 1358 1262.5 1320 c 128,-1,44
 1217 1282 1217 1282 1169.5 1217 c 128,-1,45
 1122 1152 1122 1152 1074 1065 c 128,-1,46
 1026 978 1026 978 979.5 880 c 128,-1,47
 933 782 933 782 889.5 679 c 128,-1,48
 846 576 846 576 807.5 478 c 128,-1,49
 769 380 769 380 736.5 293 c 128,-1,50
 704 206 704 206 680 141 c 128,-1,51
 656 76 656 76 642 38 c 128,-1,52
 628 0 628 0 625 0 c 2,53,-1
 429 0 l 1,54,-1
 541 313 l 1,55,56
 579 411 579 411 615 511 c 128,-1,57
 651 611 651 611 678.5 712 c 128,-1,58
 706 813 706 813 723 916.5 c 128,-1,59
 740 1020 740 1020 740 1126 c 0,60,61
 740 1178 740 1178 727.5 1225 c 128,-1,62
 715 1272 715 1272 688 1307.5 c 128,-1,63
 661 1343 661 1343 619.5 1363.5 c 128,-1,64
 578 1384 578 1384 521 1384 c 0,65,66
 449 1384 449 1384 391 1355.5 c 128,-1,67
 333 1327 333 1327 288.5 1280.5 c 128,-1,68
 244 1234 244 1234 212 1174.5 c 128,-1,69
 180 1115 180 1115 159 1052.5 c 128,-1,70
 138 990 138 990 128.5 930 c 128,-1,71
 119 870 119 870 119 823 c 0,72,73
 119 692 119 692 150 560.5 c 128,-1,74
 181 429 181 429 252 311 c 1,75,-1
 209 279 l 1,76,77
 171 339 171 339 143.5 406 c 128,-1,78
 116 473 116 473 98 543 c 128,-1,79
 80 613 80 613 71 682.5 c 128,-1,80
 62 752 62 752 62 817 c 0,81,82
 62 879 62 879 73 949.5 c 128,-1,83
 84 1020 84 1020 108.5 1089.5 c 128,-1,84
 133 1159 133 1159 171.5 1222.5 c 128,-1,85
 210 1286 210 1286 264.5 1335 c 128,-1,86
 319 1384 319 1384 390 1413 c 128,-1,87
 461 1442 461 1442 551 1442 c 0,88,89
 639 1442 639 1442 701 1405.5 c 128,-1,90
 763 1369 763 1369 801.5 1309.5 c 128,-1,91
 840 1250 840 1250 857.5 1175 c 128,-1,92
 875 1100 875 1100 875 1022 c 0,93,94
 875 975 875 975 868.5 923 c 128,-1,95
 862 871 862 871 851.5 819.5 c 128,-1,96
 841 768 841 768 828.5 720 c 128,-1,97
 816 672 816 672 804 632 c 128,-1,98
 792 592 792 592 782 563 c 128,-1,99
 772 534 772 534 768 520 c 1,100,101
 772 531 772 531 780.5 552 c 128,-1,102
 789 573 789 573 798.5 597 c 128,-1,103
 808 621 808 621 817.5 644 c 128,-1,104
 827 667 827 667 834 682 c 0,105,106
 851 721 851 721 873.5 774.5 c 128,-1,107
 896 828 896 828 923.5 889 c 128,-1,108
 951 950 951 950 983.5 1014.5 c 128,-1,109
 1016 1079 1016 1079 1052 1140.5 c 128,-1,110
 1088 1202 1088 1202 1128.5 1256.5 c 128,-1,111
 1169 1311 1169 1311 1212.5 1352.5 c 128,-1,112
 1256 1394 1256 1394 1302 1418 c 128,-1,113
 1348 1442 1348 1442 1397 1442 c 0,114,115
 1445 1442 1445 1442 1477.5 1424.5 c 128,-1,116
 1510 1407 1510 1407 1530 1376.5 c 128,-1,117
 1550 1346 1550 1346 1558.5 1304 c 128,-1,118
 1567 1262 1567 1262 1567 1214 c 0,119,120
 1567 1160 1567 1160 1559 1099.5 c 128,-1,121
 1551 1039 1551 1039 1537.5 976.5 c 128,-1,122
 1524 914 1524 914 1508 852 c 128,-1,123
 1492 790 1492 790 1475.5 733.5 c 128,-1,124
 1459 677 1459 677 1444.5 628.5 c 128,-1,125
 1430 580 1430 580 1420 545 c 1,126,127
 1446 593 1446 593 1473 655.5 c 128,-1,128
 1500 718 1500 718 1529.5 787.5 c 128,-1,129
 1559 857 1559 857 1591 929.5 c 128,-1,130
 1623 1002 1623 1002 1660 1070 c 128,-1,131
 1697 1138 1697 1138 1739 1198.5 c 128,-1,132
 1781 1259 1781 1259 1829.5 1304.5 c 128,-1,133
 1878 1350 1878 1350 1934 1376 c 128,-1,134
 1990 1402 1990 1402 2055 1402 c 0,135,136
 2089 1402 2089 1402 2117 1389 c 128,-1,137
 2145 1376 2145 1376 2165.5 1353.5 c 128,-1,138
 2186 1331 2186 1331 2197.5 1300.5 c 128,-1,139
 2209 1270 2209 1270 2209 1234 c 0,140,141
 2209 1154 2209 1154 2189 1065 c 128,-1,142
 2169 976 2169 976 2138 881.5 c 128,-1,143
 2107 787 2107 787 2071 691 c 128,-1,144
 2035 595 2035 595 2003 502 c 128,-1,145
 1971 409 1971 409 1948.5 321.5 c 128,-1,146
 1926 234 1926 234 1922 158 c 1,147,148
 1922 137 1922 137 1925 124.5 c 128,-1,149
 1928 112 1928 112 1933 105 c 128,-1,150
 1938 98 1938 98 1944.5 96 c 128,-1,151
 1951 94 1951 94 1958 94 c 0,152,153
 1975 94 1975 94 1996.5 112.5 c 128,-1,154
 2018 131 2018 131 2040 158.5 c 128,-1,155
 2062 186 2062 186 2083 219.5 c 128,-1,156
 2104 253 2104 253 2120 283 c 1,157,-1
 2171 240 l 1,0,1
EndSplineSet
EndChar

StartChar: T
Encoding: 84 84 35
Width: 1386
Flags: W
LayerCount: 2
Fore
SplineSet
434 483 m 0,0,1
 356 483 356 483 297.5 463 c 128,-1,2
 239 443 239 443 200 411 c 128,-1,3
 161 379 161 379 141 337.5 c 128,-1,4
 121 296 121 296 121 254 c 256,5,6
 121 212 121 212 140 171.5 c 128,-1,7
 159 131 159 131 198 100 c 128,-1,8
 237 69 237 69 295.5 50 c 128,-1,9
 354 31 354 31 432 31 c 0,10,11
 569 31 569 31 663.5 70.5 c 128,-1,12
 758 110 758 110 822.5 177 c 128,-1,13
 887 244 887 244 928.5 334 c 128,-1,14
 970 424 970 424 1000 524 c 128,-1,15
 1030 624 1030 624 1055.5 729.5 c 128,-1,16
 1081 835 1081 835 1114 934.5 c 128,-1,17
 1147 1034 1147 1034 1194 1121 c 128,-1,18
 1241 1208 1241 1208 1315 1272 c 1,19,20
 1218 1297 1218 1297 1114 1309 c 128,-1,21
 1010 1321 1010 1321 911 1321 c 0,22,23
 819 1321 819 1321 736 1282.5 c 128,-1,24
 653 1244 653 1244 590 1178.5 c 128,-1,25
 527 1113 527 1113 489.5 1026 c 128,-1,26
 452 939 452 939 452 842 c 0,27,28
 452 766 452 766 474 706.5 c 128,-1,29
 496 647 496 647 534.5 599.5 c 128,-1,30
 573 552 573 552 626.5 514.5 c 128,-1,31
 680 477 680 477 743 446 c 1,32,-1
 729 395 l 1,33,-1
 700 406 l 1,34,35
 638 438 638 438 570.5 460.5 c 128,-1,36
 503 483 503 483 434 483 c 0,0,1
-33 256 m 0,37,38
 -33 333 -33 333 4.5 388.5 c 128,-1,39
 42 444 42 444 100 480 c 128,-1,40
 158 516 158 516 229 533.5 c 128,-1,41
 300 551 300 551 368 551 c 0,42,43
 407 551 407 551 442 545.5 c 128,-1,44
 477 540 477 540 506 530 c 1,45,46
 480 563 480 563 455.5 599.5 c 128,-1,47
 431 636 431 636 412 676 c 128,-1,48
 393 716 393 716 381.5 758 c 128,-1,49
 370 800 370 800 370 844 c 0,50,51
 370 932 370 932 397.5 1010.5 c 128,-1,52
 425 1089 425 1089 473 1155.5 c 128,-1,53
 521 1222 521 1222 586 1275 c 128,-1,54
 651 1328 651 1328 725.5 1365 c 128,-1,55
 800 1402 800 1402 880.5 1422 c 128,-1,56
 961 1442 961 1442 1040 1442 c 0,57,58
 1108 1442 1108 1442 1174.5 1429.5 c 128,-1,59
 1241 1417 1241 1417 1307 1402 c 128,-1,60
 1373 1387 1373 1387 1439 1374.5 c 128,-1,61
 1505 1362 1505 1362 1573 1362 c 0,62,63
 1592 1362 1592 1362 1608.5 1369 c 128,-1,64
 1625 1376 1625 1376 1640 1387 c 128,-1,65
 1655 1398 1655 1398 1668 1412 c 128,-1,66
 1681 1426 1681 1426 1693 1440 c 1,67,-1
 1769 1440 l 1,68,69
 1755 1382 1755 1382 1715 1346.5 c 128,-1,70
 1675 1311 1675 1311 1625.5 1291 c 128,-1,71
 1576 1271 1576 1271 1525 1264 c 128,-1,72
 1474 1257 1474 1257 1440 1257 c 0,73,74
 1402 1257 1402 1257 1374 1232 c 128,-1,75
 1346 1207 1346 1207 1326.5 1165.5 c 128,-1,76
 1307 1124 1307 1124 1293.5 1069.5 c 128,-1,77
 1280 1015 1280 1015 1271.5 955.5 c 128,-1,78
 1263 896 1263 896 1258 835.5 c 128,-1,79
 1253 775 1253 775 1249 721 c 0,80,81
 1238 582 1238 582 1198.5 473 c 128,-1,82
 1159 364 1159 364 1098.5 280.5 c 128,-1,83
 1038 197 1038 197 959.5 138.5 c 128,-1,84
 881 80 881 80 792 43.5 c 128,-1,85
 703 7 703 7 607 -10 c 128,-1,86
 511 -27 511 -27 416 -27 c 0,87,88
 373 -27 373 -27 323 -21 c 128,-1,89
 273 -15 273 -15 223 -1 c 128,-1,90
 173 13 173 13 126.5 35 c 128,-1,91
 80 57 80 57 44.5 88 c 128,-1,92
 9 119 9 119 -12 161 c 128,-1,93
 -33 203 -33 203 -33 256 c 0,37,38
EndSplineSet
EndChar

StartChar: A
Encoding: 65 65 36
Width: 1786
Flags: W
LayerCount: 2
Fore
SplineSet
1139 70 m 1,0,1
 1179 47 1179 47 1220 47 c 0,2,3
 1262 47 1262 47 1299 71 c 128,-1,4
 1336 95 1336 95 1367.5 136.5 c 128,-1,5
 1399 178 1399 178 1425.5 235 c 128,-1,6
 1452 292 1452 292 1473 358 c 1,7,-1
 817 358 l 1,8,-1
 735 236 l 2,9,10
 689 168 689 168 637.5 119 c 128,-1,11
 586 70 586 70 526 38.5 c 128,-1,12
 466 7 466 7 397.5 -8 c 128,-1,13
 329 -23 329 -23 249 -23 c 0,14,15
 181 -23 181 -23 131.5 -6.5 c 128,-1,16
 82 10 82 10 50.5 36 c 128,-1,17
 19 62 19 62 4 94 c 128,-1,18
 -11 126 -11 126 -11 158 c 0,19,20
 -11 182 -11 182 -2 205 c 128,-1,21
 7 228 7 228 24 246 c 128,-1,22
 41 264 41 264 65.5 274.5 c 128,-1,23
 90 285 90 285 122 285 c 0,24,25
 147 285 147 285 166 275 c 128,-1,26
 185 265 185 265 198 248.5 c 128,-1,27
 211 232 211 232 217 210 c 128,-1,28
 223 188 223 188 223 164 c 0,29,30
 223 138 223 138 210 112.5 c 128,-1,31
 197 87 197 87 169 72 c 1,32,33
 173 63 173 63 182 57 c 0,34,35
 190 52 190 52 202.5 47.5 c 128,-1,36
 215 43 215 43 235 43 c 0,37,38
 269 43 269 43 299 48.5 c 128,-1,39
 329 54 329 54 360.5 72 c 128,-1,40
 392 90 392 90 427.5 125 c 128,-1,41
 463 160 463 160 506.5 218 c 128,-1,42
 550 276 550 276 604 362 c 128,-1,43
 658 448 658 448 728 569 c 0,44,45
 792 680 792 680 857.5 780 c 128,-1,46
 923 880 923 880 996.5 969 c 128,-1,47
 1070 1058 1070 1058 1155.5 1138 c 128,-1,48
 1241 1218 1241 1218 1345 1290 c 1,49,50
 1316 1309 1316 1309 1279 1324.5 c 128,-1,51
 1242 1340 1242 1340 1202 1351 c 128,-1,52
 1162 1362 1162 1362 1122 1368 c 128,-1,53
 1082 1374 1082 1374 1046 1374 c 0,54,55
 929 1374 929 1374 833 1348 c 128,-1,56
 737 1322 737 1322 662 1275.5 c 128,-1,57
 587 1229 587 1229 531 1165 c 128,-1,58
 475 1101 475 1101 439 1025.5 c 128,-1,59
 403 950 403 950 385 865.5 c 128,-1,60
 367 781 367 781 367 694 c 0,61,62
 367 541 367 541 419 393 c 1,63,-1
 354 362 l 1,64,65
 297 455 297 455 269.5 552 c 128,-1,66
 242 649 242 649 242 746 c 0,67,68
 242 837 242 837 265.5 923.5 c 128,-1,69
 289 1010 289 1010 335 1087.5 c 128,-1,70
 381 1165 381 1165 448 1230 c 128,-1,71
 515 1295 515 1295 602 1342 c 128,-1,72
 689 1389 689 1389 795 1415.5 c 128,-1,73
 901 1442 901 1442 1024 1442 c 0,74,75
 1112 1442 1112 1442 1174.5 1430.5 c 128,-1,76
 1237 1419 1237 1419 1282.5 1402 c 128,-1,77
 1328 1385 1328 1385 1359.5 1365.5 c 128,-1,78
 1391 1346 1391 1346 1417 1331 c 1,79,80
 1469 1356 1469 1356 1511.5 1370 c 128,-1,81
 1554 1384 1554 1384 1592.5 1391.5 c 128,-1,82
 1631 1399 1631 1399 1667 1401 c 128,-1,83
 1703 1403 1703 1403 1742 1403 c 1,84,-1
 1767 1356 l 1,85,86
 1734 1356 1734 1356 1700.5 1353.5 c 128,-1,87
 1667 1351 1667 1351 1632 1343 c 128,-1,88
 1597 1335 1597 1335 1559.5 1320 c 128,-1,89
 1522 1305 1522 1305 1480 1280 c 1,90,91
 1542 1226 1542 1226 1586.5 1156 c 128,-1,92
 1631 1086 1631 1086 1659.5 1006.5 c 128,-1,93
 1688 927 1688 927 1701.5 840 c 128,-1,94
 1715 753 1715 753 1715 665 c 0,95,96
 1715 563 1715 563 1700 467.5 c 128,-1,97
 1685 372 1685 372 1658.5 288.5 c 128,-1,98
 1632 205 1632 205 1595.5 135.5 c 128,-1,99
 1559 66 1559 66 1515 16.5 c 128,-1,100
 1471 -33 1471 -33 1421.5 -60.5 c 128,-1,101
 1372 -88 1372 -88 1320 -88 c 0,102,103
 1269 -88 1269 -88 1215 -62.5 c 128,-1,104
 1161 -37 1161 -37 1110 20 c 1,105,-1
 1139 70 l 1,0,1
1417 1234 m 1,106,107
 1308 1153 1308 1153 1231.5 1061 c 128,-1,108
 1155 969 1155 969 1093 867 c 128,-1,109
 1031 765 1031 765 975 653.5 c 128,-1,110
 919 542 919 542 853 422 c 1,111,-1
 1491 422 l 1,112,113
 1514 513 1514 513 1526 609 c 128,-1,114
 1538 705 1538 705 1538 796 c 0,115,116
 1538 864 1538 864 1531 928.5 c 128,-1,117
 1524 993 1524 993 1509 1049.5 c 128,-1,118
 1494 1106 1494 1106 1471 1153 c 128,-1,119
 1448 1200 1448 1200 1417 1234 c 1,106,107
EndSplineSet
EndChar

StartChar: K
Encoding: 75 75 37
Width: 1793
Flags: W
LayerCount: 2
Fore
SplineSet
1733 170 m 1,0,1
 1719 113 1719 113 1693 77 c 128,-1,2
 1667 41 1667 41 1636.5 20 c 128,-1,3
 1606 -1 1606 -1 1574.5 -8.5 c 128,-1,4
 1543 -16 1543 -16 1518 -16 c 0,5,6
 1466 -16 1466 -16 1430 0 c 128,-1,7
 1394 16 1394 16 1368.5 44 c 128,-1,8
 1343 72 1343 72 1327 108.5 c 128,-1,9
 1311 145 1311 145 1300.5 186 c 128,-1,10
 1290 227 1290 227 1283 270.5 c 128,-1,11
 1276 314 1276 314 1268.5 354.5 c 128,-1,12
 1261 395 1261 395 1251 430.5 c 128,-1,13
 1241 466 1241 466 1225 492 c 1,14,15
 1211 487 1211 487 1191.5 481 c 128,-1,16
 1172 475 1172 475 1155 475 c 0,17,18
 1132 475 1132 475 1107.5 481 c 128,-1,19
 1083 487 1083 487 1063 498 c 1,20,21
 988 353 988 353 894.5 253.5 c 128,-1,22
 801 154 801 154 702.5 92.5 c 128,-1,23
 604 31 604 31 507 4 c 128,-1,24
 410 -23 410 -23 326 -23 c 0,25,26
 267 -23 267 -23 217 -11.5 c 128,-1,27
 167 0 167 0 130.5 19.5 c 128,-1,28
 94 39 94 39 73.5 65.5 c 128,-1,29
 53 92 53 92 53 121 c 0,30,31
 53 149 53 149 62 169 c 128,-1,32
 71 189 71 189 86 202.5 c 128,-1,33
 101 216 101 216 120 222.5 c 128,-1,34
 139 229 139 229 158 229 c 0,35,36
 192 229 192 229 218 209 c 128,-1,37
 244 189 244 189 244 145 c 0,38,39
 244 110 244 110 213 80 c 1,40,41
 247 63 247 63 280.5 56 c 128,-1,42
 314 49 314 49 348 49 c 0,43,44
 431 49 431 49 511.5 91.5 c 128,-1,45
 592 134 592 134 663.5 206 c 128,-1,46
 735 278 735 278 795 372 c 128,-1,47
 855 466 855 466 898.5 568.5 c 128,-1,48
 942 671 942 671 966.5 775.5 c 128,-1,49
 991 880 991 880 991 973 c 0,50,51
 991 1051 991 1051 976 1123 c 128,-1,52
 961 1195 961 1195 928 1250 c 128,-1,53
 895 1305 895 1305 843.5 1337.5 c 128,-1,54
 792 1370 792 1370 719 1370 c 0,55,56
 648 1370 648 1370 580 1349 c 128,-1,57
 512 1328 512 1328 451.5 1290.5 c 128,-1,58
 391 1253 391 1253 340 1200 c 128,-1,59
 289 1147 289 1147 252 1083.5 c 128,-1,60
 215 1020 215 1020 194.5 947.5 c 128,-1,61
 174 875 174 875 174 797 c 0,62,63
 174 743 174 743 189 679.5 c 128,-1,64
 204 616 204 616 242.5 561.5 c 128,-1,65
 281 507 281 507 347 470.5 c 128,-1,66
 413 434 413 434 516 434 c 0,67,68
 530 434 530 434 544 435 c 128,-1,69
 558 436 558 436 574 438 c 1,70,-1
 594 391 l 1,71,72
 574 388 574 388 554.5 387.5 c 128,-1,73
 535 387 535 387 516 387 c 0,74,75
 430 387 430 387 363 408.5 c 128,-1,76
 296 430 296 430 246 465.5 c 128,-1,77
 196 501 196 501 162 548 c 128,-1,78
 128 595 128 595 106.5 645.5 c 128,-1,79
 85 696 85 696 75.5 747.5 c 128,-1,80
 66 799 66 799 66 844 c 0,81,82
 66 966 66 966 112.5 1074.5 c 128,-1,83
 159 1183 159 1183 244.5 1265 c 128,-1,84
 330 1347 330 1347 450.5 1394.5 c 128,-1,85
 571 1442 571 1442 719 1442 c 0,86,87
 844 1442 844 1442 931 1403 c 128,-1,88
 1018 1364 1018 1364 1072.5 1297.5 c 128,-1,89
 1127 1231 1127 1231 1151.5 1142 c 128,-1,90
 1176 1053 1176 1053 1176 954 c 0,91,92
 1176 879 1176 879 1162.5 801 c 128,-1,93
 1149 723 1149 723 1124 645 c 1,94,95
 1150 645 1150 645 1169.5 643 c 128,-1,96
 1189 641 1189 641 1205.5 636.5 c 128,-1,97
 1222 632 1222 632 1236.5 624 c 128,-1,98
 1251 616 1251 616 1268 604 c 1,99,100
 1308 635 1308 635 1335 685.5 c 128,-1,101
 1362 736 1362 736 1383 797.5 c 128,-1,102
 1404 859 1404 859 1422.5 927 c 128,-1,103
 1441 995 1441 995 1464 1062 c 128,-1,104
 1487 1129 1487 1129 1517.5 1189.5 c 128,-1,105
 1548 1250 1548 1250 1592.5 1296 c 128,-1,106
 1637 1342 1637 1342 1699 1369.5 c 128,-1,107
 1761 1397 1761 1397 1847 1397 c 0,108,109
 1869 1397 1869 1397 1893 1392 c 128,-1,110
 1917 1387 1917 1387 1937 1377 c 128,-1,111
 1957 1367 1957 1367 1970 1353.5 c 128,-1,112
 1983 1340 1983 1340 1983 1323 c 0,113,114
 1983 1297 1983 1297 1975.5 1275.5 c 128,-1,115
 1968 1254 1968 1254 1955.5 1238.5 c 128,-1,116
 1943 1223 1943 1223 1927 1214.5 c 128,-1,117
 1911 1206 1911 1206 1895 1206 c 1,118,119
 1870 1222 1870 1222 1848 1224.5 c 128,-1,120
 1826 1227 1826 1227 1806 1227 c 0,121,122
 1750 1227 1750 1227 1715 1206 c 128,-1,123
 1680 1185 1680 1185 1658.5 1148.5 c 128,-1,124
 1637 1112 1637 1112 1624.5 1063 c 128,-1,125
 1612 1014 1612 1014 1599.5 959 c 128,-1,126
 1587 904 1587 904 1570 845.5 c 128,-1,127
 1553 787 1553 787 1523.5 731.5 c 128,-1,128
 1494 676 1494 676 1447 626 c 128,-1,129
 1400 576 1400 576 1327 537 c 1,130,131
 1350 514 1350 514 1376 479 c 128,-1,132
 1402 444 1402 444 1426.5 402.5 c 128,-1,133
 1451 361 1451 361 1471.5 314.5 c 128,-1,134
 1492 268 1492 268 1505 221 c 0,135,136
 1518 173 1518 173 1536 144 c 128,-1,137
 1554 115 1554 115 1579 115 c 0,138,139
 1588 115 1588 115 1600.5 124.5 c 128,-1,140
 1613 134 1613 134 1627 148.5 c 128,-1,141
 1641 163 1641 163 1656 180.5 c 128,-1,142
 1671 198 1671 198 1684 213 c 1,143,-1
 1733 170 l 1,0,1
1094 555 m 1,144,145
 1111 546 1111 546 1125.5 540.5 c 128,-1,146
 1140 535 1140 535 1155 535 c 0,147,148
 1166 535 1166 535 1177 537.5 c 128,-1,149
 1188 540 1188 540 1200 545 c 1,150,151
 1193 558 1193 558 1181 569 c 0,152,153
 1170 578 1170 578 1153.5 586 c 128,-1,154
 1137 594 1137 594 1112 594 c 1,155,-1
 1094 555 l 1,144,145
EndSplineSet
EndChar

StartChar: D
Encoding: 68 68 38
Width: 1618
Flags: W
LayerCount: 2
Fore
SplineSet
219 361 m 1,0,1
 162 472 162 472 136 573.5 c 128,-1,2
 110 675 110 675 110 768 c 0,3,4
 110 871 110 871 139.5 961 c 128,-1,5
 169 1051 169 1051 221 1126 c 128,-1,6
 273 1201 273 1201 344 1259.5 c 128,-1,7
 415 1318 415 1318 499.5 1358.5 c 128,-1,8
 584 1399 584 1399 678 1420.5 c 128,-1,9
 772 1442 772 1442 869 1442 c 0,10,11
 923 1442 923 1442 977 1437.5 c 128,-1,12
 1031 1433 1031 1433 1083.5 1420.5 c 128,-1,13
 1136 1408 1136 1408 1186 1384 c 128,-1,14
 1236 1360 1236 1360 1283 1321 c 1,15,16
 1311 1344 1311 1344 1343.5 1358.5 c 128,-1,17
 1376 1373 1376 1373 1410.5 1381.5 c 128,-1,18
 1445 1390 1445 1390 1479 1393.5 c 128,-1,19
 1513 1397 1513 1397 1545 1397 c 1,20,-1
 1565 1335 l 1,21,22
 1538 1330 1538 1330 1509.5 1324 c 128,-1,23
 1481 1318 1481 1318 1452.5 1309.5 c 128,-1,24
 1424 1301 1424 1301 1398 1289.5 c 128,-1,25
 1372 1278 1372 1278 1350 1261 c 1,26,27
 1404 1211 1404 1211 1444 1145 c 128,-1,28
 1484 1079 1484 1079 1510.5 1002.5 c 128,-1,29
 1537 926 1537 926 1550 842 c 128,-1,30
 1563 758 1563 758 1563 672 c 0,31,32
 1563 581 1563 581 1551 495.5 c 128,-1,33
 1539 410 1539 410 1513.5 335 c 128,-1,34
 1488 260 1488 260 1448 198 c 128,-1,35
 1408 136 1408 136 1352 91 c 128,-1,36
 1296 46 1296 46 1223.5 21.5 c 128,-1,37
 1151 -3 1151 -3 1060 -3 c 0,38,39
 975 -3 975 -3 875 20 c 128,-1,40
 775 43 775 43 656 94 c 1,41,42
 631 75 631 75 592.5 56.5 c 128,-1,43
 554 38 554 38 509 23 c 128,-1,44
 464 8 464 8 416 -1 c 128,-1,45
 368 -10 368 -10 323 -10 c 0,46,47
 287 -10 287 -10 256 -3 c 128,-1,48
 225 4 225 4 202 19.5 c 128,-1,49
 179 35 179 35 165.5 60.5 c 128,-1,50
 152 86 152 86 152 123 c 0,51,52
 152 162 152 162 175.5 195.5 c 128,-1,53
 199 229 199 229 239.5 253.5 c 128,-1,54
 280 278 280 278 335 292 c 128,-1,55
 390 306 390 306 453 306 c 256,56,57
 516 306 516 306 582 291 c 128,-1,58
 648 276 648 276 714 244 c 1,59,60
 774 322 774 322 809.5 405.5 c 128,-1,61
 845 489 845 489 869.5 575.5 c 128,-1,62
 894 662 894 662 917 750.5 c 128,-1,63
 940 839 940 839 975.5 927 c 128,-1,64
 1011 1015 1011 1015 1067.5 1101.5 c 128,-1,65
 1124 1188 1124 1188 1217 1270 c 1,66,67
 1189 1296 1189 1296 1151.5 1315 c 128,-1,68
 1114 1334 1114 1334 1073 1347 c 128,-1,69
 1032 1360 1032 1360 989.5 1366 c 128,-1,70
 947 1372 947 1372 909 1372 c 0,71,72
 767 1372 767 1372 644 1329 c 128,-1,73
 521 1286 521 1286 429.5 1203 c 128,-1,74
 338 1120 338 1120 285.5 998.5 c 128,-1,75
 233 877 233 877 233 720 c 0,76,77
 233 645 233 645 247 563 c 128,-1,78
 261 481 261 481 288 391 c 1,79,-1
 219 361 l 1,0,1
1446 707 m 0,80,81
 1446 778 1446 778 1434 849 c 128,-1,82
 1422 920 1422 920 1401 983.5 c 128,-1,83
 1380 1047 1380 1047 1350.5 1099.5 c 128,-1,84
 1321 1152 1321 1152 1287 1188 c 1,85,86
 1251 1133 1251 1133 1229.5 1062.5 c 128,-1,87
 1208 992 1208 992 1188.5 911 c 128,-1,88
 1169 830 1169 830 1144 742 c 128,-1,89
 1119 654 1119 654 1075.5 563.5 c 128,-1,90
 1032 473 1032 473 963.5 383.5 c 128,-1,91
 895 294 895 294 788 210 c 1,92,93
 890 157 890 157 971 133.5 c 128,-1,94
 1052 110 1052 110 1117 110 c 0,95,96
 1187 110 1187 110 1238.5 134.5 c 128,-1,97
 1290 159 1290 159 1326.5 202 c 128,-1,98
 1363 245 1363 245 1386.5 303 c 128,-1,99
 1410 361 1410 361 1423 427.5 c 128,-1,100
 1436 494 1436 494 1441 565.5 c 128,-1,101
 1446 637 1446 637 1446 707 c 0,80,81
215 125 m 0,102,103
 215 92 215 92 246 77.5 c 128,-1,104
 277 63 277 63 325 63 c 0,105,106
 355 63 355 63 389.5 68.5 c 128,-1,107
 424 74 424 74 459 84 c 128,-1,108
 494 94 494 94 527.5 108.5 c 128,-1,109
 561 123 561 123 589 141 c 1,110,111
 566 150 566 150 535 160.5 c 128,-1,112
 504 171 504 171 469 179 c 128,-1,113
 434 187 434 187 398.5 192.5 c 128,-1,114
 363 198 363 198 331 198 c 0,115,116
 281 198 281 198 248 182 c 128,-1,117
 215 166 215 166 215 125 c 0,102,103
EndSplineSet
EndChar

StartChar: comma
Encoding: 44 44 39
Width: 403
Flags: W
LayerCount: 2
Fore
SplineSet
45 -229 m 1,0,1
 62 -160 62 -160 80.5 -82.5 c 128,-1,2
 99 -5 99 -5 114 92 c 1,3,-1
 284 147 l 1,4,5
 284 130 284 130 272.5 100 c 128,-1,6
 261 70 261 70 243 33.5 c 128,-1,7
 225 -3 225 -3 202 -42.5 c 128,-1,8
 179 -82 179 -82 156 -118.5 c 128,-1,9
 133 -155 133 -155 112 -184 c 128,-1,10
 91 -213 91 -213 77 -229 c 1,11,-1
 45 -229 l 1,0,1
EndSplineSet
EndChar

StartChar: O
Encoding: 79 79 40
Width: 1442
Flags: W
LayerCount: 2
Fore
SplineSet
362 819 m 0,0,1
 362 897 362 897 384.5 974 c 128,-1,2
 407 1051 407 1051 448 1120 c 128,-1,3
 489 1189 489 1189 545.5 1248 c 128,-1,4
 602 1307 602 1307 669 1350 c 128,-1,5
 736 1393 736 1393 812 1417.5 c 128,-1,6
 888 1442 888 1442 968 1442 c 0,7,8
 1072 1442 1072 1442 1167 1409 c 128,-1,9
 1262 1376 1262 1376 1334 1312.5 c 128,-1,10
 1406 1249 1406 1249 1449 1156 c 128,-1,11
 1492 1063 1492 1063 1492 944 c 0,12,13
 1492 823 1492 823 1459 704 c 128,-1,14
 1426 585 1426 585 1365.5 477.5 c 128,-1,15
 1305 370 1305 370 1219.5 278.5 c 128,-1,16
 1134 187 1134 187 1029 120 c 128,-1,17
 924 53 924 53 802 15 c 128,-1,18
 680 -23 680 -23 546 -23 c 0,19,20
 420 -23 420 -23 322 10 c 128,-1,21
 224 43 224 43 157 106.5 c 128,-1,22
 90 170 90 170 55 262.5 c 128,-1,23
 20 355 20 355 20 475 c 0,24,25
 20 567 20 567 42.5 662.5 c 128,-1,26
 65 758 65 758 108.5 847.5 c 128,-1,27
 152 937 152 937 216 1014.5 c 128,-1,28
 280 1092 280 1092 362 1148 c 1,29,-1
 392 1111 l 1,30,31
 347 1057 347 1057 311.5 988.5 c 128,-1,32
 276 920 276 920 252 843.5 c 128,-1,33
 228 767 228 767 215 686.5 c 128,-1,34
 202 606 202 606 202 528 c 0,35,36
 202 430 202 430 224 341.5 c 128,-1,37
 246 253 246 253 293 185 c 128,-1,38
 340 117 340 117 413 77 c 128,-1,39
 486 37 486 37 587 37 c 0,40,41
 687 37 687 37 776.5 76 c 128,-1,42
 866 115 866 115 941.5 181.5 c 128,-1,43
 1017 248 1017 248 1077 336.5 c 128,-1,44
 1137 425 1137 425 1179.5 524.5 c 128,-1,45
 1222 624 1222 624 1244.5 728 c 128,-1,46
 1267 832 1267 832 1267 930 c 0,47,48
 1267 1020 1267 1020 1248 1100 c 128,-1,49
 1229 1180 1229 1180 1188 1239.5 c 128,-1,50
 1147 1299 1147 1299 1083 1333.5 c 128,-1,51
 1019 1368 1019 1368 929 1368 c 0,52,53
 826 1368 826 1368 740.5 1320 c 128,-1,54
 655 1272 655 1272 593 1193.5 c 128,-1,55
 531 1115 531 1115 496.5 1015.5 c 128,-1,56
 462 916 462 916 462 813 c 0,57,58
 462 755 462 755 474 714 c 128,-1,59
 486 673 486 673 506.5 646.5 c 128,-1,60
 527 620 527 620 554.5 608 c 128,-1,61
 582 596 582 596 614 596 c 0,62,63
 664 596 664 596 717.5 622 c 128,-1,64
 771 648 771 648 815.5 692 c 128,-1,65
 860 736 860 736 889.5 794.5 c 128,-1,66
 919 853 919 853 921 918 c 1,67,-1
 1017 934 l 1,68,69
 1017 855 1017 855 984.5 782 c 128,-1,70
 952 709 952 709 897.5 653 c 128,-1,71
 843 597 843 597 771 563.5 c 128,-1,72
 699 530 699 530 620 530 c 0,73,74
 555 530 555 530 507 553.5 c 128,-1,75
 459 577 459 577 426.5 617 c 128,-1,76
 394 657 394 657 378 709.5 c 128,-1,77
 362 762 362 762 362 819 c 0,0,1
EndSplineSet
EndChar

StartChar: E
Encoding: 69 69 41
Width: 1369
Flags: W
LayerCount: 2
Fore
SplineSet
1335 1223 m 1,0,1
 1319 1257 1319 1257 1289 1283.5 c 128,-1,2
 1259 1310 1259 1310 1220 1329 c 128,-1,3
 1181 1348 1181 1348 1136 1358 c 128,-1,4
 1091 1368 1091 1368 1044 1368 c 0,5,6
 988 1368 988 1368 934.5 1353 c 128,-1,7
 881 1338 881 1338 839.5 1309 c 128,-1,8
 798 1280 798 1280 772.5 1237.5 c 128,-1,9
 747 1195 747 1195 747 1139 c 0,10,11
 747 1105 747 1105 757.5 1067.5 c 128,-1,12
 768 1030 768 1030 790 998 c 128,-1,13
 812 966 812 966 846.5 945 c 128,-1,14
 881 924 881 924 929 924 c 0,15,16
 937 924 937 924 948 924.5 c 128,-1,17
 959 925 959 925 970.5 926 c 128,-1,18
 982 927 982 927 991 927.5 c 128,-1,19
 1000 928 1000 928 1005 928 c 0,20,21
 1031 928 1031 928 1044.5 918 c 128,-1,22
 1058 908 1058 908 1058 893 c 0,23,24
 1058 879 1058 879 1045 867.5 c 128,-1,25
 1032 856 1032 856 1003 856 c 0,26,27
 903 856 903 856 815 835.5 c 128,-1,28
 727 815 727 815 653 779.5 c 128,-1,29
 579 744 579 744 521 696.5 c 128,-1,30
 463 649 463 649 423 596 c 128,-1,31
 383 543 383 543 361.5 486.5 c 128,-1,32
 340 430 340 430 340 377 c 0,33,34
 340 316 340 316 365 262 c 128,-1,35
 390 208 390 208 443 167 c 128,-1,36
 496 126 496 126 578 102 c 128,-1,37
 660 78 660 78 774 78 c 0,38,39
 855 78 855 78 933 94.5 c 128,-1,40
 1011 111 1011 111 1072 144 c 128,-1,41
 1133 177 1133 177 1170.5 226 c 128,-1,42
 1208 275 1208 275 1208 340 c 0,43,44
 1208 401 1208 401 1189.5 444 c 128,-1,45
 1171 487 1171 487 1139 515 c 128,-1,46
 1107 543 1107 543 1065 556 c 128,-1,47
 1023 569 1023 569 977 569 c 0,48,49
 927 569 927 569 875.5 558.5 c 128,-1,50
 824 548 824 548 776.5 529 c 128,-1,51
 729 510 729 510 688 483 c 128,-1,52
 647 456 647 456 618 422 c 1,53,-1
 563 471 l 1,54,55
 592 508 592 508 637 538.5 c 128,-1,56
 682 569 682 569 736.5 590.5 c 128,-1,57
 791 612 791 612 851.5 623.5 c 128,-1,58
 912 635 912 635 972 635 c 0,59,60
 1035 635 1035 635 1094 618.5 c 128,-1,61
 1153 602 1153 602 1199 567 c 128,-1,62
 1245 532 1245 532 1274 477.5 c 128,-1,63
 1303 423 1303 423 1306 346 c 1,64,65
 1303 284 1303 284 1279.5 232.5 c 128,-1,66
 1256 181 1256 181 1215.5 139.5 c 128,-1,67
 1175 98 1175 98 1121 67.5 c 128,-1,68
 1067 37 1067 37 1003.5 16.5 c 128,-1,69
 940 -4 940 -4 870 -14.5 c 128,-1,70
 800 -25 800 -25 729 -25 c 0,71,72
 652 -25 652 -25 576 -12.5 c 128,-1,73
 500 0 500 0 431.5 25 c 128,-1,74
 363 50 363 50 304 87.5 c 128,-1,75
 245 125 245 125 202 174.5 c 128,-1,76
 159 224 159 224 134.5 285.5 c 128,-1,77
 110 347 110 347 110 420 c 0,78,79
 110 498 110 498 137 560.5 c 128,-1,80
 164 623 164 623 211 672.5 c 128,-1,81
 258 722 258 722 321.5 759 c 128,-1,82
 385 796 385 796 458 824 c 128,-1,83
 531 852 531 852 610 871 c 128,-1,84
 689 890 689 890 768 903 c 1,85,86
 707 924 707 924 667 951.5 c 128,-1,87
 627 979 627 979 603 1010 c 128,-1,88
 579 1041 579 1041 569 1073.5 c 128,-1,89
 559 1106 559 1106 559 1135 c 0,90,91
 559 1194 559 1194 593.5 1249.5 c 128,-1,92
 628 1305 628 1305 690 1347.5 c 128,-1,93
 752 1390 752 1390 839.5 1416 c 128,-1,94
 927 1442 927 1442 1032 1442 c 0,95,96
 1075 1442 1075 1442 1121.5 1435 c 128,-1,97
 1168 1428 1168 1428 1213 1412.5 c 128,-1,98
 1258 1397 1258 1397 1298.5 1373.5 c 128,-1,99
 1339 1350 1339 1350 1370.5 1317 c 128,-1,100
 1402 1284 1402 1284 1420.5 1242 c 128,-1,101
 1439 1200 1439 1200 1441 1147 c 1,102,103
 1441 1118 1441 1118 1431.5 1096.5 c 128,-1,104
 1422 1075 1422 1075 1406 1061 c 128,-1,105
 1390 1047 1390 1047 1368.5 1040.5 c 128,-1,106
 1347 1034 1347 1034 1323 1034 c 0,107,108
 1304 1034 1304 1034 1285.5 1040.5 c 128,-1,109
 1267 1047 1267 1047 1252 1059 c 128,-1,110
 1237 1071 1237 1071 1227.5 1088 c 128,-1,111
 1218 1105 1218 1105 1218 1126 c 0,112,113
 1218 1162 1218 1162 1235 1181.5 c 128,-1,114
 1252 1201 1252 1201 1273.5 1210 c 128,-1,115
 1295 1219 1295 1219 1313.5 1221 c 128,-1,116
 1332 1223 1332 1223 1335 1223 c 1,0,1
EndSplineSet
EndChar

StartChar: x
Encoding: 120 120 42
Width: 772
Flags: W
LayerCount: 2
Fore
SplineSet
24 418 m 1,0,1
 63 473 63 473 97.5 509 c 128,-1,2
 132 545 132 545 162 566 c 128,-1,3
 192 587 192 587 219 595.5 c 128,-1,4
 246 604 246 604 270 604 c 0,5,6
 307 604 307 604 332.5 584.5 c 128,-1,7
 358 565 358 565 373.5 538 c 128,-1,8
 389 511 389 511 397 481.5 c 128,-1,9
 405 452 405 452 407 432 c 1,10,11
 452 514 452 514 509.5 559 c 128,-1,12
 567 604 567 604 645 604 c 0,13,14
 663 604 663 604 680 599 c 128,-1,15
 697 594 697 594 710.5 583.5 c 128,-1,16
 724 573 724 573 732.5 556 c 128,-1,17
 741 539 741 539 741 514 c 0,18,19
 741 496 741 496 736.5 479.5 c 128,-1,20
 732 463 732 463 722 449.5 c 128,-1,21
 712 436 712 436 697 428 c 128,-1,22
 682 420 682 420 661 420 c 0,23,24
 632 420 632 420 612.5 434.5 c 128,-1,25
 593 449 593 449 579 467 c 0,26,27
 563 487 563 487 553 514 c 1,28,29
 502 480 502 480 470 423.5 c 128,-1,30
 438 367 438 367 438 305 c 1,31,-1
 581 305 l 1,32,-1
 594 272 l 1,33,-1
 438 272 l 1,34,35
 438 237 438 237 442 205 c 128,-1,36
 446 173 446 173 455 148.5 c 128,-1,37
 464 124 464 124 478 109.5 c 128,-1,38
 492 95 492 95 513 95 c 0,39,40
 532 95 532 95 555.5 112 c 128,-1,41
 579 129 579 129 602 153 c 128,-1,42
 625 177 625 177 644.5 202 c 128,-1,43
 664 227 664 227 676 243 c 1,44,-1
 719 204 l 1,45,46
 704 178 704 178 678 140 c 128,-1,47
 652 102 652 102 618 67.5 c 128,-1,48
 584 33 584 33 544 8.5 c 128,-1,49
 504 -16 504 -16 462 -16 c 0,50,51
 432 -16 432 -16 408 0.5 c 128,-1,52
 384 17 384 17 367.5 43 c 128,-1,53
 351 69 351 69 342.5 100.5 c 128,-1,54
 334 132 334 132 334 162 c 1,55,56
 313 118 313 118 284.5 85 c 128,-1,57
 256 52 256 52 223 29.5 c 128,-1,58
 190 7 190 7 154 -4.5 c 128,-1,59
 118 -16 118 -16 82 -16 c 0,60,61
 31 -16 31 -16 -4 12 c 128,-1,62
 -39 40 -39 40 -39 98 c 0,63,64
 -39 132 -39 132 -16.5 157 c 128,-1,65
 6 182 6 182 41 182 c 0,66,67
 72 182 72 182 90.5 171.5 c 128,-1,68
 109 161 109 161 119.5 143.5 c 128,-1,69
 130 126 130 126 134.5 102 c 128,-1,70
 139 78 139 78 143 51 c 1,71,72
 161 51 161 51 183.5 67 c 128,-1,73
 206 83 206 83 227.5 112 c 128,-1,74
 249 141 249 141 266 181.5 c 128,-1,75
 283 222 283 222 289 272 c 1,76,-1
 137 272 l 1,77,-1
 160 305 l 1,78,-1
 291 305 l 1,79,80
 291 330 291 330 290.5 367 c 128,-1,81
 290 404 290 404 285.5 438.5 c 128,-1,82
 281 473 281 473 270 497.5 c 128,-1,83
 259 522 259 522 237 522 c 0,84,85
 219 522 219 522 199.5 508.5 c 128,-1,86
 180 495 180 495 160.5 474 c 128,-1,87
 141 453 141 453 122 428 c 128,-1,88
 103 403 103 403 86 381 c 1,89,-1
 24 418 l 1,0,1
EndSplineSet
EndChar

StartChar: quoteright
Encoding: 8217 8217 43
Width: 381
Flags: W
LayerCount: 2
Fore
SplineSet
60 838 m 1,0,1
 75 902 75 902 92.5 972.5 c 128,-1,2
 110 1043 110 1043 124 1131 c 1,3,4
 87 1145 87 1145 66 1173.5 c 128,-1,5
 45 1202 45 1202 45 1233 c 0,6,7
 45 1267 45 1267 75.5 1293 c 128,-1,8
 106 1319 106 1319 175 1319 c 0,9,10
 198 1319 198 1319 220 1313 c 128,-1,11
 242 1307 242 1307 259.5 1294 c 128,-1,12
 277 1281 277 1281 288 1261 c 128,-1,13
 299 1241 299 1241 299 1214 c 0,14,15
 299 1197 299 1197 287.5 1167 c 128,-1,16
 276 1137 276 1137 258 1100.5 c 128,-1,17
 240 1064 240 1064 217 1024.5 c 128,-1,18
 194 985 194 985 171 948.5 c 128,-1,19
 148 912 148 912 127 883 c 128,-1,20
 106 854 106 854 92 838 c 1,21,-1
 60 838 l 1,0,1
EndSplineSet
EndChar

StartChar: G
Encoding: 71 71 44
Width: 1272
Flags: W
LayerCount: 2
Fore
SplineSet
1253 1225 m 1,0,1
 1182 1294 1182 1294 1106.5 1325 c 128,-1,2
 1031 1356 1031 1356 956 1356 c 0,3,4
 865 1356 865 1356 783 1328 c 128,-1,5
 701 1300 701 1300 631.5 1251.5 c 128,-1,6
 562 1203 562 1203 506.5 1137.5 c 128,-1,7
 451 1072 451 1072 412 997.5 c 128,-1,8
 373 923 373 923 352 843.5 c 128,-1,9
 331 764 331 764 331 686 c 0,10,11
 331 612 331 612 350 545.5 c 128,-1,12
 369 479 369 479 409.5 429 c 128,-1,13
 450 379 450 379 513 350 c 128,-1,14
 576 321 576 321 663 321 c 0,15,16
 728 321 728 321 794.5 342.5 c 128,-1,17
 861 364 861 364 920.5 404 c 128,-1,18
 980 444 980 444 1029 501 c 128,-1,19
 1078 558 1078 558 1108 629 c 1,20,-1
 1253 631 l 1,21,22
 1202 400 1202 400 1111.5 218.5 c 128,-1,23
 1021 37 1021 37 897 -88.5 c 128,-1,24
 773 -214 773 -214 620 -280 c 128,-1,25
 467 -346 467 -346 291 -346 c 0,26,27
 194 -346 194 -346 122.5 -324 c 128,-1,28
 51 -302 51 -302 3.5 -266.5 c 128,-1,29
 -44 -231 -44 -231 -67 -185.5 c 128,-1,30
 -90 -140 -90 -140 -90 -92 c 256,31,32
 -90 -44 -90 -44 -66.5 3 c 128,-1,33
 -43 50 -43 50 3.5 86.5 c 128,-1,34
 50 123 50 123 119.5 145.5 c 128,-1,35
 189 168 189 168 280 168 c 0,36,37
 359 168 359 168 431.5 147.5 c 128,-1,38
 504 127 504 127 551 90 c 1,39,-1
 508 2 l 1,40,41
 488 11 488 11 467.5 18 c 128,-1,42
 447 25 447 25 423.5 30 c 128,-1,43
 400 35 400 35 370.5 38 c 128,-1,44
 341 41 341 41 303 41 c 0,45,46
 231 41 231 41 174.5 29 c 128,-1,47
 118 17 118 17 79 -2.5 c 128,-1,48
 40 -22 40 -22 20 -46.5 c 128,-1,49
 0 -71 0 -71 0 -96 c 0,50,51
 0 -129 0 -129 19.5 -157 c 128,-1,52
 39 -185 39 -185 78 -206 c 128,-1,53
 117 -227 117 -227 174.5 -238.5 c 128,-1,54
 232 -250 232 -250 307 -250 c 0,55,56
 540 -250 540 -250 731 -69 c 128,-1,57
 922 112 922 112 1058 468 c 1,58,59
 1015 408 1015 408 963 362.5 c 128,-1,60
 911 317 911 317 853 287 c 128,-1,61
 795 257 795 257 733 242 c 128,-1,62
 671 227 671 227 610 227 c 0,63,64
 518 227 518 227 432 255 c 128,-1,65
 346 283 346 283 280 338.5 c 128,-1,66
 214 394 214 394 174.5 477.5 c 128,-1,67
 135 561 135 561 135 672 c 0,68,69
 135 761 135 761 160 853 c 128,-1,70
 185 945 185 945 233.5 1030.5 c 128,-1,71
 282 1116 282 1116 353 1191 c 128,-1,72
 424 1266 424 1266 514.5 1322 c 128,-1,73
 605 1378 605 1378 715 1410 c 128,-1,74
 825 1442 825 1442 952 1442 c 0,75,76
 995 1442 995 1442 1042.5 1435 c 128,-1,77
 1090 1428 1090 1428 1136.5 1412.5 c 128,-1,78
 1183 1397 1183 1397 1225.5 1373.5 c 128,-1,79
 1268 1350 1268 1350 1300 1317.5 c 128,-1,80
 1332 1285 1332 1285 1351 1243 c 128,-1,81
 1370 1201 1370 1201 1370 1149 c 0,82,83
 1370 1107 1370 1107 1356.5 1077 c 128,-1,84
 1343 1047 1343 1047 1321.5 1027 c 128,-1,85
 1300 1007 1300 1007 1273 997.5 c 128,-1,86
 1246 988 1246 988 1219 988 c 0,87,88
 1195 988 1195 988 1172 995 c 128,-1,89
 1149 1002 1149 1002 1131.5 1016.5 c 128,-1,90
 1114 1031 1114 1031 1103.5 1052 c 128,-1,91
 1093 1073 1093 1073 1093 1100 c 0,92,93
 1093 1146 1093 1146 1113 1171.5 c 128,-1,94
 1133 1197 1133 1197 1159.5 1209 c 128,-1,95
 1186 1221 1186 1221 1212.5 1223 c 128,-1,96
 1239 1225 1239 1225 1253 1225 c 1,0,1
EndSplineSet
EndChar

StartChar: Q
Encoding: 81 81 45
Width: 1442
Flags: W
LayerCount: 2
Fore
SplineSet
362 819 m 0,0,1
 362 897 362 897 384.5 974 c 128,-1,2
 407 1051 407 1051 448 1120 c 128,-1,3
 489 1189 489 1189 545.5 1248 c 128,-1,4
 602 1307 602 1307 669 1350 c 128,-1,5
 736 1393 736 1393 812 1417.5 c 128,-1,6
 888 1442 888 1442 968 1442 c 0,7,8
 1072 1442 1072 1442 1167 1409 c 128,-1,9
 1262 1376 1262 1376 1334 1312.5 c 128,-1,10
 1406 1249 1406 1249 1449 1156 c 128,-1,11
 1492 1063 1492 1063 1492 944 c 0,12,13
 1492 828 1492 828 1462 714 c 128,-1,14
 1432 600 1432 600 1376 496 c 128,-1,15
 1320 392 1320 392 1241 302 c 128,-1,16
 1162 212 1162 212 1064.5 143.5 c 128,-1,17
 967 75 967 75 853 32 c 128,-1,18
 739 -11 739 -11 614 -20 c 1,19,20
 585 -65 585 -65 553.5 -108.5 c 128,-1,21
 522 -152 522 -152 499 -183 c 1,22,23
 556 -203 556 -203 608.5 -223 c 128,-1,24
 661 -243 661 -243 706 -259 c 128,-1,25
 751 -275 751 -275 786.5 -285 c 128,-1,26
 822 -295 822 -295 845 -295 c 0,27,28
 877 -295 877 -295 906.5 -281 c 128,-1,29
 936 -267 936 -267 961 -246.5 c 128,-1,30
 986 -226 986 -226 1006 -202.5 c 128,-1,31
 1026 -179 1026 -179 1040 -160 c 1,32,-1
 1083 -190 l 1,33,34
 1062 -216 1062 -216 1035.5 -253.5 c 128,-1,35
 1009 -291 1009 -291 972 -326.5 c 128,-1,36
 935 -362 935 -362 884.5 -387 c 128,-1,37
 834 -412 834 -412 766 -412 c 0,38,39
 738 -412 738 -412 698.5 -401.5 c 128,-1,40
 659 -391 659 -391 611.5 -374 c 128,-1,41
 564 -357 564 -357 510.5 -335.5 c 128,-1,42
 457 -314 457 -314 402 -292 c 1,43,44
 370 -321 370 -321 335.5 -342 c 128,-1,45
 301 -363 301 -363 261 -376 c 128,-1,46
 221 -389 221 -389 174.5 -395 c 128,-1,47
 128 -401 128 -401 71 -401 c 0,48,49
 15 -401 15 -401 -26.5 -389 c 128,-1,50
 -68 -377 -68 -377 -95.5 -357 c 128,-1,51
 -123 -337 -123 -337 -136.5 -311.5 c 128,-1,52
 -150 -286 -150 -286 -150 -258 c 0,53,54
 -150 -227 -150 -227 -134 -197 c 128,-1,55
 -118 -167 -118 -167 -87 -143 c 128,-1,56
 -56 -119 -56 -119 -10.5 -104.5 c 128,-1,57
 35 -90 35 -90 94 -90 c 0,58,59
 168 -90 168 -90 251.5 -109.5 c 128,-1,60
 335 -129 335 -129 420 -157 c 1,61,62
 438 -133 438 -133 465.5 -96 c 128,-1,63
 493 -59 493 -59 519 -22 c 1,64,65
 399 -19 399 -19 306.5 15.5 c 128,-1,66
 214 50 214 50 150 113 c 128,-1,67
 86 176 86 176 53 267 c 128,-1,68
 20 358 20 358 20 475 c 0,69,70
 20 567 20 567 42.5 662.5 c 128,-1,71
 65 758 65 758 108.5 847.5 c 128,-1,72
 152 937 152 937 216 1014.5 c 128,-1,73
 280 1092 280 1092 362 1148 c 1,74,-1
 392 1111 l 1,75,76
 347 1057 347 1057 311.5 988.5 c 128,-1,77
 276 920 276 920 252 843.5 c 128,-1,78
 228 767 228 767 215 686.5 c 128,-1,79
 202 606 202 606 202 528 c 0,80,81
 202 433 202 433 222.5 347 c 128,-1,82
 243 261 243 261 287 194 c 128,-1,83
 331 127 331 127 398.5 85 c 128,-1,84
 466 43 466 43 561 38 c 1,85,86
 574 57 574 57 590 79.5 c 128,-1,87
 606 102 606 102 622 125 c 128,-1,88
 638 148 638 148 654 170.5 c 128,-1,89
 670 193 670 193 684 213 c 1,90,-1
 759 211 l 1,91,-1
 653 41 l 1,92,93
 744 54 744 54 825 99.5 c 128,-1,94
 906 145 906 145 974 213 c 128,-1,95
 1042 281 1042 281 1096.5 367 c 128,-1,96
 1151 453 1151 453 1189 547.5 c 128,-1,97
 1227 642 1227 642 1247 740 c 128,-1,98
 1267 838 1267 838 1267 930 c 0,99,100
 1267 1020 1267 1020 1248 1100 c 128,-1,101
 1229 1180 1229 1180 1188 1239.5 c 128,-1,102
 1147 1299 1147 1299 1083 1333.5 c 128,-1,103
 1019 1368 1019 1368 929 1368 c 0,104,105
 826 1368 826 1368 740.5 1320 c 128,-1,106
 655 1272 655 1272 593 1193.5 c 128,-1,107
 531 1115 531 1115 496.5 1015.5 c 128,-1,108
 462 916 462 916 462 813 c 0,109,110
 462 755 462 755 474 714 c 128,-1,111
 486 673 486 673 506.5 646.5 c 128,-1,112
 527 620 527 620 554.5 608 c 128,-1,113
 582 596 582 596 614 596 c 0,114,115
 664 596 664 596 717.5 622 c 128,-1,116
 771 648 771 648 815.5 692 c 128,-1,117
 860 736 860 736 889.5 794.5 c 128,-1,118
 919 853 919 853 921 918 c 1,119,-1
 1017 934 l 1,120,121
 1017 855 1017 855 984.5 782 c 128,-1,122
 952 709 952 709 897.5 653 c 128,-1,123
 843 597 843 597 771 563.5 c 128,-1,124
 699 530 699 530 620 530 c 0,125,126
 555 530 555 530 507 553.5 c 128,-1,127
 459 577 459 577 426.5 617 c 128,-1,128
 394 657 394 657 378 709.5 c 128,-1,129
 362 762 362 762 362 819 c 0,0,1
90 -336 m 0,130,131
 128 -336 128 -336 160 -332.5 c 128,-1,132
 192 -329 192 -329 220 -320 c 128,-1,133
 248 -311 248 -311 273.5 -296.5 c 128,-1,134
 299 -282 299 -282 324 -261 c 1,135,136
 243 -231 243 -231 169.5 -209.5 c 128,-1,137
 96 -188 96 -188 41 -188 c 0,138,139
 -19 -188 -19 -188 -48.5 -208 c 128,-1,140
 -78 -228 -78 -228 -78 -254 c 0,141,142
 -78 -269 -78 -269 -67.5 -283.5 c 128,-1,143
 -57 -298 -57 -298 -36 -309.5 c 128,-1,144
 -15 -321 -15 -321 16.5 -328.5 c 128,-1,145
 48 -336 48 -336 90 -336 c 0,130,131
EndSplineSet
EndChar

StartChar: U
Encoding: 85 85 46
Width: 1675
Flags: W
LayerCount: 2
Fore
SplineSet
786 1047 m 0,0,1
 786 938 786 938 762 832.5 c 128,-1,2
 738 727 738 727 708.5 622.5 c 128,-1,3
 679 518 679 518 655 412 c 128,-1,4
 631 306 631 306 631 197 c 0,5,6
 631 141 631 141 644.5 109.5 c 128,-1,7
 658 78 658 78 692 78 c 0,8,9
 729 78 729 78 769.5 104.5 c 128,-1,10
 810 131 810 131 852.5 177 c 128,-1,11
 895 223 895 223 938.5 286.5 c 128,-1,12
 982 350 982 350 1025.5 424.5 c 128,-1,13
 1069 499 1069 499 1111 581 c 128,-1,14
 1153 663 1153 663 1193 747 c 0,15,16
 1332 1042 1332 1042 1472 1417 c 1,17,-1
 1659 1417 l 1,18,19
 1632 1342 1632 1342 1599.5 1248 c 128,-1,20
 1567 1154 1567 1154 1534 1049 c 128,-1,21
 1501 944 1501 944 1470 833.5 c 128,-1,22
 1439 723 1439 723 1415 616 c 128,-1,23
 1391 509 1391 509 1376.5 410 c 128,-1,24
 1362 311 1362 311 1362 229 c 0,25,26
 1362 141 1362 141 1381 102 c 128,-1,27
 1400 63 1400 63 1429 63 c 0,28,29
 1466 63 1466 63 1510 110 c 128,-1,30
 1554 157 1554 157 1597 236 c 1,31,-1
 1650 205 l 1,32,33
 1595 89 1595 89 1524.5 32 c 128,-1,34
 1454 -25 1454 -25 1386 -25 c 0,35,36
 1348 -25 1348 -25 1315 -9 c 128,-1,37
 1282 7 1282 7 1257.5 39 c 128,-1,38
 1233 71 1233 71 1218.5 120.5 c 128,-1,39
 1204 170 1204 170 1204 236 c 0,40,41
 1204 309 1204 309 1215.5 393.5 c 128,-1,42
 1227 478 1227 478 1246 569.5 c 128,-1,43
 1265 661 1265 661 1288 756.5 c 128,-1,44
 1311 852 1311 852 1335 948 c 1,45,46
 1316 905 1316 905 1290.5 840.5 c 128,-1,47
 1265 776 1265 776 1233.5 699.5 c 128,-1,48
 1202 623 1202 623 1164 539.5 c 128,-1,49
 1126 456 1126 456 1082.5 375.5 c 128,-1,50
 1039 295 1039 295 990 222.5 c 128,-1,51
 941 150 941 150 886.5 95 c 128,-1,52
 832 40 832 40 772.5 7.5 c 128,-1,53
 713 -25 713 -25 649 -25 c 0,54,55
 604 -25 604 -25 571 -8 c 128,-1,56
 538 9 538 9 515.5 38 c 128,-1,57
 493 67 493 67 482 107 c 128,-1,58
 471 147 471 147 471 193 c 0,59,60
 471 269 471 269 483.5 348 c 128,-1,61
 496 427 496 427 515.5 507 c 128,-1,62
 535 587 535 587 557 668.5 c 128,-1,63
 579 750 579 750 598.5 831.5 c 128,-1,64
 618 913 618 913 630.5 994 c 128,-1,65
 643 1075 643 1075 643 1155 c 0,66,67
 643 1203 643 1203 630.5 1246 c 128,-1,68
 618 1289 618 1289 593 1320.5 c 128,-1,69
 568 1352 568 1352 529.5 1370.5 c 128,-1,70
 491 1389 491 1389 440 1389 c 0,71,72
 373 1389 373 1389 318.5 1357.5 c 128,-1,73
 264 1326 264 1326 222 1274.5 c 128,-1,74
 180 1223 180 1223 150 1157 c 128,-1,75
 120 1091 120 1091 100.5 1022.5 c 128,-1,76
 81 954 81 954 72 888 c 128,-1,77
 63 822 63 822 63 770 c 0,78,79
 63 645 63 645 92.5 522.5 c 128,-1,80
 122 400 122 400 188 291 c 1,81,-1
 149 258 l 1,82,83
 114 314 114 314 87.5 377 c 128,-1,84
 61 440 61 440 44 505.5 c 128,-1,85
 27 571 27 571 18.5 636.5 c 128,-1,86
 10 702 10 702 10 764 c 0,87,88
 10 831 10 831 20.5 907.5 c 128,-1,89
 31 984 31 984 54 1059 c 128,-1,90
 77 1134 77 1134 113 1203 c 128,-1,91
 149 1272 149 1272 200 1324.5 c 128,-1,92
 251 1377 251 1377 317.5 1408.5 c 128,-1,93
 384 1440 384 1440 469 1440 c 0,94,95
 557 1440 557 1440 617.5 1406 c 128,-1,96
 678 1372 678 1372 715.5 1316.5 c 128,-1,97
 753 1261 753 1261 769.5 1190.5 c 128,-1,98
 786 1120 786 1120 786 1047 c 0,0,1
EndSplineSet
EndChar

StartChar: N
Encoding: 78 78 47
Width: 1614
Flags: W
LayerCount: 2
Fore
SplineSet
1573 240 m 1,0,1
 1548 177 1548 177 1514 128 c 128,-1,2
 1480 79 1480 79 1442 45.5 c 128,-1,3
 1404 12 1404 12 1363.5 -5.5 c 128,-1,4
 1323 -23 1323 -23 1285 -23 c 0,5,6
 1263 -23 1263 -23 1242.5 -13 c 128,-1,7
 1222 -3 1222 -3 1206 17.5 c 128,-1,8
 1190 38 1190 38 1180 69 c 128,-1,9
 1170 100 1170 100 1170 141 c 0,10,11
 1170 199 1170 199 1190 282.5 c 128,-1,12
 1210 366 1210 366 1239.5 464 c 128,-1,13
 1269 562 1269 562 1304 667.5 c 128,-1,14
 1339 773 1339 773 1368.5 874 c 128,-1,15
 1398 975 1398 975 1418 1065 c 128,-1,16
 1438 1155 1438 1155 1438 1221 c 0,17,18
 1438 1276 1438 1276 1424.5 1307.5 c 128,-1,19
 1411 1339 1411 1339 1377 1339 c 0,20,21
 1333 1339 1333 1339 1284 1301.5 c 128,-1,22
 1235 1264 1235 1264 1184 1199.5 c 128,-1,23
 1133 1135 1133 1135 1081 1049.5 c 128,-1,24
 1029 964 1029 964 979 867.5 c 128,-1,25
 929 771 929 771 881.5 669.5 c 128,-1,26
 834 568 834 568 792.5 471.5 c 128,-1,27
 751 375 751 375 715.5 289.5 c 128,-1,28
 680 204 680 204 654.5 139.5 c 128,-1,29
 629 75 629 75 613.5 37.5 c 128,-1,30
 598 0 598 0 596 0 c 2,31,-1
 410 0 l 1,32,-1
 514 293 l 2,33,34
 524 322 524 322 542 373 c 128,-1,35
 560 424 560 424 581 489.5 c 128,-1,36
 602 555 602 555 623.5 631 c 128,-1,37
 645 707 645 707 662.5 786 c 128,-1,38
 680 865 680 865 691.5 943.5 c 128,-1,39
 703 1022 703 1022 703 1092 c 0,40,41
 703 1152 703 1152 692.5 1202.5 c 128,-1,42
 682 1253 682 1253 658 1290.5 c 128,-1,43
 634 1328 634 1328 594 1349 c 128,-1,44
 554 1370 554 1370 496 1370 c 0,45,46
 429 1370 429 1370 374.5 1339.5 c 128,-1,47
 320 1309 320 1309 278 1259 c 128,-1,48
 236 1209 236 1209 206 1145.5 c 128,-1,49
 176 1082 176 1082 156.5 1015 c 128,-1,50
 137 948 137 948 128 884 c 128,-1,51
 119 820 119 820 119 770 c 0,52,53
 119 645 119 645 148.5 522.5 c 128,-1,54
 178 400 178 400 244 291 c 1,55,-1
 205 258 l 1,56,57
 170 314 170 314 143.5 377 c 128,-1,58
 117 440 117 440 100 505.5 c 128,-1,59
 83 571 83 571 74.5 636.5 c 128,-1,60
 66 702 66 702 66 764 c 0,61,62
 66 831 66 831 76.5 907.5 c 128,-1,63
 87 984 87 984 110 1059.5 c 128,-1,64
 133 1135 133 1135 169 1204 c 128,-1,65
 205 1273 205 1273 256 1326 c 128,-1,66
 307 1379 307 1379 373.5 1410.5 c 128,-1,67
 440 1442 440 1442 525 1442 c 0,68,69
 608 1442 608 1442 665.5 1408 c 128,-1,70
 723 1374 723 1374 758.5 1319 c 128,-1,71
 794 1264 794 1264 810 1194 c 128,-1,72
 826 1124 826 1124 826 1051 c 0,73,74
 826 994 826 994 819.5 929.5 c 128,-1,75
 813 865 813 865 803 801.5 c 128,-1,76
 793 738 793 738 781 679.5 c 128,-1,77
 769 621 769 621 758.5 575.5 c 128,-1,78
 748 530 748 530 740.5 500.5 c 128,-1,79
 733 471 733 471 732 467 c 1,80,81
 733 471 733 471 741 490.5 c 128,-1,82
 749 510 749 510 759 535 c 128,-1,83
 769 560 769 560 780 585.5 c 128,-1,84
 791 611 791 611 799 627 c 0,85,86
 818 666 818 666 843 722 c 128,-1,87
 868 778 868 778 898.5 842.5 c 128,-1,88
 929 907 929 907 965 976.5 c 128,-1,89
 1001 1046 1001 1046 1041 1112.5 c 128,-1,90
 1081 1179 1081 1179 1125.5 1239 c 128,-1,91
 1170 1299 1170 1299 1217.5 1344 c 128,-1,92
 1265 1389 1265 1389 1316 1415.5 c 128,-1,93
 1367 1442 1367 1442 1420 1442 c 0,94,95
 1464 1442 1464 1442 1497.5 1425.5 c 128,-1,96
 1531 1409 1531 1409 1553.5 1379.5 c 128,-1,97
 1576 1350 1576 1350 1587 1310.5 c 128,-1,98
 1598 1271 1598 1271 1598 1225 c 0,99,100
 1598 1142 1598 1142 1578.5 1045 c 128,-1,101
 1559 948 1559 948 1529.5 847.5 c 128,-1,102
 1500 747 1500 747 1466 647 c 128,-1,103
 1432 547 1432 547 1402.5 457.5 c 128,-1,104
 1373 368 1373 368 1353.5 292.5 c 128,-1,105
 1334 217 1334 217 1334 166 c 0,106,107
 1334 134 1334 134 1341 114 c 128,-1,108
 1348 94 1348 94 1362 94 c 0,109,110
 1379 94 1379 94 1404 118 c 128,-1,111
 1429 142 1429 142 1453 174 c 128,-1,112
 1477 206 1477 206 1496.5 237 c 128,-1,113
 1516 268 1516 268 1522 283 c 1,114,-1
 1573 240 l 1,0,1
EndSplineSet
EndChar

StartChar: fi
Encoding: 64257 64257 48
Width: 952
Flags: W
LayerCount: 2
Fore
SplineSet
830 793 m 0,0,1
 856 793 856 793 875 802.5 c 128,-1,2
 894 812 894 812 907 827.5 c 128,-1,3
 920 843 920 843 926 862.5 c 128,-1,4
 932 882 932 882 932 901 c 0,5,6
 932 919 932 919 926.5 936.5 c 128,-1,7
 921 954 921 954 910.5 967.5 c 128,-1,8
 900 981 900 981 884.5 989 c 128,-1,9
 869 997 869 997 848 997 c 0,10,11
 821 997 821 997 800.5 987.5 c 128,-1,12
 780 978 780 978 766.5 962.5 c 128,-1,13
 753 947 753 947 746.5 927.5 c 128,-1,14
 740 908 740 908 740 887 c 0,15,16
 740 869 740 869 745.5 852.5 c 128,-1,17
 751 836 751 836 762 822.5 c 128,-1,18
 773 809 773 809 790 801 c 128,-1,19
 807 793 807 793 830 793 c 0,0,1
355 516 m 1,20,-1
 330 414 l 2,21,22
 307 322 307 322 285 234.5 c 128,-1,23
 263 147 263 147 237 69.5 c 128,-1,24
 211 -8 211 -8 179 -73 c 128,-1,25
 147 -138 147 -138 104 -185 c 128,-1,26
 61 -232 61 -232 6 -258.5 c 128,-1,27
 -49 -285 -49 -285 -121 -285 c 0,28,29
 -170 -285 -170 -285 -191.5 -262 c 128,-1,30
 -213 -239 -213 -239 -213 -211 c 256,31,32
 -213 -183 -213 -183 -193.5 -160 c 128,-1,33
 -174 -137 -174 -137 -139 -137 c 0,34,35
 -113 -137 -113 -137 -92 -150.5 c 128,-1,36
 -71 -164 -71 -164 -71 -188 c 0,37,38
 -71 -196 -71 -196 -76 -212 c 128,-1,39
 -81 -228 -81 -228 -86 -236 c 1,40,41
 -53 -231 -53 -231 -25.5 -195.5 c 128,-1,42
 2 -160 2 -160 24.5 -105.5 c 128,-1,43
 47 -51 47 -51 65.5 17 c 128,-1,44
 84 85 84 85 99.5 155.5 c 128,-1,45
 115 226 115 226 128 293.5 c 128,-1,46
 141 361 141 361 154 414 c 2,47,-1
 178 516 l 1,48,-1
 -10 516 l 1,49,-1
 6 582 l 1,50,-1
 193 582 l 1,51,52
 221 698 221 698 253.5 805 c 128,-1,53
 286 912 286 912 325 1004 c 128,-1,54
 364 1096 364 1096 411 1171.5 c 128,-1,55
 458 1247 458 1247 515 1300.5 c 128,-1,56
 572 1354 572 1354 640 1383.5 c 128,-1,57
 708 1413 708 1413 791 1413 c 0,58,59
 826 1413 826 1413 861.5 1406.5 c 128,-1,60
 897 1400 897 1400 925.5 1383 c 128,-1,61
 954 1366 954 1366 971.5 1337.5 c 128,-1,62
 989 1309 989 1309 989 1266 c 0,63,64
 989 1242 989 1242 980 1223.5 c 128,-1,65
 971 1205 971 1205 956 1192.5 c 128,-1,66
 941 1180 941 1180 922 1173.5 c 128,-1,67
 903 1167 903 1167 883 1167 c 0,68,69
 864 1167 864 1167 846 1173 c 128,-1,70
 828 1179 828 1179 814 1190.5 c 128,-1,71
 800 1202 800 1202 791.5 1219.5 c 128,-1,72
 783 1237 783 1237 783 1260 c 0,73,74
 783 1293 783 1293 809 1331 c 1,75,76
 792 1337 792 1337 776.5 1342.5 c 128,-1,77
 761 1348 761 1348 746 1348 c 0,78,79
 702 1348 702 1348 665 1319 c 128,-1,80
 628 1290 628 1290 598 1248 c 128,-1,81
 568 1206 568 1206 546 1158.5 c 128,-1,82
 524 1111 524 1111 510 1073 c 0,83,84
 467 956 467 956 432.5 831.5 c 128,-1,85
 398 707 398 707 369 582 c 1,86,-1
 721 582 l 2,87,88
 746 582 746 582 762 574 c 128,-1,89
 778 566 778 566 787.5 553 c 128,-1,90
 797 540 797 540 801 522.5 c 128,-1,91
 805 505 805 505 805 486 c 0,92,93
 805 457 805 457 798.5 428 c 128,-1,94
 792 399 792 399 785 379 c 2,95,-1
 714 178 l 1,96,97
 709 167 709 167 707.5 157.5 c 128,-1,98
 706 148 706 148 706 141 c 0,99,100
 706 118 706 118 723 118 c 0,101,102
 750 118 750 118 789 166 c 2,103,-1
 850 242 l 1,104,-1
 892 204 l 1,105,106
 863 150 863 150 828 108.5 c 128,-1,107
 793 67 793 67 758.5 39.5 c 128,-1,108
 724 12 724 12 692.5 -2 c 128,-1,109
 661 -16 661 -16 640 -16 c 0,110,111
 620 -16 620 -16 604.5 -8.5 c 128,-1,112
 589 -1 589 -1 578 12 c 128,-1,113
 567 25 567 25 561.5 41.5 c 128,-1,114
 556 58 556 58 556 75 c 0,115,116
 556 109 556 109 564.5 149.5 c 128,-1,117
 573 190 573 190 586.5 232 c 128,-1,118
 600 274 600 274 615 315 c 128,-1,119
 630 356 630 356 643.5 390.5 c 128,-1,120
 657 425 657 425 665.5 451 c 128,-1,121
 674 477 674 477 674 489 c 0,122,123
 674 516 674 516 660 516 c 2,124,-1
 355 516 l 1,20,-1
EndSplineSet
Ligature2: "'liga' Standard Ligatures in Latin lookup 0 subtable" f i
EndChar

StartChar: X
Encoding: 88 88 49
Width: 1571
Flags: W
LayerCount: 2
Fore
SplineSet
701 733 m 1,0,1
 713 826 713 826 713 915 c 0,2,3
 713 1002 713 1002 704.5 1086 c 128,-1,4
 696 1170 696 1170 673 1235.5 c 128,-1,5
 650 1301 650 1301 609.5 1341.5 c 128,-1,6
 569 1382 569 1382 504 1382 c 0,7,8
 473 1382 473 1382 433.5 1369 c 128,-1,9
 394 1356 394 1356 353 1328 c 128,-1,10
 312 1300 312 1300 272.5 1254 c 128,-1,11
 233 1208 233 1208 202.5 1143 c 128,-1,12
 172 1078 172 1078 153 991 c 128,-1,13
 134 904 134 904 134 793 c 0,14,15
 134 747 134 747 137.5 696.5 c 128,-1,16
 141 646 141 646 149 591 c 1,17,-1
 95 576 l 1,18,19
 81 643 81 643 75 705 c 128,-1,20
 69 767 69 767 69 825 c 0,21,22
 69 975 69 975 107.5 1090 c 128,-1,23
 146 1205 146 1205 210 1283.5 c 128,-1,24
 274 1362 274 1362 358 1402 c 128,-1,25
 442 1442 442 1442 534 1442 c 0,26,27
 638 1442 638 1442 708 1394.5 c 128,-1,28
 778 1347 778 1347 820.5 1267.5 c 128,-1,29
 863 1188 863 1188 881 1083.5 c 128,-1,30
 899 979 899 979 899 866 c 1,31,32
 941 986 941 986 1004 1091 c 128,-1,33
 1067 1196 1067 1196 1147.5 1274 c 128,-1,34
 1228 1352 1228 1352 1324 1397 c 128,-1,35
 1420 1442 1420 1442 1528 1442 c 0,36,37
 1570 1442 1570 1442 1602.5 1429 c 128,-1,38
 1635 1416 1635 1416 1657 1395 c 128,-1,39
 1679 1374 1679 1374 1690.5 1346 c 128,-1,40
 1702 1318 1702 1318 1702 1288 c 0,41,42
 1702 1263 1702 1263 1695 1238 c 128,-1,43
 1688 1213 1688 1213 1672 1193.5 c 128,-1,44
 1656 1174 1656 1174 1629.5 1161.5 c 128,-1,45
 1603 1149 1603 1149 1563 1149 c 0,46,47
 1532 1149 1532 1149 1505 1162.5 c 128,-1,48
 1478 1176 1478 1176 1456.5 1201.5 c 128,-1,49
 1435 1227 1435 1227 1419.5 1262 c 128,-1,50
 1404 1297 1404 1297 1397 1341 c 1,51,52
 1312 1314 1312 1314 1236 1253.5 c 128,-1,53
 1160 1193 1160 1193 1099.5 1111 c 128,-1,54
 1039 1029 1039 1029 996.5 931.5 c 128,-1,55
 954 834 954 834 937 733 c 1,56,-1
 1288 733 l 1,57,-1
 1317 674 l 1,58,-1
 929 674 l 1,59,60
 926 641 926 641 926 609 c 0,61,62
 926 489 926 489 941 394 c 128,-1,63
 956 299 956 299 985.5 232 c 128,-1,64
 1015 165 1015 165 1058 129.5 c 128,-1,65
 1101 94 1101 94 1157 94 c 0,66,67
 1196 94 1196 94 1239 116.5 c 128,-1,68
 1282 139 1282 139 1327 185.5 c 128,-1,69
 1372 232 1372 232 1418.5 303.5 c 128,-1,70
 1465 375 1465 375 1510 473 c 1,71,-1
 1553 436 l 1,72,73
 1524 334 1524 334 1474 249 c 128,-1,74
 1424 164 1424 164 1361.5 103.5 c 128,-1,75
 1299 43 1299 43 1229 9 c 128,-1,76
 1159 -25 1159 -25 1092 -25 c 0,77,78
 1024 -25 1024 -25 962.5 7 c 128,-1,79
 901 39 901 39 854 108 c 128,-1,80
 807 177 807 177 778.5 285 c 128,-1,81
 750 393 750 393 748 545 c 1,82,83
 709 398 709 398 648 290.5 c 128,-1,84
 587 183 587 183 509.5 113.5 c 128,-1,85
 432 44 432 44 340 10.5 c 128,-1,86
 248 -23 248 -23 146 -23 c 0,87,88
 102 -23 102 -23 70.5 -9.5 c 128,-1,89
 39 4 39 4 19 25.5 c 128,-1,90
 -1 47 -1 47 -10.5 74.5 c 128,-1,91
 -20 102 -20 102 -20 131 c 0,92,93
 -20 157 -20 157 -11.5 182 c 128,-1,94
 -3 207 -3 207 13.5 226 c 128,-1,95
 30 245 30 245 53.5 256.5 c 128,-1,96
 77 268 77 268 107 268 c 0,97,98
 164 268 164 268 196.5 247.5 c 128,-1,99
 229 227 229 227 246 196.5 c 128,-1,100
 263 166 263 166 269.5 131 c 128,-1,101
 276 96 276 96 281 66 c 1,102,103
 365 79 365 79 433 135 c 128,-1,104
 501 191 501 191 552.5 274.5 c 128,-1,105
 604 358 604 358 639 461.5 c 128,-1,106
 674 565 674 565 692 674 c 1,107,-1
 264 674 l 1,108,-1
 318 733 l 1,109,-1
 701 733 l 1,0,1
EndSplineSet
EndChar

StartChar: I
Encoding: 73 73 50
Width: 1323
Flags: W
LayerCount: 2
Fore
SplineSet
1518 1376 m 1,0,1
 1417 1272 1417 1272 1358.5 1172.5 c 128,-1,2
 1300 1073 1300 1073 1269.5 986.5 c 128,-1,3
 1239 900 1239 900 1230.5 831 c 128,-1,4
 1222 762 1222 762 1221 719 c 1,5,-1
 1411 719 l 1,6,-1
 1411 643 l 1,7,-1
 1217 643 l 1,8,9
 1208 525 1208 525 1172 429 c 128,-1,10
 1136 333 1136 333 1078.5 257.5 c 128,-1,11
 1021 182 1021 182 945.5 127 c 128,-1,12
 870 72 870 72 782.5 36 c 128,-1,13
 695 0 695 0 598.5 -17.5 c 128,-1,14
 502 -35 502 -35 403 -35 c 0,15,16
 293 -35 293 -35 210.5 -11.5 c 128,-1,17
 128 12 128 12 73.5 51.5 c 128,-1,18
 19 91 19 91 -8 144 c 128,-1,19
 -35 197 -35 197 -35 256 c 0,20,21
 -35 310 -35 310 -11 361.5 c 128,-1,22
 13 413 13 413 61.5 453.5 c 128,-1,23
 110 494 110 494 182.5 518.5 c 128,-1,24
 255 543 255 543 352 543 c 0,25,26
 368 543 368 543 384.5 543 c 128,-1,27
 401 543 401 543 420 541 c 1,28,29
 385 618 385 618 368.5 692 c 128,-1,30
 352 766 352 766 352 836 c 0,31,32
 352 967 352 967 403.5 1078 c 128,-1,33
 455 1189 455 1189 546.5 1270 c 128,-1,34
 638 1351 638 1351 763.5 1396.5 c 128,-1,35
 889 1442 889 1442 1036 1442 c 0,36,37
 1097 1442 1097 1442 1157.5 1431.5 c 128,-1,38
 1218 1421 1218 1421 1278 1409 c 128,-1,39
 1338 1397 1338 1397 1397.5 1386.5 c 128,-1,40
 1457 1376 1457 1376 1518 1376 c 1,0,1
741 465 m 1,41,-1
 721 403 l 1,42,43
 673 419 673 419 628 432 c 128,-1,44
 583 445 583 445 541 453 c 1,45,46
 553 430 553 430 574 396.5 c 128,-1,47
 595 363 595 363 627 315 c 1,48,-1
 559 293 l 1,49,-1
 455 465 l 1,50,51
 411 471 411 471 373 471 c 0,52,53
 296 471 296 471 240.5 453.5 c 128,-1,54
 185 436 185 436 149 407.5 c 128,-1,55
 113 379 113 379 95.5 342 c 128,-1,56
 78 305 78 305 78 266 c 0,57,58
 78 221 78 221 99.5 179 c 128,-1,59
 121 137 121 137 161.5 104.5 c 128,-1,60
 202 72 202 72 259.5 52.5 c 128,-1,61
 317 33 317 33 390 33 c 0,62,63
 520 33 520 33 629 64 c 128,-1,64
 738 95 738 95 821.5 167 c 128,-1,65
 905 239 905 239 960 356 c 128,-1,66
 1015 473 1015 473 1038 645 c 1,67,-1
 823 645 l 1,68,-1
 823 719 l 1,69,-1
 1045 719 l 1,70,71
 1054 799 1054 799 1075.5 869 c 128,-1,72
 1097 939 1097 939 1124 997.5 c 128,-1,73
 1151 1056 1151 1056 1180 1102 c 128,-1,74
 1209 1148 1209 1148 1233 1180.5 c 128,-1,75
 1257 1213 1257 1213 1272.5 1230.5 c 128,-1,76
 1288 1248 1288 1248 1288 1249 c 0,77,78
 1214 1280 1214 1280 1131 1296.5 c 128,-1,79
 1048 1313 1048 1313 965 1313 c 0,80,81
 840 1313 840 1313 740 1278 c 128,-1,82
 640 1243 640 1243 570 1180 c 128,-1,83
 500 1117 500 1117 462 1029.5 c 128,-1,84
 424 942 424 942 424 838 c 0,85,86
 424 768 424 768 443 691 c 128,-1,87
 462 614 462 614 504 532 c 1,88,-1
 741 465 l 1,41,-1
EndSplineSet
EndChar

StartChar: J
Encoding: 74 74 51
Width: 1329
Flags: W
LayerCount: 2
Fore
SplineSet
1520 1376 m 1,0,1
 1419 1272 1419 1272 1360.5 1172.5 c 128,-1,2
 1302 1073 1302 1073 1271.5 986.5 c 128,-1,3
 1241 900 1241 900 1232.5 831 c 128,-1,4
 1224 762 1224 762 1223 719 c 1,5,-1
 1413 719 l 1,6,-1
 1413 643 l 1,7,-1
 1219 643 l 1,8,9
 1210 479 1210 479 1171.5 346.5 c 128,-1,10
 1133 214 1133 214 1072 110.5 c 128,-1,11
 1011 7 1011 7 930.5 -68.5 c 128,-1,12
 850 -144 850 -144 757 -193 c 128,-1,13
 664 -242 664 -242 562 -265.5 c 128,-1,14
 460 -289 460 -289 356 -289 c 0,15,16
 245 -289 245 -289 166 -260.5 c 128,-1,17
 87 -232 87 -232 36 -184.5 c 128,-1,18
 -15 -137 -15 -137 -39 -75.5 c 128,-1,19
 -63 -14 -63 -14 -63 53 c 0,20,21
 -63 133 -63 133 -30.5 213.5 c 128,-1,22
 2 294 2 294 63 358.5 c 128,-1,23
 124 423 124 423 210 463.5 c 128,-1,24
 296 504 296 504 404 504 c 0,25,26
 418 504 418 504 432.5 503 c 128,-1,27
 447 502 447 502 463 500 c 1,28,29
 406 586 406 586 380 671.5 c 128,-1,30
 354 757 354 757 354 836 c 0,31,32
 354 967 354 967 405.5 1078 c 128,-1,33
 457 1189 457 1189 548.5 1270 c 128,-1,34
 640 1351 640 1351 765.5 1396.5 c 128,-1,35
 891 1442 891 1442 1038 1442 c 0,36,37
 1099 1442 1099 1442 1159.5 1431.5 c 128,-1,38
 1220 1421 1220 1421 1280 1409 c 128,-1,39
 1340 1397 1340 1397 1399.5 1386.5 c 128,-1,40
 1459 1376 1459 1376 1520 1376 c 1,0,1
784 424 m 1,41,-1
 764 362 l 1,42,43
 718 378 718 378 672 391 c 128,-1,44
 626 404 626 404 584 412 c 1,45,46
 596 389 596 389 617 355.5 c 128,-1,47
 638 322 638 322 670 274 c 1,48,-1
 602 252 l 1,49,-1
 498 424 l 1,50,51
 476 429 476 429 454 430.5 c 128,-1,52
 432 432 432 432 412 432 c 0,53,54
 326 432 326 432 258 399 c 128,-1,55
 190 366 190 366 143 312.5 c 128,-1,56
 96 259 96 259 70.5 192.5 c 128,-1,57
 45 126 45 126 45 59 c 0,58,59
 45 4 45 4 63.5 -47 c 128,-1,60
 82 -98 82 -98 121 -137 c 128,-1,61
 160 -176 160 -176 221 -199.5 c 128,-1,62
 282 -223 282 -223 367 -223 c 0,63,64
 501 -223 501 -223 614 -176 c 128,-1,65
 727 -129 727 -129 814 -25.5 c 128,-1,66
 901 78 901 78 958.5 243 c 128,-1,67
 1016 408 1016 408 1040 645 c 1,68,-1
 825 645 l 1,69,-1
 825 719 l 1,70,-1
 1047 719 l 1,71,72
 1056 799 1056 799 1077.5 869 c 128,-1,73
 1099 939 1099 939 1126 997.5 c 128,-1,74
 1153 1056 1153 1056 1182 1102 c 128,-1,75
 1211 1148 1211 1148 1235 1180.5 c 128,-1,76
 1259 1213 1259 1213 1274.5 1230.5 c 128,-1,77
 1290 1248 1290 1248 1290 1249 c 0,78,79
 1216 1280 1216 1280 1133 1296.5 c 128,-1,80
 1050 1313 1050 1313 967 1313 c 0,81,82
 842 1313 842 1313 742 1278 c 128,-1,83
 642 1243 642 1243 572 1180 c 128,-1,84
 502 1117 502 1117 464 1029.5 c 128,-1,85
 426 942 426 942 426 838 c 0,86,87
 426 759 426 759 455 672.5 c 128,-1,88
 484 586 484 586 547 492 c 1,89,-1
 784 424 l 1,41,-1
EndSplineSet
EndChar

StartChar: j
Encoding: 106 106 52
Width: 423
Flags: W
LayerCount: 2
Fore
SplineSet
338 389 m 0,0,1
 309 292 309 292 286.5 208.5 c 128,-1,2
 264 125 264 125 241 56.5 c 128,-1,3
 218 -12 218 -12 192 -64.5 c 128,-1,4
 166 -117 166 -117 129.5 -153 c 128,-1,5
 93 -189 93 -189 43.5 -207.5 c 128,-1,6
 -6 -226 -6 -226 -75 -226 c 0,7,8
 -110 -226 -110 -226 -134 -218.5 c 128,-1,9
 -158 -211 -158 -211 -174 -198.5 c 128,-1,10
 -190 -186 -190 -186 -197 -170.5 c 128,-1,11
 -204 -155 -204 -155 -204 -140 c 0,12,13
 -204 -114 -204 -114 -186 -94.5 c 128,-1,14
 -168 -75 -168 -75 -137 -75 c 0,15,16
 -103 -75 -103 -75 -88 -91 c 128,-1,17
 -73 -107 -73 -107 -73 -130 c 0,18,19
 -73 -141 -73 -141 -74 -151.5 c 128,-1,20
 -75 -162 -75 -162 -83 -173 c 1,21,22
 -46 -169 -46 -169 -19 -143.5 c 128,-1,23
 8 -118 8 -118 28.5 -77.5 c 128,-1,24
 49 -37 49 -37 65 16 c 128,-1,25
 81 69 81 69 98 129 c 0,26,27
 116 195 116 195 140.5 267.5 c 128,-1,28
 165 340 165 340 188 422 c 1,29,30
 188 433 188 433 185 444 c 128,-1,31
 182 455 182 455 174 455 c 0,32,33
 162 455 162 455 148 442 c 128,-1,34
 134 429 134 429 119 409 c 128,-1,35
 104 389 104 389 89 364.5 c 128,-1,36
 74 340 74 340 61 317 c 1,37,-1
 -6 356 l 1,38,39
 36 428 36 428 74 475.5 c 128,-1,40
 112 523 112 523 145.5 551.5 c 128,-1,41
 179 580 179 580 208.5 592 c 128,-1,42
 238 604 238 604 264 604 c 0,43,44
 291 604 291 604 309 596 c 128,-1,45
 327 588 327 588 338 575 c 128,-1,46
 349 562 349 562 353.5 544.5 c 128,-1,47
 358 527 358 527 358 508 c 0,48,49
 358 478 358 478 352 446.5 c 128,-1,50
 346 415 346 415 338 389 c 0,0,1
367 793 m 0,51,52
 344 793 344 793 327 801 c 128,-1,53
 310 809 310 809 299 822.5 c 128,-1,54
 288 836 288 836 282.5 852.5 c 128,-1,55
 277 869 277 869 277 887 c 0,56,57
 277 908 277 908 283.5 927.5 c 128,-1,58
 290 947 290 947 303.5 962.5 c 128,-1,59
 317 978 317 978 337.5 987.5 c 128,-1,60
 358 997 358 997 385 997 c 0,61,62
 406 997 406 997 421.5 989 c 128,-1,63
 437 981 437 981 447.5 967.5 c 128,-1,64
 458 954 458 954 463.5 936.5 c 128,-1,65
 469 919 469 919 469 901 c 0,66,67
 469 882 469 882 463 862.5 c 128,-1,68
 457 843 457 843 444 827.5 c 128,-1,69
 431 812 431 812 412 802.5 c 128,-1,70
 393 793 393 793 367 793 c 0,51,52
EndSplineSet
EndChar

StartChar: period
Encoding: 46 46 53
Width: 337
Flags: W
LayerCount: 2
Fore
SplineSet
280 86 m 0,0,1
 280 60 280 60 270.5 39.5 c 128,-1,2
 261 19 261 19 246 5 c 128,-1,3
 231 -9 231 -9 211.5 -16 c 128,-1,4
 192 -23 192 -23 172 -23 c 0,5,6
 136 -23 136 -23 107.5 0.5 c 128,-1,7
 79 24 79 24 79 72 c 0,8,9
 79 98 79 98 89 118 c 128,-1,10
 99 138 99 138 114.5 152 c 128,-1,11
 130 166 130 166 150 173 c 128,-1,12
 170 180 170 180 190 180 c 0,13,14
 208 180 208 180 224 174.5 c 128,-1,15
 240 169 240 169 252.5 157.5 c 128,-1,16
 265 146 265 146 272.5 128.5 c 128,-1,17
 280 111 280 111 280 86 c 0,0,1
EndSplineSet
EndChar

StartChar: dieresis
Encoding: 168 168 54
Width: 752
Flags: W
LayerCount: 2
Fore
SplineSet
312 780 m 0,0,1
 312 754 312 754 302.5 734 c 128,-1,2
 293 714 293 714 277.5 700 c 128,-1,3
 262 686 262 686 242.5 679 c 128,-1,4
 223 672 223 672 203 672 c 0,5,6
 185 672 185 672 168.5 677.5 c 128,-1,7
 152 683 152 683 139.5 695 c 128,-1,8
 127 707 127 707 119 724.5 c 128,-1,9
 111 742 111 742 111 766 c 0,10,11
 111 792 111 792 120.5 812.5 c 128,-1,12
 130 833 130 833 146 846.5 c 128,-1,13
 162 860 162 860 181.5 867 c 128,-1,14
 201 874 201 874 221 874 c 0,15,16
 239 874 239 874 255 868.5 c 128,-1,17
 271 863 271 863 284 851.5 c 128,-1,18
 297 840 297 840 304.5 822.5 c 128,-1,19
 312 805 312 805 312 780 c 0,0,1
674 780 m 0,20,21
 674 754 674 754 664.5 734 c 128,-1,22
 655 714 655 714 639.5 700 c 128,-1,23
 624 686 624 686 604.5 679 c 128,-1,24
 585 672 585 672 565 672 c 0,25,26
 547 672 547 672 530.5 677.5 c 128,-1,27
 514 683 514 683 501.5 695 c 128,-1,28
 489 707 489 707 481 724.5 c 128,-1,29
 473 742 473 742 473 766 c 0,30,31
 473 792 473 792 483 812.5 c 128,-1,32
 493 833 493 833 508.5 846.5 c 128,-1,33
 524 860 524 860 544 867 c 128,-1,34
 564 874 564 874 584 874 c 0,35,36
 602 874 602 874 618 868.5 c 128,-1,37
 634 863 634 863 646.5 851.5 c 128,-1,38
 659 840 659 840 666.5 822.5 c 128,-1,39
 674 805 674 805 674 780 c 0,20,21
EndSplineSet
EndChar

StartChar: acute
Encoding: 180 180 55
Width: 492
Flags: W
LayerCount: 2
Fore
SplineSet
94 672 m 1,0,1
 105 688 105 688 119.5 709.5 c 128,-1,2
 134 731 134 731 149.5 755 c 128,-1,3
 165 779 165 779 181.5 805 c 128,-1,4
 198 831 198 831 213 855 c 0,5,6
 249 911 249 911 287 973 c 1,7,-1
 457 973 l 1,8,9
 437 954 437 954 398.5 914 c 128,-1,10
 360 874 360 874 315.5 828.5 c 128,-1,11
 271 783 271 783 226 740 c 128,-1,12
 181 697 181 697 148 672 c 1,13,-1
 94 672 l 1,0,1
EndSplineSet
EndChar

StartChar: grave
Encoding: 96 96 56
Width: 512
Flags: W
LayerCount: 2
Fore
SplineSet
391 672 m 1,0,1
 375 688 375 688 353.5 709.5 c 128,-1,2
 332 731 332 731 307 755 c 128,-1,3
 282 779 282 779 255 805 c 128,-1,4
 228 831 228 831 203 855 c 0,5,6
 143 911 143 911 78 973 c 1,7,-1
 248 973 l 1,8,9
 256 960 256 960 270.5 937.5 c 128,-1,10
 285 915 285 915 303 887.5 c 128,-1,11
 321 860 321 860 341 829.5 c 128,-1,12
 361 799 361 799 380 769.5 c 128,-1,13
 399 740 399 740 416 714.5 c 128,-1,14
 433 689 433 689 444 672 c 1,15,-1
 391 672 l 1,0,1
EndSplineSet
EndChar

StartChar: ring
Encoding: 730 730 57
Width: 537
Flags: W
LayerCount: 2
Fore
SplineSet
399 866 m 0,0,1
 399 895 399 895 390.5 916 c 128,-1,2
 382 937 382 937 368 950.5 c 128,-1,3
 354 964 354 964 336 970.5 c 128,-1,4
 318 977 318 977 299 977 c 0,5,6
 276 977 276 977 254 968.5 c 128,-1,7
 232 960 232 960 215 943.5 c 128,-1,8
 198 927 198 927 187 903.5 c 128,-1,9
 176 880 176 880 176 850 c 0,10,11
 176 821 176 821 185 800.5 c 128,-1,12
 194 780 194 780 208 766 c 128,-1,13
 222 752 222 752 240.5 745.5 c 128,-1,14
 259 739 259 739 278 739 c 0,15,16
 300 739 300 739 321.5 747.5 c 128,-1,17
 343 756 343 756 360.5 772.5 c 128,-1,18
 378 789 378 789 388.5 812.5 c 128,-1,19
 399 836 399 836 399 866 c 0,0,1
469 868 m 0,20,21
 469 820 469 820 452.5 784 c 128,-1,22
 436 748 436 748 409 724 c 128,-1,23
 382 700 382 700 347.5 688 c 128,-1,24
 313 676 313 676 278 676 c 0,25,26
 245 676 245 676 213.5 686.5 c 128,-1,27
 182 697 182 697 158 718 c 128,-1,28
 134 739 134 739 119 770.5 c 128,-1,29
 104 802 104 802 104 844 c 0,30,31
 104 891 104 891 121.5 927 c 128,-1,32
 139 963 139 963 167 988 c 128,-1,33
 195 1013 195 1013 231 1025.5 c 128,-1,34
 267 1038 267 1038 303 1038 c 0,35,36
 335 1038 335 1038 365 1028 c 128,-1,37
 395 1018 395 1018 418 997 c 128,-1,38
 441 976 441 976 455 944 c 128,-1,39
 469 912 469 912 469 868 c 0,20,21
EndSplineSet
EndChar

StartChar: dotlessi
Encoding: 305 305 58
Width: 484
Flags: W
LayerCount: 2
Fore
SplineSet
88 76 m 0,0,1
 88 120 88 120 102.5 174.5 c 128,-1,2
 117 229 117 229 135 280 c 128,-1,3
 153 331 153 331 167.5 371.5 c 128,-1,4
 182 412 182 412 182 428 c 256,5,6
 182 444 182 444 179 449.5 c 128,-1,7
 176 455 176 455 168 455 c 0,8,9
 156 455 156 455 142 442 c 128,-1,10
 128 429 128 429 113 409 c 128,-1,11
 98 389 98 389 83 364.5 c 128,-1,12
 68 340 68 340 55 317 c 1,13,-1
 -12 356 l 1,14,15
 30 428 30 428 68 475.5 c 128,-1,16
 106 523 106 523 139.5 551.5 c 128,-1,17
 173 580 173 580 202.5 592 c 128,-1,18
 232 604 232 604 258 604 c 0,19,20
 283 604 283 604 299.5 595.5 c 128,-1,21
 316 587 316 587 325.5 572.5 c 128,-1,22
 335 558 335 558 338.5 538.5 c 128,-1,23
 342 519 342 519 342 498 c 0,24,25
 342 473 342 473 335 446 c 128,-1,26
 328 419 328 419 322 399 c 2,27,-1
 250 193 l 2,28,29
 248 187 248 187 243.5 171.5 c 128,-1,30
 239 156 239 156 239 142 c 0,31,32
 239 131 239 131 242.5 124 c 128,-1,33
 246 117 246 117 257 117 c 0,34,35
 263 117 263 117 272 121 c 128,-1,36
 281 125 281 125 295.5 138.5 c 128,-1,37
 310 152 310 152 331 176.5 c 128,-1,38
 352 201 352 201 382 243 c 1,39,-1
 424 204 l 1,40,41
 395 150 395 150 360 108.5 c 128,-1,42
 325 67 325 67 290.5 39.5 c 128,-1,43
 256 12 256 12 225.5 -2 c 128,-1,44
 195 -16 195 -16 175 -16 c 0,45,46
 135 -16 135 -16 111.5 10 c 128,-1,47
 88 36 88 36 88 76 c 0,0,1
EndSplineSet
EndChar

StartChar: z
Encoding: 122 122 59
Width: 692
Flags: W
LayerCount: 2
Fore
SplineSet
484 442 m 1,0,1
 467 424 467 424 445.5 400.5 c 128,-1,2
 424 377 424 377 400.5 352 c 128,-1,3
 377 327 377 327 352.5 300.5 c 128,-1,4
 328 274 328 274 305 250 c 0,5,6
 250 192 250 192 193 131 c 1,7,8
 232 131 232 131 265.5 118.5 c 128,-1,9
 299 106 299 106 332 91 c 128,-1,10
 365 76 365 76 398.5 63 c 128,-1,11
 432 50 432 50 470 49 c 1,12,13
 437 77 437 77 437 123 c 0,14,15
 437 140 437 140 445.5 154.5 c 128,-1,16
 454 169 454 169 467 180 c 128,-1,17
 480 191 480 191 496.5 197 c 128,-1,18
 513 203 513 203 529 203 c 0,19,20
 547 203 547 203 563 196 c 128,-1,21
 579 189 579 189 591 177.5 c 128,-1,22
 603 166 603 166 610 150.5 c 128,-1,23
 617 135 617 135 617 117 c 0,24,25
 617 51 617 51 574.5 17.5 c 128,-1,26
 532 -16 532 -16 464 -16 c 0,27,28
 368 -16 368 -16 282 5.5 c 128,-1,29
 196 27 196 27 111 55 c 1,30,31
 98 49 98 49 84 39 c 128,-1,32
 70 29 70 29 58 20 c 0,33,34
 44 9 44 9 29 -2 c 1,35,-1
 -36 49 l 1,36,37
 -34 55 -34 55 -6.5 85.5 c 128,-1,38
 21 116 21 116 62 159 c 128,-1,39
 103 202 103 202 152 252 c 128,-1,40
 201 302 201 302 245 347.5 c 128,-1,41
 289 393 289 393 323 427.5 c 128,-1,42
 357 462 357 462 369 475 c 1,43,44
 351 483 351 483 324.5 494.5 c 128,-1,45
 298 506 298 506 270 517 c 128,-1,46
 242 528 242 528 215 535.5 c 128,-1,47
 188 543 188 543 168 543 c 1,48,-1
 158 541 l 1,49,50
 174 525 174 525 187.5 503.5 c 128,-1,51
 201 482 201 482 201 459 c 0,52,53
 201 441 201 441 191.5 426.5 c 128,-1,54
 182 412 182 412 168 402.5 c 128,-1,55
 154 393 154 393 136.5 388 c 128,-1,56
 119 383 119 383 103 383 c 0,57,58
 66 383 66 383 38.5 404 c 128,-1,59
 11 425 11 425 11 465 c 0,60,61
 11 502 11 502 26 530 c 128,-1,62
 41 558 41 558 65.5 576 c 128,-1,63
 90 594 90 594 122 603 c 128,-1,64
 154 612 154 612 189 612 c 0,65,66
 226 612 226 612 263.5 602 c 128,-1,67
 301 592 301 592 338 580.5 c 128,-1,68
 375 569 375 569 412 559 c 128,-1,69
 449 549 449 549 486 549 c 0,70,71
 515 549 515 549 545.5 557 c 128,-1,72
 576 565 576 565 593 571 c 1,73,-1
 634 512 l 1,74,75
 615 475 615 475 585.5 453.5 c 128,-1,76
 556 432 556 432 517 432 c 0,77,78
 504 432 504 432 484 442 c 1,0,1
EndSplineSet
EndChar

StartChar: q
Encoding: 113 113 60
Width: 755
Flags: W
LayerCount: 2
Fore
SplineSet
235 -461 m 1,0,1
 263 -424 263 -424 287 -367 c 128,-1,2
 311 -310 311 -310 333.5 -242 c 128,-1,3
 356 -174 356 -174 378.5 -98.5 c 128,-1,4
 401 -23 401 -23 425 51 c 1,5,6
 407 32 407 32 381 17 c 0,7,8
 359 4 359 4 328 -6 c 128,-1,9
 297 -16 297 -16 257 -16 c 0,10,11
 188 -16 188 -16 138.5 4 c 128,-1,12
 89 24 89 24 57.5 57 c 128,-1,13
 26 90 26 90 11.5 131.5 c 128,-1,14
 -3 173 -3 173 -3 217 c 0,15,16
 -3 264 -3 264 11.5 311 c 128,-1,17
 26 358 26 358 51.5 401 c 128,-1,18
 77 444 77 444 112 481 c 128,-1,19
 147 518 147 518 189 545.5 c 128,-1,20
 231 573 231 573 278 588.5 c 128,-1,21
 325 604 325 604 374 604 c 0,22,23
 417 604 417 604 460.5 589.5 c 128,-1,24
 504 575 504 575 546 543 c 1,25,26
 570 605 570 605 593.5 655 c 128,-1,27
 617 705 617 705 644.5 747 c 128,-1,28
 672 789 672 789 704.5 824 c 128,-1,29
 737 859 737 859 778 891 c 1,30,-1
 807 863 l 1,31,32
 778 826 778 826 758.5 777 c 128,-1,33
 739 728 739 728 724 673 c 128,-1,34
 709 618 709 618 696.5 560.5 c 128,-1,35
 684 503 684 503 671 449 c 2,36,-1
 550 -57 l 1,37,38
 536 -110 536 -110 510.5 -173.5 c 128,-1,39
 485 -237 485 -237 449 -298 c 128,-1,40
 413 -359 413 -359 366.5 -412 c 128,-1,41
 320 -465 320 -465 265 -498 c 1,42,-1
 235 -461 l 1,0,1
525 471 m 1,43,44
 496 494 496 494 467.5 505 c 128,-1,45
 439 516 439 516 411 516 c 0,46,47
 375 516 375 516 342 501 c 128,-1,48
 309 486 309 486 280.5 460.5 c 128,-1,49
 252 435 252 435 228 401.5 c 128,-1,50
 204 368 204 368 187 331 c 128,-1,51
 170 294 170 294 160.5 255.5 c 128,-1,52
 151 217 151 217 151 182 c 0,53,54
 151 156 151 156 158 132 c 128,-1,55
 165 108 165 108 180.5 88.5 c 128,-1,56
 196 69 196 69 220.5 57.5 c 128,-1,57
 245 46 245 46 280 46 c 0,58,59
 298 46 298 46 324 51.5 c 128,-1,60
 350 57 350 57 375.5 70.5 c 128,-1,61
 401 84 401 84 422.5 106.5 c 128,-1,62
 444 129 444 129 452 164 c 2,63,-1
 525 471 l 1,43,44
EndSplineSet
EndChar

StartChar: V
Encoding: 86 86 61
Width: 1391
Flags: W
LayerCount: 2
Fore
SplineSet
363 0 m 1,0,1
 379 32 379 32 406 98.5 c 128,-1,2
 433 165 433 165 463.5 254.5 c 128,-1,3
 494 344 494 344 525.5 449.5 c 128,-1,4
 557 555 557 555 582 664 c 128,-1,5
 607 773 607 773 623 879.5 c 128,-1,6
 639 986 639 986 639 1077 c 0,7,8
 639 1143 639 1143 629 1199 c 128,-1,9
 619 1255 619 1255 597.5 1295.5 c 128,-1,10
 576 1336 576 1336 541 1359 c 128,-1,11
 506 1382 506 1382 455 1382 c 0,12,13
 384 1382 384 1382 328.5 1353 c 128,-1,14
 273 1324 273 1324 231.5 1275.5 c 128,-1,15
 190 1227 190 1227 161.5 1165 c 128,-1,16
 133 1103 133 1103 115.5 1036 c 128,-1,17
 98 969 98 969 90 902.5 c 128,-1,18
 82 836 82 836 82 780 c 0,19,20
 82 718 82 718 91 648 c 128,-1,21
 100 578 100 578 122 511.5 c 128,-1,22
 144 445 144 445 180.5 387.5 c 128,-1,23
 217 330 217 330 273 293 c 1,24,-1
 226 254 l 1,25,26
 169 302 169 302 130 365.5 c 128,-1,27
 91 429 91 429 66.5 500.5 c 128,-1,28
 42 572 42 572 31.5 647 c 128,-1,29
 21 722 21 722 21 793 c 0,30,31
 21 861 21 861 31.5 936 c 128,-1,32
 42 1011 42 1011 64.5 1083 c 128,-1,33
 87 1155 87 1155 122.5 1220 c 128,-1,34
 158 1285 158 1285 207.5 1334.5 c 128,-1,35
 257 1384 257 1384 321.5 1413 c 128,-1,36
 386 1442 386 1442 467 1442 c 0,37,38
 569 1442 569 1442 637.5 1409 c 128,-1,39
 706 1376 706 1376 747.5 1319 c 128,-1,40
 789 1262 789 1262 806.5 1185.5 c 128,-1,41
 824 1109 824 1109 824 1022 c 0,42,43
 824 916 824 916 803 799 c 128,-1,44
 782 682 782 682 750 568.5 c 128,-1,45
 718 455 718 455 681 351.5 c 128,-1,46
 644 248 644 248 613 168 c 1,47,48
 762 247 762 247 874 337 c 128,-1,49
 986 427 986 427 1070 529 c 128,-1,50
 1154 631 1154 631 1214.5 744.5 c 128,-1,51
 1275 858 1275 858 1321 985 c 1,52,53
 1280 1005 1280 1005 1242 1032.5 c 128,-1,54
 1204 1060 1204 1060 1174 1095 c 128,-1,55
 1144 1130 1144 1130 1126 1172.5 c 128,-1,56
 1108 1215 1108 1215 1108 1264 c 0,57,58
 1108 1300 1108 1300 1121 1332.5 c 128,-1,59
 1134 1365 1134 1365 1157.5 1389 c 128,-1,60
 1181 1413 1181 1413 1213 1427.5 c 128,-1,61
 1245 1442 1245 1442 1283 1442 c 0,62,63
 1323 1442 1323 1442 1354 1426.5 c 128,-1,64
 1385 1411 1385 1411 1405 1385 c 128,-1,65
 1425 1359 1425 1359 1435.5 1325 c 128,-1,66
 1446 1291 1446 1291 1446 1253 c 0,67,68
 1446 1191 1446 1191 1436 1130.5 c 128,-1,69
 1426 1070 1426 1070 1409 1010 c 1,70,71
 1481 973 1481 973 1561 956 c 1,72,-1
 1543 909 l 1,73,74
 1504 919 1504 919 1467 928 c 128,-1,75
 1430 937 1430 937 1393 952 c 1,76,77
 1345 805 1345 805 1262 669.5 c 128,-1,78
 1179 534 1179 534 1060.5 413.5 c 128,-1,79
 942 293 942 293 788.5 188.5 c 128,-1,80
 635 84 635 84 445 0 c 1,81,-1
 363 0 l 1,0,1
1219 1255 m 0,82,83
 1219 1223 1219 1223 1229 1194 c 128,-1,84
 1239 1165 1239 1165 1256 1139 c 128,-1,85
 1273 1113 1273 1113 1295 1090 c 128,-1,86
 1317 1067 1317 1067 1342 1049 c 1,87,88
 1356 1098 1356 1098 1365.5 1149.5 c 128,-1,89
 1375 1201 1375 1201 1375 1253 c 0,90,91
 1375 1269 1375 1269 1371.5 1285.5 c 128,-1,92
 1368 1302 1368 1302 1360 1315.5 c 128,-1,93
 1352 1329 1352 1329 1339 1337.5 c 128,-1,94
 1326 1346 1326 1346 1307 1346 c 0,95,96
 1289 1346 1289 1346 1273 1338.5 c 128,-1,97
 1257 1331 1257 1331 1245 1318.5 c 128,-1,98
 1233 1306 1233 1306 1226 1289.5 c 128,-1,99
 1219 1273 1219 1273 1219 1255 c 0,82,83
EndSplineSet
EndChar

StartChar: W
Encoding: 87 87 62
Width: 1993
Flags: W
LayerCount: 2
Fore
SplineSet
1172 0 m 1,0,1
 1179 34 1179 34 1193 102 c 128,-1,2
 1207 170 1207 170 1224.5 257.5 c 128,-1,3
 1242 345 1242 345 1261.5 446 c 128,-1,4
 1281 547 1281 547 1300 647 c 0,5,6
 1345 881 1345 881 1397 1157 c 1,7,8
 1329 1073 1329 1073 1247 959.5 c 128,-1,9
 1165 846 1165 846 1066 702 c 128,-1,10
 967 558 967 558 850.5 383 c 128,-1,11
 734 208 734 208 597 0 c 1,12,-1
 412 0 l 1,13,14
 428 32 428 32 455 98.5 c 128,-1,15
 482 165 482 165 513 254.5 c 128,-1,16
 544 344 544 344 575.5 449.5 c 128,-1,17
 607 555 607 555 632 664 c 128,-1,18
 657 773 657 773 673 879.5 c 128,-1,19
 689 986 689 986 689 1077 c 0,20,21
 689 1143 689 1143 679 1199 c 128,-1,22
 669 1255 669 1255 647.5 1295.5 c 128,-1,23
 626 1336 626 1336 590.5 1359 c 128,-1,24
 555 1382 555 1382 504 1382 c 0,25,26
 433 1382 433 1382 378 1353 c 128,-1,27
 323 1324 323 1324 281.5 1275.5 c 128,-1,28
 240 1227 240 1227 211.5 1165 c 128,-1,29
 183 1103 183 1103 165.5 1036 c 128,-1,30
 148 969 148 969 140 902.5 c 128,-1,31
 132 836 132 836 132 780 c 0,32,33
 132 718 132 718 141 648 c 128,-1,34
 150 578 150 578 172 511.5 c 128,-1,35
 194 445 194 445 230.5 387.5 c 128,-1,36
 267 330 267 330 322 293 c 1,37,-1
 275 254 l 1,38,39
 218 302 218 302 179 365.5 c 128,-1,40
 140 429 140 429 115.5 500.5 c 128,-1,41
 91 572 91 572 80.5 647 c 128,-1,42
 70 722 70 722 70 793 c 0,43,44
 70 861 70 861 80.5 936 c 128,-1,45
 91 1011 91 1011 114 1083 c 128,-1,46
 137 1155 137 1155 172 1220 c 128,-1,47
 207 1285 207 1285 257 1334.5 c 128,-1,48
 307 1384 307 1384 371.5 1413 c 128,-1,49
 436 1442 436 1442 517 1442 c 0,50,51
 618 1442 618 1442 686.5 1409 c 128,-1,52
 755 1376 755 1376 796.5 1319 c 128,-1,53
 838 1262 838 1262 855.5 1185.5 c 128,-1,54
 873 1109 873 1109 873 1022 c 0,55,56
 873 923 873 923 852 814.5 c 128,-1,57
 831 706 831 706 799 601 c 128,-1,58
 767 496 767 496 730 400 c 128,-1,59
 693 304 693 304 662 229 c 1,60,61
 775 419 775 419 867.5 567 c 128,-1,62
 960 715 960 715 1037 829.5 c 128,-1,63
 1114 944 1114 944 1177.5 1029 c 128,-1,64
 1241 1114 1241 1114 1296 1178 c 128,-1,65
 1351 1242 1351 1242 1399.5 1289 c 128,-1,66
 1448 1336 1448 1336 1494 1374 c 1,67,-1
 1565 1341 l 1,68,-1
 1385 175 l 1,69,70
 1497 251 1497 251 1586.5 343.5 c 128,-1,71
 1676 436 1676 436 1742.5 540 c 128,-1,72
 1809 644 1809 644 1853.5 756.5 c 128,-1,73
 1898 869 1898 869 1920 985 c 1,74,75
 1878 1005 1878 1005 1835.5 1034 c 128,-1,76
 1793 1063 1793 1063 1759 1100 c 128,-1,77
 1725 1137 1725 1137 1703.5 1181 c 128,-1,78
 1682 1225 1682 1225 1682 1276 c 0,79,80
 1682 1310 1682 1310 1693 1340 c 128,-1,81
 1704 1370 1704 1370 1724.5 1392.5 c 128,-1,82
 1745 1415 1745 1415 1774.5 1428.5 c 128,-1,83
 1804 1442 1804 1442 1840 1442 c 0,84,85
 1892 1442 1892 1442 1927 1419.5 c 128,-1,86
 1962 1397 1962 1397 1983 1361 c 128,-1,87
 2004 1325 2004 1325 2013 1279 c 128,-1,88
 2022 1233 2022 1233 2022 1186 c 0,89,90
 2022 1141 2022 1141 2018 1097 c 128,-1,91
 2014 1053 2014 1053 2006 1010 c 1,92,93
 2043 991 2043 991 2082 977.5 c 128,-1,94
 2121 964 2121 964 2161 956 c 1,95,-1
 2147 909 l 1,96,97
 2109 919 2109 919 2070 928 c 128,-1,98
 2031 937 2031 937 1993 952 c 1,99,100
 1962 805 1962 805 1900.5 669.5 c 128,-1,101
 1839 534 1839 534 1747 413.5 c 128,-1,102
 1655 293 1655 293 1531.5 188.5 c 128,-1,103
 1408 84 1408 84 1254 0 c 1,104,-1
 1172 0 l 1,0,1
1793 1255 m 1,105,106
 1796 1223 1796 1223 1808.5 1194 c 128,-1,107
 1821 1165 1821 1165 1840 1139 c 128,-1,108
 1859 1113 1859 1113 1883.5 1090 c 128,-1,109
 1908 1067 1908 1067 1934 1049 c 1,110,111
 1942 1086 1942 1086 1946 1124 c 128,-1,112
 1950 1162 1950 1162 1950 1202 c 0,113,114
 1950 1220 1950 1220 1949 1244.5 c 128,-1,115
 1948 1269 1948 1269 1941 1291.5 c 128,-1,116
 1934 1314 1934 1314 1918.5 1330 c 128,-1,117
 1903 1346 1903 1346 1875 1346 c 0,118,119
 1839 1346 1839 1346 1816 1321 c 128,-1,120
 1793 1296 1793 1296 1793 1262 c 2,121,-1
 1793 1255 l 1,105,106
EndSplineSet
EndChar

StartChar: Z
Encoding: 90 90 63
Width: 1761
Flags: W
LayerCount: 2
Fore
SplineSet
676 870 m 1,0,1
 647 843 647 843 608.5 822 c 128,-1,2
 570 801 570 801 526.5 786.5 c 128,-1,3
 483 772 483 772 436 764 c 128,-1,4
 389 756 389 756 342 756 c 0,5,6
 281 756 281 756 225 772 c 128,-1,7
 169 788 169 788 126 822.5 c 128,-1,8
 83 857 83 857 57 910.5 c 128,-1,9
 31 964 31 964 31 1040 c 0,10,11
 31 1121 31 1121 69.5 1194 c 128,-1,12
 108 1267 108 1267 181.5 1322 c 128,-1,13
 255 1377 255 1377 361.5 1409.5 c 128,-1,14
 468 1442 468 1442 605 1442 c 0,15,16
 701 1442 701 1442 780 1425.5 c 128,-1,17
 859 1409 859 1409 925.5 1382.5 c 128,-1,18
 992 1356 992 1356 1047.5 1322.5 c 128,-1,19
 1103 1289 1103 1289 1152.5 1255.5 c 128,-1,20
 1202 1222 1202 1222 1247 1191.5 c 128,-1,21
 1292 1161 1292 1161 1338 1141 c 1,22,23
 1372 1178 1372 1178 1412.5 1206.5 c 128,-1,24
 1453 1235 1453 1235 1495 1254.5 c 128,-1,25
 1537 1274 1537 1274 1579 1284 c 128,-1,26
 1621 1294 1621 1294 1659 1294 c 0,27,28
 1698 1294 1698 1294 1731 1284.5 c 128,-1,29
 1764 1275 1764 1275 1788.5 1256 c 128,-1,30
 1813 1237 1813 1237 1827 1208 c 128,-1,31
 1841 1179 1841 1179 1841 1141 c 0,32,33
 1841 1095 1841 1095 1815.5 1060.5 c 128,-1,34
 1790 1026 1790 1026 1748 1002.5 c 128,-1,35
 1706 979 1706 979 1651.5 967 c 128,-1,36
 1597 955 1597 955 1538 955 c 0,37,38
 1492 955 1492 955 1446 962.5 c 128,-1,39
 1400 970 1400 970 1358 985 c 1,40,-1
 1205 733 l 1,41,-1
 1608 733 l 1,42,-1
 1637 674 l 1,43,-1
 1169 674 l 1,44,-1
 934 295 l 1,45,46
 970 263 970 263 1029.5 229.5 c 128,-1,47
 1089 196 1089 196 1156.5 168 c 128,-1,48
 1224 140 1224 140 1290.5 122 c 128,-1,49
 1357 104 1357 104 1407 104 c 0,50,51
 1440 104 1440 104 1473 112.5 c 128,-1,52
 1506 121 1506 121 1534.5 143 c 128,-1,53
 1563 165 1563 165 1584.5 201 c 128,-1,54
 1606 237 1606 237 1616 293 c 1,55,-1
 1710 279 l 1,56,57
 1710 220 1710 220 1682 165.5 c 128,-1,58
 1654 111 1654 111 1602.5 69 c 128,-1,59
 1551 27 1551 27 1479 2 c 128,-1,60
 1407 -23 1407 -23 1319 -23 c 0,61,62
 1245 -23 1245 -23 1178 -4.5 c 128,-1,63
 1111 14 1111 14 1048.5 43 c 128,-1,64
 986 72 986 72 927.5 107 c 128,-1,65
 869 142 869 142 811 174 c 1,66,67
 761 121 761 121 709.5 83.5 c 128,-1,68
 658 46 658 46 606.5 22.5 c 128,-1,69
 555 -1 555 -1 504.5 -12 c 128,-1,70
 454 -23 454 -23 406 -23 c 0,71,72
 319 -23 319 -23 256 -1 c 128,-1,73
 193 21 193 21 152.5 57.5 c 128,-1,74
 112 94 112 94 93 142 c 128,-1,75
 74 190 74 190 74 242 c 0,76,77
 74 293 74 293 98.5 344.5 c 128,-1,78
 123 396 123 396 169.5 437 c 128,-1,79
 216 478 216 478 283 503.5 c 128,-1,80
 350 529 350 529 435 529 c 0,81,82
 495 529 495 529 552 513 c 128,-1,83
 609 497 609 497 663 472.5 c 128,-1,84
 717 448 717 448 766.5 418.5 c 128,-1,85
 816 389 816 389 860 361 c 1,86,-1
 1056 674 l 1,87,-1
 684 674 l 1,88,-1
 738 733 l 1,89,-1
 1092 733 l 1,90,-1
 1266 1016 l 1,91,92
 1166 1056 1166 1056 1092.5 1098.5 c 128,-1,93
 1019 1141 1019 1141 960.5 1181 c 128,-1,94
 902 1221 902 1221 853 1257 c 128,-1,95
 804 1293 804 1293 752.5 1320 c 128,-1,96
 701 1347 701 1347 642 1362.5 c 128,-1,97
 583 1378 583 1378 505 1378 c 0,98,99
 414 1378 414 1378 344.5 1348 c 128,-1,100
 275 1318 275 1318 228 1270 c 128,-1,101
 181 1222 181 1222 157 1162.5 c 128,-1,102
 133 1103 133 1103 133 1044 c 0,103,104
 133 984 133 984 153 940.5 c 128,-1,105
 173 897 173 897 207 868 c 128,-1,106
 241 839 241 839 284.5 825 c 128,-1,107
 328 811 328 811 375 811 c 0,108,109
 443 811 443 811 508 835 c 128,-1,110
 573 859 573 859 621 907 c 1,111,-1
 676 870 l 1,0,1
738 225 m 1,112,113
 706 250 706 250 655 280.5 c 128,-1,114
 604 311 604 311 544.5 337.5 c 128,-1,115
 485 364 485 364 421 381.5 c 128,-1,116
 357 399 357 399 299 399 c 0,117,118
 261 399 261 399 231.5 386 c 128,-1,119
 202 373 202 373 182 351.5 c 128,-1,120
 162 330 162 330 151 302 c 128,-1,121
 140 274 140 274 140 244 c 0,122,123
 140 209 140 209 155 175 c 128,-1,124
 170 141 170 141 201 114 c 128,-1,125
 232 87 232 87 280 70 c 128,-1,126
 328 53 328 53 394 53 c 0,127,128
 474 53 474 53 562.5 92 c 128,-1,129
 651 131 651 131 738 225 c 1,112,113
1413 1100 m 1,130,131
 1455 1080 1455 1080 1500.5 1070.5 c 128,-1,132
 1546 1061 1546 1061 1590 1061 c 0,133,134
 1625 1061 1625 1061 1656.5 1067 c 128,-1,135
 1688 1073 1688 1073 1712 1084.5 c 128,-1,136
 1736 1096 1736 1096 1750 1113 c 128,-1,137
 1764 1130 1764 1130 1764 1151 c 0,138,139
 1764 1185 1764 1185 1739 1204 c 128,-1,140
 1714 1223 1714 1223 1672 1223 c 0,141,142
 1616 1223 1616 1223 1545.5 1191 c 128,-1,143
 1475 1159 1475 1159 1413 1100 c 1,130,131
EndSplineSet
EndChar

StartChar: v
Encoding: 118 118 64
Width: 801
Flags: W
LayerCount: 2
Fore
SplineSet
272 96 m 0,0,1
 317 96 317 96 361.5 113 c 128,-1,2
 406 130 406 130 446.5 157.5 c 128,-1,3
 487 185 487 185 521.5 221 c 128,-1,4
 556 257 556 257 581 295 c 128,-1,5
 606 333 606 333 620.5 371 c 128,-1,6
 635 409 635 409 635 440 c 1,7,8
 633 438 633 438 628 436 c 256,9,10
 623 434 623 434 615 433 c 128,-1,11
 607 432 607 432 594 432 c 0,12,13
 551 432 551 432 529.5 457.5 c 128,-1,14
 508 483 508 483 508 514 c 0,15,16
 508 531 508 531 514 547 c 128,-1,17
 520 563 520 563 532.5 576 c 128,-1,18
 545 589 545 589 563.5 596.5 c 128,-1,19
 582 604 582 604 606 604 c 0,20,21
 644 604 644 604 668.5 592 c 128,-1,22
 693 580 693 580 707.5 560.5 c 128,-1,23
 722 541 722 541 727.5 516 c 128,-1,24
 733 491 733 491 733 465 c 0,25,26
 733 424 733 424 716 372.5 c 128,-1,27
 699 321 699 321 666.5 267.5 c 128,-1,28
 634 214 634 214 586.5 163 c 128,-1,29
 539 112 539 112 478.5 72.5 c 128,-1,30
 418 33 418 33 345 8.5 c 128,-1,31
 272 -16 272 -16 188 -16 c 0,32,33
 154 -16 154 -16 131.5 -7 c 128,-1,34
 109 2 109 2 95.5 17.5 c 128,-1,35
 82 33 82 33 76 54 c 128,-1,36
 70 75 70 75 70 99 c 0,37,38
 70 142 70 142 81.5 188 c 128,-1,39
 93 234 93 234 107.5 275.5 c 128,-1,40
 122 317 122 317 133.5 351.5 c 128,-1,41
 145 386 145 386 145 406 c 0,42,43
 145 449 145 449 127 449 c 0,44,45
 116 449 116 449 100.5 433 c 128,-1,46
 85 417 85 417 69.5 395.5 c 128,-1,47
 54 374 54 374 40.5 352.5 c 128,-1,48
 27 331 27 331 20 319 c 1,49,-1
 -45 356 l 1,50,51
 1 434 1 434 41.5 482.5 c 128,-1,52
 82 531 82 531 115.5 558 c 128,-1,53
 149 585 149 585 176.5 594.5 c 128,-1,54
 204 604 204 604 225 604 c 0,55,56
 256 604 256 604 281.5 581 c 128,-1,57
 307 558 307 558 307 516 c 0,58,59
 307 470 307 470 294.5 410.5 c 128,-1,60
 282 351 282 351 267 295 c 128,-1,61
 252 239 252 239 239.5 195.5 c 128,-1,62
 227 152 227 152 227 137 c 0,63,64
 227 131 227 131 228.5 124 c 128,-1,65
 230 117 230 117 234.5 110.5 c 128,-1,66
 239 104 239 104 248 100 c 128,-1,67
 257 96 257 96 272 96 c 0,0,1
EndSplineSet
EndChar

StartChar: dollar
Encoding: 36 36 65
Width: 897
Flags: W
LayerCount: 2
Fore
SplineSet
337 -22 m 1,0,1
 285 -19 285 -19 226 -7.5 c 128,-1,2
 167 4 167 4 117 29 c 128,-1,3
 67 54 67 54 34 95 c 128,-1,4
 1 136 1 136 1 197 c 0,5,6
 1 215 1 215 6 234 c 128,-1,7
 11 253 11 253 21 269.5 c 128,-1,8
 31 286 31 286 46.5 296.5 c 128,-1,9
 62 307 62 307 83 307 c 0,10,11
 126 307 126 307 154.5 277.5 c 128,-1,12
 183 248 183 248 183 205 c 0,13,14
 183 176 183 176 160.5 154.5 c 128,-1,15
 138 133 138 133 113 123 c 1,16,-1
 111 123 l 1,17,18
 162 89 162 89 226 74.5 c 128,-1,19
 290 60 290 60 351 57 c 1,20,-1
 407 373 l 1,21,22
 360 390 360 390 313 408.5 c 128,-1,23
 266 427 266 427 228.5 452 c 128,-1,24
 191 477 191 477 167.5 511.5 c 128,-1,25
 144 546 144 546 144 594 c 0,26,27
 144 665 144 665 176 716.5 c 128,-1,28
 208 768 208 768 258.5 803 c 128,-1,29
 309 838 309 838 372 857 c 128,-1,30
 435 876 435 876 497 882 c 1,31,-1
 525 1042 l 1,32,-1
 589 1026 l 1,33,-1
 564 885 l 1,34,35
 603 884 603 884 651 876 c 128,-1,36
 699 868 699 868 741.5 848.5 c 128,-1,37
 784 829 784 829 813 797 c 128,-1,38
 842 765 842 765 842 717 c 0,39,40
 842 695 842 695 835.5 675 c 128,-1,41
 829 655 829 655 817 639.5 c 128,-1,42
 805 624 805 624 787 615 c 128,-1,43
 769 606 769 606 746 606 c 0,44,45
 728 606 728 606 712.5 613 c 128,-1,46
 697 620 697 620 685.5 631.5 c 128,-1,47
 674 643 674 643 667 658.5 c 128,-1,48
 660 674 660 674 660 692 c 0,49,50
 660 707 660 707 666 720 c 128,-1,51
 672 733 672 733 681.5 744 c 128,-1,52
 691 755 691 755 702.5 763.5 c 128,-1,53
 714 772 714 772 726 780 c 1,54,-1
 728 780 l 1,55,56
 693 805 693 805 651.5 814 c 128,-1,57
 610 823 610 823 568 823 c 2,58,-1
 553 823 l 1,59,-1
 506 557 l 1,60,61
 558 538 558 538 610 515 c 128,-1,62
 662 492 662 492 704 459.5 c 128,-1,63
 746 427 746 427 772.5 383.5 c 128,-1,64
 799 340 799 340 799 279 c 0,65,66
 799 204 799 204 762 148.5 c 128,-1,67
 725 93 725 93 667 56 c 128,-1,68
 609 19 609 19 539.5 0 c 128,-1,69
 470 -19 470 -19 404 -22 c 1,70,-1
 357 -293 l 1,71,-1
 292 -281 l 1,72,-1
 337 -22 l 1,0,1
609 205 m 0,73,74
 609 232 609 232 598 253 c 128,-1,75
 587 274 587 274 568 291 c 128,-1,76
 549 308 549 308 523.5 322 c 128,-1,77
 498 336 498 336 469 348 c 1,78,-1
 418 58 l 1,79,80
 451 60 451 60 485 68.5 c 128,-1,81
 519 77 519 77 546.5 94.5 c 128,-1,82
 574 112 574 112 591.5 139 c 128,-1,83
 609 166 609 166 609 205 c 0,73,74
298 700 m 0,84,85
 298 679 298 679 309.5 662.5 c 128,-1,86
 321 646 321 646 340.5 632 c 128,-1,87
 360 618 360 618 386.5 605.5 c 128,-1,88
 413 593 413 593 444 581 c 1,89,-1
 485 818 l 1,90,91
 453 814 453 814 420 806.5 c 128,-1,92
 387 799 387 799 360 785 c 128,-1,93
 333 771 333 771 315.5 750.5 c 128,-1,94
 298 730 298 730 298 700 c 0,84,85
EndSplineSet
EndChar

StartChar: Oslash
Encoding: 216 216 66
Width: 1442
Flags: W
LayerCount: 2
Fore
SplineSet
1380 1772 m 1,0,-1
 1426 1737 l 1,1,-1
 199 -315 l 1,2,-1
 152 -283 l 1,3,-1
 1380 1772 l 1,0,-1
362 819 m 0,4,5
 362 897 362 897 384.5 974 c 128,-1,6
 407 1051 407 1051 448 1120 c 128,-1,7
 489 1189 489 1189 545.5 1248 c 128,-1,8
 602 1307 602 1307 669 1350 c 128,-1,9
 736 1393 736 1393 812 1417.5 c 128,-1,10
 888 1442 888 1442 968 1442 c 0,11,12
 1072 1442 1072 1442 1167 1409 c 128,-1,13
 1262 1376 1262 1376 1334 1312.5 c 128,-1,14
 1406 1249 1406 1249 1449 1156 c 128,-1,15
 1492 1063 1492 1063 1492 944 c 0,16,17
 1492 823 1492 823 1459 704 c 128,-1,18
 1426 585 1426 585 1365.5 477.5 c 128,-1,19
 1305 370 1305 370 1219.5 278.5 c 128,-1,20
 1134 187 1134 187 1029 120 c 128,-1,21
 924 53 924 53 802 15 c 128,-1,22
 680 -23 680 -23 546 -23 c 0,23,24
 420 -23 420 -23 322 10 c 128,-1,25
 224 43 224 43 157 106.5 c 128,-1,26
 90 170 90 170 55 262.5 c 128,-1,27
 20 355 20 355 20 475 c 0,28,29
 20 567 20 567 42.5 662.5 c 128,-1,30
 65 758 65 758 108.5 847.5 c 128,-1,31
 152 937 152 937 216 1014.5 c 128,-1,32
 280 1092 280 1092 362 1148 c 1,33,-1
 392 1111 l 1,34,35
 347 1057 347 1057 311.5 988.5 c 128,-1,36
 276 920 276 920 252 843.5 c 128,-1,37
 228 767 228 767 215 686.5 c 128,-1,38
 202 606 202 606 202 528 c 0,39,40
 202 430 202 430 224 341.5 c 128,-1,41
 246 253 246 253 293 185 c 128,-1,42
 340 117 340 117 413 77 c 128,-1,43
 486 37 486 37 587 37 c 0,44,45
 687 37 687 37 776.5 76 c 128,-1,46
 866 115 866 115 941.5 181.5 c 128,-1,47
 1017 248 1017 248 1077 336.5 c 128,-1,48
 1137 425 1137 425 1179.5 524.5 c 128,-1,49
 1222 624 1222 624 1244.5 728 c 128,-1,50
 1267 832 1267 832 1267 930 c 0,51,52
 1267 1020 1267 1020 1248 1100 c 128,-1,53
 1229 1180 1229 1180 1188 1239.5 c 128,-1,54
 1147 1299 1147 1299 1083 1333.5 c 128,-1,55
 1019 1368 1019 1368 929 1368 c 0,56,57
 826 1368 826 1368 740.5 1320 c 128,-1,58
 655 1272 655 1272 593 1193.5 c 128,-1,59
 531 1115 531 1115 496.5 1015.5 c 128,-1,60
 462 916 462 916 462 813 c 0,61,62
 462 755 462 755 474 714 c 128,-1,63
 486 673 486 673 506.5 646.5 c 128,-1,64
 527 620 527 620 554.5 608 c 128,-1,65
 582 596 582 596 614 596 c 0,66,67
 664 596 664 596 717.5 622 c 128,-1,68
 771 648 771 648 815.5 692 c 128,-1,69
 860 736 860 736 889.5 794.5 c 128,-1,70
 919 853 919 853 921 918 c 1,71,-1
 1017 934 l 1,72,73
 1017 855 1017 855 984.5 782 c 128,-1,74
 952 709 952 709 897.5 653 c 128,-1,75
 843 597 843 597 771 563.5 c 128,-1,76
 699 530 699 530 620 530 c 0,77,78
 555 530 555 530 507 553.5 c 128,-1,79
 459 577 459 577 426.5 617 c 128,-1,80
 394 657 394 657 378 709.5 c 128,-1,81
 362 762 362 762 362 819 c 0,4,5
EndSplineSet
EndChar

StartChar: slash
Encoding: 47 47 67
Width: 1096
Flags: W
LayerCount: 2
Fore
SplineSet
1146 1772 m 1,0,-1
 1192 1737 l 1,1,-1
 -35 -315 l 1,2,-1
 -82 -283 l 1,3,-1
 1146 1772 l 1,0,-1
EndSplineSet
EndChar

StartChar: parenright
Encoding: 41 41 68
Width: 660
Flags: W
LayerCount: 2
Fore
SplineSet
-42 -219 m 1,0,1
 30 -170 30 -170 94 -84 c 128,-1,2
 158 2 158 2 211 109 c 128,-1,3
 264 216 264 216 306.5 335 c 128,-1,4
 349 454 349 454 378 569.5 c 128,-1,5
 407 685 407 685 422.5 788.5 c 128,-1,6
 438 892 438 892 438 967 c 0,7,8
 438 1016 438 1016 436 1071 c 128,-1,9
 434 1126 434 1126 427 1180 c 128,-1,10
 420 1234 420 1234 407 1285.5 c 128,-1,11
 394 1337 394 1337 372 1380 c 1,12,-1
 425 1410 l 1,13,14
 482 1346 482 1346 517 1225.5 c 128,-1,15
 552 1105 552 1105 552 943 c 0,16,17
 552 803 552 803 530 670 c 128,-1,18
 508 537 508 537 469 416 c 128,-1,19
 430 295 430 295 376.5 188 c 128,-1,20
 323 81 323 81 260.5 -7 c 128,-1,21
 198 -95 198 -95 128.5 -162 c 128,-1,22
 59 -229 59 -229 -11 -270 c 1,23,-1
 -42 -219 l 1,0,1
EndSplineSet
EndChar

StartChar: parenleft
Encoding: 40 40 69
Width: 571
Flags: W
LayerCount: 2
Fore
SplineSet
313 -248 m 1,0,1
 263 -202 263 -202 227.5 -147.5 c 128,-1,2
 192 -93 192 -93 169.5 -31.5 c 128,-1,3
 147 30 147 30 136.5 97.5 c 128,-1,4
 126 165 126 165 126 236 c 0,5,6
 126 361 126 361 155.5 492.5 c 128,-1,7
 185 624 185 624 236 750 c 128,-1,8
 287 876 287 876 355.5 990.5 c 128,-1,9
 424 1105 424 1105 502 1196.5 c 128,-1,10
 580 1288 580 1288 664 1350 c 128,-1,11
 748 1412 748 1412 829 1434 c 1,12,-1
 855 1380 l 1,13,14
 764 1349 764 1349 684.5 1279.5 c 128,-1,15
 605 1210 605 1210 539 1113.5 c 128,-1,16
 473 1017 473 1017 421 900.5 c 128,-1,17
 369 784 369 784 333.5 659 c 128,-1,18
 298 534 298 534 279.5 407 c 128,-1,19
 261 280 261 280 261 164 c 0,20,21
 261 51 261 51 281 -46 c 128,-1,22
 301 -143 301 -143 343 -220 c 1,23,-1
 313 -248 l 1,0,1
EndSplineSet
EndChar

StartChar: colon
Encoding: 58 58 70
Width: 463
Flags: W
LayerCount: 2
Fore
SplineSet
277 86 m 0,0,1
 277 60 277 60 267.5 39.5 c 128,-1,2
 258 19 258 19 243 5 c 128,-1,3
 228 -9 228 -9 208.5 -16 c 128,-1,4
 189 -23 189 -23 169 -23 c 0,5,6
 133 -23 133 -23 104.5 0.5 c 128,-1,7
 76 24 76 24 76 72 c 0,8,9
 76 98 76 98 86 118 c 128,-1,10
 96 138 96 138 111.5 152 c 128,-1,11
 127 166 127 166 147 173 c 128,-1,12
 167 180 167 180 187 180 c 0,13,14
 205 180 205 180 221 174.5 c 128,-1,15
 237 169 237 169 249.5 157.5 c 128,-1,16
 262 146 262 146 269.5 128.5 c 128,-1,17
 277 111 277 111 277 86 c 0,0,1
373 487 m 0,18,19
 373 461 373 461 363.5 441 c 128,-1,20
 354 421 354 421 339 407 c 128,-1,21
 324 393 324 393 304.5 386 c 128,-1,22
 285 379 285 379 265 379 c 0,23,24
 247 379 247 379 230.5 385 c 128,-1,25
 214 391 214 391 201.5 402.5 c 128,-1,26
 189 414 189 414 181 431.5 c 128,-1,27
 173 449 173 449 173 473 c 0,28,29
 173 499 173 499 182.5 519.5 c 128,-1,30
 192 540 192 540 208 554 c 128,-1,31
 224 568 224 568 243.5 575 c 128,-1,32
 263 582 263 582 283 582 c 0,33,34
 318 582 318 582 345.5 559.5 c 128,-1,35
 373 537 373 537 373 487 c 0,18,19
EndSplineSet
EndChar

StartChar: semicolon
Encoding: 59 59 71
Width: 446
Flags: W
LayerCount: 2
Fore
SplineSet
59 -229 m 1,0,1
 76 -160 76 -160 94.5 -82.5 c 128,-1,2
 113 -5 113 -5 128 92 c 1,3,-1
 298 147 l 1,4,5
 298 130 298 130 286.5 100 c 128,-1,6
 275 70 275 70 257 33.5 c 128,-1,7
 239 -3 239 -3 216 -42.5 c 128,-1,8
 193 -82 193 -82 170 -118.5 c 128,-1,9
 147 -155 147 -155 126 -184 c 128,-1,10
 105 -213 105 -213 91 -229 c 1,11,-1
 59 -229 l 1,0,1
339 487 m 0,12,13
 339 461 339 461 329.5 441 c 128,-1,14
 320 421 320 421 305 407 c 128,-1,15
 290 393 290 393 270.5 386 c 128,-1,16
 251 379 251 379 231 379 c 0,17,18
 213 379 213 379 196.5 385 c 128,-1,19
 180 391 180 391 167.5 402.5 c 128,-1,20
 155 414 155 414 147 431.5 c 128,-1,21
 139 449 139 449 139 473 c 0,22,23
 139 499 139 499 148.5 519.5 c 128,-1,24
 158 540 158 540 174 554 c 128,-1,25
 190 568 190 568 209.5 575 c 128,-1,26
 229 582 229 582 249 582 c 0,27,28
 284 582 284 582 311.5 559.5 c 128,-1,29
 339 537 339 537 339 487 c 0,12,13
EndSplineSet
EndChar

StartChar: oslash
Encoding: 248 248 72
Width: 775
Flags: W
LayerCount: 2
Fore
SplineSet
40 -238 m 1,0,-1
 610 860 l 1,1,-1
 648 836 l 1,2,-1
 79 -263 l 1,3,-1
 40 -238 l 1,0,-1
-1 238 m 0,4,5
 -1 316 -1 316 35.5 383 c 128,-1,6
 72 450 72 450 130.5 499 c 128,-1,7
 189 548 189 548 262 576 c 128,-1,8
 335 604 335 604 409 604 c 0,9,10
 464 604 464 604 515.5 586 c 128,-1,11
 567 568 567 568 606.5 535 c 128,-1,12
 646 502 646 502 670 455.5 c 128,-1,13
 694 409 694 409 694 352 c 0,14,15
 694 273 694 273 659.5 205.5 c 128,-1,16
 625 138 625 138 567.5 89 c 128,-1,17
 510 40 510 40 434 12 c 128,-1,18
 358 -16 358 -16 274 -16 c 0,19,20
 217 -16 217 -16 167 2.5 c 128,-1,21
 117 21 117 21 79.5 54.5 c 128,-1,22
 42 88 42 88 20.5 135 c 128,-1,23
 -1 182 -1 182 -1 238 c 0,4,5
182 233 m 0,24,25
 182 200 182 200 188.5 167 c 128,-1,26
 195 134 195 134 211 107 c 128,-1,27
 227 80 227 80 253.5 63 c 128,-1,28
 280 46 280 46 319 46 c 0,29,30
 376 46 376 46 413.5 76.5 c 128,-1,31
 451 107 451 107 473.5 152.5 c 128,-1,32
 496 198 496 198 505.5 250.5 c 128,-1,33
 515 303 515 303 515 346 c 0,34,35
 515 397 515 397 504.5 434 c 128,-1,36
 494 471 494 471 477 495 c 128,-1,37
 460 519 460 519 436.5 531 c 128,-1,38
 413 543 413 543 388 543 c 0,39,40
 353 543 353 543 316.5 522 c 128,-1,41
 280 501 280 501 250 461 c 128,-1,42
 220 421 220 421 201 363.5 c 128,-1,43
 182 306 182 306 182 233 c 0,24,25
EndSplineSet
EndChar

StartChar: one
Encoding: 49 49 73
Width: 533
Flags: W
LayerCount: 2
Fore
SplineSet
94 0 m 1,0,-1
 111 66 l 1,1,2
 153 236 153 236 186 372 c 0,3,4
 200 430 200 430 214 487 c 128,-1,5
 228 544 228 544 239.5 590 c 128,-1,6
 251 636 251 636 259 667 c 128,-1,7
 267 698 267 698 269 705 c 1,8,9
 238 685 238 685 200 669 c 128,-1,10
 162 653 162 653 119 633 c 1,11,-1
 84 682 l 1,12,13
 144 709 144 709 184.5 731 c 128,-1,14
 225 753 225 753 255.5 771.5 c 128,-1,15
 286 790 286 790 313.5 808 c 128,-1,16
 341 826 341 826 376 846 c 1,17,-1
 459 846 l 1,18,-1
 266 0 l 1,19,-1
 94 0 l 1,0,-1
289 100 m 1,20,-1
 291 100 l 1,21,22
 291 98 291 98 290.5 97.5 c 128,-1,23
 290 97 290 97 290 95 c 0,24,25
 290 83 290 83 300 73 c 128,-1,26
 310 63 310 63 325 55 c 128,-1,27
 340 47 340 47 357 42.5 c 128,-1,28
 374 38 374 38 389 37 c 1,29,-1
 385 0 l 1,30,-1
 -2 0 l 1,31,-1
 2 37 l 1,32,33
 8 38 8 38 25 41.5 c 128,-1,34
 42 45 42 45 61 51.5 c 128,-1,35
 80 58 80 58 96.5 70 c 128,-1,36
 113 82 113 82 119 100 c 1,37,-1
 289 100 l 1,20,-1
EndSplineSet
EndChar

StartChar: four
Encoding: 52 52 74
Width: 810
Flags: W
LayerCount: 2
Fore
SplineSet
529 281 m 1,0,-1
 486 98 l 1,1,2
 489 85 489 85 502 74.5 c 128,-1,3
 515 64 515 64 534 57 c 128,-1,4
 553 50 553 50 574 46 c 128,-1,5
 595 42 595 42 613 41 c 1,6,-1
 609 0 l 1,7,-1
 171 0 l 1,8,-1
 175 41 l 1,9,10
 181 42 181 42 199 44.5 c 128,-1,11
 217 47 217 47 238 52.5 c 128,-1,12
 259 58 259 58 279.5 67.5 c 128,-1,13
 300 77 300 77 312 91 c 1,14,-1
 357 281 l 1,15,-1
 30 281 l 1,16,-1
 15 334 l 1,17,-1
 605 866 l 1,18,-1
 662 866 l 1,19,-1
 544 342 l 1,20,-1
 625 342 l 1,21,22
 639 343 639 343 654 357 c 128,-1,23
 669 371 669 371 683 391 c 128,-1,24
 697 411 697 411 708 433.5 c 128,-1,25
 719 456 719 456 724 475 c 1,26,-1
 757 475 l 1,27,-1
 689 137 l 1,28,-1
 656 137 l 1,29,30
 656 146 656 146 654.5 170 c 128,-1,31
 653 194 653 194 648 218.5 c 128,-1,32
 643 243 643 243 634.5 262 c 128,-1,33
 626 281 626 281 611 281 c 2,34,-1
 529 281 l 1,0,-1
124 342 m 1,35,-1
 372 342 l 1,36,-1
 447 649 l 1,37,-1
 124 342 l 1,35,-1
EndSplineSet
EndChar

StartChar: fl
Encoding: 64258 64258 75
Width: 1001
Flags: W
LayerCount: 2
Fore
SplineSet
762 180 m 1,0,1
 762 151 762 151 764.5 138 c 128,-1,2
 767 125 767 125 778 125 c 0,3,4
 792 125 792 125 812.5 145.5 c 128,-1,5
 833 166 833 166 852.5 191.5 c 128,-1,6
 872 217 872 217 887.5 240 c 128,-1,7
 903 263 903 263 907 268 c 1,8,-1
 950 231 l 1,9,10
 913 161 913 161 875.5 114 c 128,-1,11
 838 67 838 67 804 38 c 128,-1,12
 770 9 770 9 741.5 -3.5 c 128,-1,13
 713 -16 713 -16 694 -16 c 0,14,15
 668 -16 668 -16 650.5 -4.5 c 128,-1,16
 633 7 633 7 622 27 c 128,-1,17
 611 47 611 47 606.5 73.5 c 128,-1,18
 602 100 602 100 602 129 c 0,19,20
 602 201 602 201 622 293.5 c 128,-1,21
 642 386 642 386 671.5 487.5 c 128,-1,22
 701 589 701 589 736 694 c 128,-1,23
 771 799 771 799 800.5 895 c 128,-1,24
 830 991 830 991 850 1073.5 c 128,-1,25
 870 1156 870 1156 870 1212 c 0,26,27
 870 1241 870 1241 863 1266 c 128,-1,28
 856 1291 856 1291 841 1309 c 128,-1,29
 826 1327 826 1327 801.5 1337.5 c 128,-1,30
 777 1348 777 1348 743 1348 c 0,31,32
 701 1348 701 1348 664.5 1319 c 128,-1,33
 628 1290 628 1290 598 1247.5 c 128,-1,34
 568 1205 568 1205 545.5 1157.5 c 128,-1,35
 523 1110 523 1110 510 1073 c 0,36,37
 467 956 467 956 431.5 831.5 c 128,-1,38
 396 707 396 707 369 582 c 1,39,-1
 608 582 l 1,40,-1
 592 516 l 1,41,-1
 354 516 l 1,42,-1
 330 414 l 2,43,44
 308 322 308 322 286 234.5 c 128,-1,45
 264 147 264 147 238 69.5 c 128,-1,46
 212 -8 212 -8 179.5 -73 c 128,-1,47
 147 -138 147 -138 104 -185 c 128,-1,48
 61 -232 61 -232 5.5 -258.5 c 128,-1,49
 -50 -285 -50 -285 -121 -285 c 0,50,51
 -170 -285 -170 -285 -191.5 -262 c 128,-1,52
 -213 -239 -213 -239 -213 -211 c 256,53,54
 -213 -183 -213 -183 -193.5 -160 c 128,-1,55
 -174 -137 -174 -137 -139 -137 c 0,56,57
 -113 -137 -113 -137 -92.5 -150.5 c 128,-1,58
 -72 -164 -72 -164 -72 -188 c 0,59,60
 -72 -196 -72 -196 -76.5 -212 c 128,-1,61
 -81 -228 -81 -228 -86 -236 c 1,62,63
 -53 -231 -53 -231 -25.5 -195.5 c 128,-1,64
 2 -160 2 -160 24.5 -105.5 c 128,-1,65
 47 -51 47 -51 65.5 17 c 128,-1,66
 84 85 84 85 99.5 155.5 c 128,-1,67
 115 226 115 226 128 293.5 c 128,-1,68
 141 361 141 361 154 414 c 2,69,-1
 178 516 l 1,70,-1
 -10 516 l 1,71,-1
 6 582 l 1,72,-1
 192 582 l 1,73,74
 220 695 220 695 252 801 c 128,-1,75
 284 907 284 907 322 999.5 c 128,-1,76
 360 1092 360 1092 405 1168 c 128,-1,77
 450 1244 450 1244 505 1298.5 c 128,-1,78
 560 1353 560 1353 625.5 1383 c 128,-1,79
 691 1413 691 1413 770 1413 c 0,80,81
 839 1413 839 1413 886 1397 c 128,-1,82
 933 1381 933 1381 962 1352 c 128,-1,83
 991 1323 991 1323 1003.5 1282.5 c 128,-1,84
 1016 1242 1016 1242 1016 1192 c 0,85,86
 1016 1126 1016 1126 998.5 1042.5 c 128,-1,87
 981 959 981 959 954 867 c 128,-1,88
 927 775 927 775 895 678.5 c 128,-1,89
 863 582 863 582 835 491.5 c 128,-1,90
 807 401 807 401 786.5 320.5 c 128,-1,91
 766 240 766 240 762 180 c 1,0,1
EndSplineSet
Ligature2: "'liga' Standard Ligatures in Latin lookup 0 subtable" f l
EndChar

StartChar: Y
Encoding: 89 89 76
Width: 1549
Flags: W
LayerCount: 2
Fore
SplineSet
1671 1277 m 1,0,1
 1595 1220 1595 1220 1549 1133.5 c 128,-1,2
 1503 1047 1503 1047 1476.5 942.5 c 128,-1,3
 1450 838 1450 838 1438.5 719 c 128,-1,4
 1427 600 1427 600 1418 477 c 128,-1,5
 1409 354 1409 354 1398.5 232 c 128,-1,6
 1388 110 1388 110 1365 -1 c 128,-1,7
 1342 -112 1342 -112 1300.5 -208 c 128,-1,8
 1259 -304 1259 -304 1188 -374.5 c 128,-1,9
 1117 -445 1117 -445 1012 -485 c 128,-1,10
 907 -525 907 -525 757 -525 c 0,11,12
 707 -525 707 -525 655 -519.5 c 128,-1,13
 603 -514 603 -514 561 -497 c 128,-1,14
 519 -480 519 -480 492.5 -449 c 128,-1,15
 466 -418 466 -418 466 -367 c 0,16,17
 466 -340 466 -340 477 -318.5 c 128,-1,18
 488 -297 488 -297 506 -282 c 128,-1,19
 524 -267 524 -267 546.5 -259.5 c 128,-1,20
 569 -252 569 -252 592 -252 c 0,21,22
 612 -252 612 -252 631 -258.5 c 128,-1,23
 650 -265 650 -265 665 -278.5 c 128,-1,24
 680 -292 680 -292 689 -313 c 128,-1,25
 698 -334 698 -334 698 -362 c 0,26,27
 698 -389 698 -389 692.5 -411.5 c 128,-1,28
 687 -434 687 -434 676 -460 c 1,29,30
 699 -464 699 -464 721 -465.5 c 128,-1,31
 743 -467 743 -467 763 -467 c 0,32,33
 842 -467 842 -467 902 -443 c 128,-1,34
 962 -419 962 -419 1007 -375 c 128,-1,35
 1052 -331 1052 -331 1084.5 -270 c 128,-1,36
 1117 -209 1117 -209 1140.5 -135 c 128,-1,37
 1164 -61 1164 -61 1180.5 23 c 128,-1,38
 1197 107 1197 107 1210 197 c 1,39,40
 1185 137 1185 137 1153 98 c 128,-1,41
 1121 59 1121 59 1083 36 c 128,-1,42
 1045 13 1045 13 1003 4 c 128,-1,43
 961 -5 961 -5 916 -5 c 0,44,45
 860 -5 860 -5 802 4 c 128,-1,46
 744 13 744 13 688.5 27.5 c 128,-1,47
 633 42 633 42 582 60 c 128,-1,48
 531 78 531 78 490 95 c 1,49,50
 469 76 469 76 433 57 c 128,-1,51
 397 38 397 38 352.5 23 c 128,-1,52
 308 8 308 8 259 -1 c 128,-1,53
 210 -10 210 -10 165 -10 c 0,54,55
 129 -10 129 -10 97 -3 c 128,-1,56
 65 4 65 4 41 19.5 c 128,-1,57
 17 35 17 35 3 60 c 128,-1,58
 -11 85 -11 85 -11 122 c 0,59,60
 -11 157 -11 157 9.5 190 c 128,-1,61
 30 223 30 223 68.5 249 c 128,-1,62
 107 275 107 275 162.5 290.5 c 128,-1,63
 218 306 218 306 287 306 c 0,64,65
 353 306 353 306 419.5 290.5 c 128,-1,66
 486 275 486 275 549 244 c 1,67,68
 596 283 596 283 646 337.5 c 128,-1,69
 696 392 696 392 743 457 c 128,-1,70
 790 522 790 522 831.5 593.5 c 128,-1,71
 873 665 873 665 904 739 c 128,-1,72
 935 813 935 813 953 885.5 c 128,-1,73
 971 958 971 958 971 1024 c 0,74,75
 971 1127 971 1127 945 1200.5 c 128,-1,76
 919 1274 919 1274 875 1321 c 128,-1,77
 831 1368 831 1368 772.5 1390 c 128,-1,78
 714 1412 714 1412 649 1412 c 0,79,80
 590 1412 590 1412 528.5 1395 c 128,-1,81
 467 1378 467 1378 409.5 1346 c 128,-1,82
 352 1314 352 1314 301 1269 c 128,-1,83
 250 1224 250 1224 212 1168 c 128,-1,84
 174 1112 174 1112 152 1045.5 c 128,-1,85
 130 979 130 979 130 906 c 0,86,87
 130 852 130 852 142.5 798 c 128,-1,88
 155 744 155 744 183 690 c 1,89,-1
 132 668 l 1,90,91
 101 733 101 733 87 797 c 128,-1,92
 73 861 73 861 73 923 c 0,93,94
 73 1012 73 1012 97 1089.5 c 128,-1,95
 121 1167 121 1167 163.5 1231 c 128,-1,96
 206 1295 206 1295 263 1344.5 c 128,-1,97
 320 1394 320 1394 385.5 1428.5 c 128,-1,98
 451 1463 451 1463 522 1480.5 c 128,-1,99
 593 1498 593 1498 663 1498 c 0,100,101
 750 1498 750 1498 831 1469.5 c 128,-1,102
 912 1441 912 1441 973.5 1381 c 128,-1,103
 1035 1321 1035 1321 1072 1228.5 c 128,-1,104
 1109 1136 1109 1136 1109 1008 c 0,105,106
 1109 940 1109 940 1090.5 867 c 128,-1,107
 1072 794 1072 794 1038.5 721 c 128,-1,108
 1005 648 1005 648 959.5 576.5 c 128,-1,109
 914 505 914 505 860 439 c 128,-1,110
 806 373 806 373 746.5 315 c 128,-1,111
 687 257 687 257 625 211 c 1,112,113
 726 161 726 161 804.5 136.5 c 128,-1,114
 883 112 883 112 960 112 c 0,115,116
 1002 112 1002 112 1044 123.5 c 128,-1,117
 1086 135 1086 135 1123.5 166 c 128,-1,118
 1161 197 1161 197 1191 252.5 c 128,-1,119
 1221 308 1221 308 1238 395 c 0,120,121
 1256 487 1256 487 1272.5 579.5 c 128,-1,122
 1289 672 1289 672 1309.5 760.5 c 128,-1,123
 1330 849 1330 849 1356 931 c 128,-1,124
 1382 1013 1382 1013 1419.5 1084 c 128,-1,125
 1457 1155 1457 1155 1508 1212 c 128,-1,126
 1559 1269 1559 1269 1629 1308 c 1,127,-1
 1671 1277 l 1,0,1
425 141 m 1,128,129
 405 148 405 148 374 158.5 c 128,-1,130
 343 169 343 169 307 178 c 128,-1,131
 271 187 271 187 233.5 193.5 c 128,-1,132
 196 200 196 200 163 200 c 0,133,134
 103 200 103 200 77.5 177.5 c 128,-1,135
 52 155 52 155 52 128 c 0,136,137
 52 92 52 92 82 77.5 c 128,-1,138
 112 63 112 63 157 63 c 0,139,140
 192 63 192 63 231.5 70 c 128,-1,141
 271 77 271 77 308 88.5 c 128,-1,142
 345 100 345 100 376 113.5 c 128,-1,143
 407 127 407 127 425 141 c 1,128,129
EndSplineSet
EndChar

StartChar: exclam
Encoding: 33 33 77
Width: 780
Flags: W
LayerCount: 2
Fore
SplineSet
628 1350 m 1,0,1
 581 1222 581 1222 534.5 1089.5 c 128,-1,2
 488 957 488 957 445.5 828 c 128,-1,3
 403 699 403 699 364.5 577 c 128,-1,4
 326 455 326 455 296 347 c 1,5,-1
 235 347 l 1,6,7
 242 482 242 482 268 621.5 c 128,-1,8
 294 761 294 761 328.5 893 c 128,-1,9
 363 1025 363 1025 401 1142.5 c 128,-1,10
 439 1260 439 1260 471 1350 c 1,11,-1
 628 1350 l 1,0,1
328 86 m 0,12,13
 328 60 328 60 318.5 39.5 c 128,-1,14
 309 19 309 19 294 5 c 128,-1,15
 279 -9 279 -9 259.5 -16 c 128,-1,16
 240 -23 240 -23 220 -23 c 0,17,18
 184 -23 184 -23 155.5 0.5 c 128,-1,19
 127 24 127 24 127 72 c 0,20,21
 127 98 127 98 137 118 c 128,-1,22
 147 138 147 138 162.5 152 c 128,-1,23
 178 166 178 166 198 173 c 128,-1,24
 218 180 218 180 238 180 c 0,25,26
 256 180 256 180 272 174.5 c 128,-1,27
 288 169 288 169 300.5 157.5 c 128,-1,28
 313 146 313 146 320.5 128.5 c 128,-1,29
 328 111 328 111 328 86 c 0,12,13
EndSplineSet
EndChar

StartChar: percent
Encoding: 37 37 78
Width: 1610
Flags: W
LayerCount: 2
Fore
SplineSet
1388 1772 m 1,0,-1
 1434 1737 l 1,1,-1
 207 -315 l 1,2,-1
 160 -283 l 1,3,-1
 1388 1772 l 1,0,-1
70 916 m 0,4,5
 70 991 70 991 99.5 1055.5 c 128,-1,6
 129 1120 129 1120 176.5 1167 c 128,-1,7
 224 1214 224 1214 283.5 1241 c 128,-1,8
 343 1268 343 1268 403 1268 c 0,9,10
 466 1268 466 1268 512.5 1247 c 128,-1,11
 559 1226 559 1226 590.5 1191 c 128,-1,12
 622 1156 622 1156 637.5 1110 c 128,-1,13
 653 1064 653 1064 653 1015 c 0,14,15
 653 953 653 953 631.5 890.5 c 128,-1,16
 610 828 610 828 567 778.5 c 128,-1,17
 524 729 524 729 459 698 c 128,-1,18
 394 667 394 667 307 667 c 0,19,20
 258 667 258 667 215 685 c 128,-1,21
 172 703 172 703 139.5 735.5 c 128,-1,22
 107 768 107 768 88.5 814 c 128,-1,23
 70 860 70 860 70 916 c 0,4,5
211 911 m 0,24,25
 211 878 211 878 217 845 c 128,-1,26
 223 812 223 812 237 785.5 c 128,-1,27
 251 759 251 759 273.5 742 c 128,-1,28
 296 725 296 725 330 725 c 0,29,30
 376 725 376 725 411.5 751 c 128,-1,31
 447 777 447 777 470.5 818 c 128,-1,32
 494 859 494 859 506 909.5 c 128,-1,33
 518 960 518 960 518 1010 c 0,34,35
 518 1050 518 1050 510.5 1086 c 128,-1,36
 503 1122 503 1122 488 1149.5 c 128,-1,37
 473 1177 473 1177 450 1193.5 c 128,-1,38
 427 1210 427 1210 396 1210 c 0,39,40
 364 1210 364 1210 331.5 1189.5 c 128,-1,41
 299 1169 299 1169 272 1131 c 128,-1,42
 245 1093 245 1093 228 1037 c 128,-1,43
 211 981 211 981 211 911 c 0,24,25
819 237 m 0,44,45
 819 312 819 312 848.5 376.5 c 128,-1,46
 878 441 878 441 925.5 488 c 128,-1,47
 973 535 973 535 1032.5 562 c 128,-1,48
 1092 589 1092 589 1152 589 c 0,49,50
 1215 589 1215 589 1261.5 568 c 128,-1,51
 1308 547 1308 547 1339.5 512 c 128,-1,52
 1371 477 1371 477 1386.5 431 c 128,-1,53
 1402 385 1402 385 1402 336 c 0,54,55
 1402 274 1402 274 1380.5 211.5 c 128,-1,56
 1359 149 1359 149 1316 99.5 c 128,-1,57
 1273 50 1273 50 1208 19 c 128,-1,58
 1143 -12 1143 -12 1056 -12 c 0,59,60
 1007 -12 1007 -12 964 6 c 128,-1,61
 921 24 921 24 888.5 56.5 c 128,-1,62
 856 89 856 89 837.5 135 c 128,-1,63
 819 181 819 181 819 237 c 0,44,45
960 232 m 0,64,65
 960 199 960 199 966 166 c 128,-1,66
 972 133 972 133 986 106.5 c 128,-1,67
 1000 80 1000 80 1022.5 63 c 128,-1,68
 1045 46 1045 46 1079 46 c 0,69,70
 1125 46 1125 46 1160.5 72 c 128,-1,71
 1196 98 1196 98 1219.5 139 c 128,-1,72
 1243 180 1243 180 1255 230.5 c 128,-1,73
 1267 281 1267 281 1267 331 c 0,74,75
 1267 371 1267 371 1259.5 407 c 128,-1,76
 1252 443 1252 443 1237 470.5 c 128,-1,77
 1222 498 1222 498 1199 514.5 c 128,-1,78
 1176 531 1176 531 1145 531 c 0,79,80
 1113 531 1113 531 1080.5 510.5 c 128,-1,81
 1048 490 1048 490 1021 452 c 128,-1,82
 994 414 994 414 977 358 c 128,-1,83
 960 302 960 302 960 232 c 0,64,65
EndSplineSet
EndChar

StartChar: zero
Encoding: 48 48 79
Width: 946
Flags: W
LayerCount: 2
Fore
SplineSet
73 347 m 0,0,1
 77 421 77 421 99.5 488 c 128,-1,2
 122 555 122 555 158.5 612.5 c 128,-1,3
 195 670 195 670 243 717 c 128,-1,4
 291 764 291 764 345 797 c 128,-1,5
 399 830 399 830 457 848 c 128,-1,6
 515 866 515 866 571 866 c 0,7,8
 660 866 660 866 726 835 c 128,-1,9
 792 804 792 804 834 752.5 c 128,-1,10
 876 701 876 701 895.5 633 c 128,-1,11
 915 565 915 565 911 491 c 0,12,13
 908 430 908 430 891 368.5 c 128,-1,14
 874 307 874 307 843.5 250 c 128,-1,15
 813 193 813 193 769 143 c 128,-1,16
 725 93 725 93 667.5 56 c 128,-1,17
 610 19 610 19 539 -2 c 128,-1,18
 468 -23 468 -23 384 -23 c 0,19,20
 316 -23 316 -23 257 3.5 c 128,-1,21
 198 30 198 30 156 79 c 128,-1,22
 114 128 114 128 91.5 196 c 128,-1,23
 69 264 69 264 73 347 c 0,0,1
282 340 m 0,24,25
 280 289 280 289 285 238.5 c 128,-1,26
 290 188 290 188 306 147 c 128,-1,27
 322 106 322 106 350 80.5 c 128,-1,28
 378 55 378 55 422 55 c 0,29,30
 485 55 485 55 535.5 94 c 128,-1,31
 586 133 586 133 621.5 195 c 128,-1,32
 657 257 657 257 677.5 334 c 128,-1,33
 698 411 698 411 702 487 c 0,34,35
 705 547 705 547 698 601.5 c 128,-1,36
 691 656 691 656 673 697.5 c 128,-1,37
 655 739 655 739 626 763.5 c 128,-1,38
 597 788 597 788 557 788 c 0,39,40
 514 788 514 788 468 758 c 128,-1,41
 422 728 422 728 382.5 670.5 c 128,-1,42
 343 613 343 613 315.5 529.5 c 128,-1,43
 288 446 288 446 282 340 c 0,24,25
EndSplineSet
EndChar

